<?xml version="1.0" encoding="UTF-8"?>
<!DOCTYPE svg PUBLIC "-//W3C//DTD SVG 1.1//EN" "http://www.w3.org/Graphics/SVG/1.1/DTD/svg11.dtd">
<!-- Creator: CorelDRAW 2020 (64-Bit) -->
<svg xmlns="http://www.w3.org/2000/svg" xml:space="preserve" width="100px" height="100px" version="1.1" style="shape-rendering:geometricPrecision; text-rendering:geometricPrecision; image-rendering:optimizeQuality; fill-rule:evenodd; clip-rule:evenodd"
viewBox="0 0 100 100"
 xmlns:xlink="http://www.w3.org/1999/xlink"
 xmlns:xodm="http://www.corel.com/coreldraw/odm/2003"
 data-name="Layer 3">
 <defs>
  <style type="text/css">
   <![CDATA[
    .fil3 {fill:#002F6B;fill-rule:nonzero}
    .fil1 {fill:#0A0B29;fill-rule:nonzero}
    .fil4 {fill:#2AAFF5;fill-rule:nonzero}
    .fil7 {fill:#6E4A04;fill-rule:nonzero}
    .fil6 {fill:#9E8531;fill-rule:nonzero}
    .fil5 {fill:#F7D472;fill-rule:nonzero}
    .fil0 {fill:url(#id0)}
    .fil2 {fill:url(#id1)}
   ]]>
  </style>
  <linearGradient id="id0" gradientUnits="userSpaceOnUse" x1="25.68" y1="8.37" x2="74.45" y2="92.84">
   <stop offset="0" style="stop-opacity:1; stop-color:#CCCCCC"/>
   <stop offset="1" style="stop-opacity:1; stop-color:white"/>
  </linearGradient>
  <linearGradient id="id1" gradientUnits="userSpaceOnUse" xlink:href="#id0" x1="55.45" y1="48.64" x2="57.28" y2="51.8">
  </linearGradient>
 </defs>
 <g id="Capa_x0020_1">
  <metadata id="CorelCorpID_0Corel-Layer"/>
  <path class="fil0" d="M83.72 16.28c-8.63,-8.63 -20.55,-13.97 -33.72,-13.97 -13.17,0 -25.1,5.34 -33.72,13.97 -8.63,8.62 -13.97,20.55 -13.97,33.72 0,13.17 5.34,25.1 13.97,33.72 8.62,8.63 20.55,13.97 33.72,13.97 13.17,0 25.09,-5.34 33.72,-13.97 8.63,-8.62 13.97,-20.55 13.97,-33.72 0,-13.17 -5.34,-25.1 -13.97,-33.72z"/>
  <path class="fil1" d="M50 0c13.81,0 26.31,5.6 35.36,14.64 9.04,9.05 14.64,21.55 14.64,35.36 0,13.81 -5.6,26.31 -14.64,35.36 -9.05,9.04 -21.55,14.64 -35.36,14.64 -13.81,0 -26.31,-5.6 -35.36,-14.64 -9.04,-9.05 -14.64,-21.55 -14.64,-35.36 0,-13.81 5.6,-26.31 14.64,-35.36 9.05,-9.04 21.55,-14.64 35.36,-14.64zm33.72 16.28c-8.63,-8.63 -20.55,-13.97 -33.72,-13.97 -13.17,0 -25.1,5.34 -33.72,13.97 -8.63,8.62 -13.97,20.55 -13.97,33.72 0,13.17 5.34,25.1 13.97,33.72 8.62,8.63 20.55,13.97 33.72,13.97 13.17,0 25.09,-5.34 33.72,-13.97 8.63,-8.62 13.97,-20.55 13.97,-33.72 0,-13.17 -5.34,-25.1 -13.97,-33.72z"/>
  <g id="_1931823532192">
   <path class="fil2" d="M57.63 48.93c-0.32,-0.32 -0.77,-0.52 -1.26,-0.52 -0.5,0 -0.94,0.2 -1.27,0.52 -0.32,0.33 -0.52,0.77 -0.52,1.27 0,0.49 0.2,0.94 0.52,1.26 0.33,0.33 0.77,0.53 1.27,0.53 0.49,0 0.94,-0.2 1.26,-0.53 0.33,-0.32 0.53,-0.77 0.53,-1.26 0,-0.5 -0.2,-0.94 -0.53,-1.27z"/>
   <path class="fil1" d="M56.37 48.32c0.51,0 0.98,0.21 1.32,0.55 0.34,0.34 0.55,0.81 0.55,1.33 0,0.52 -0.21,0.98 -0.55,1.32 -0.34,0.34 -0.81,0.55 -1.32,0.55 -0.52,0 -0.99,-0.21 -1.33,-0.55 -0.34,-0.34 -0.55,-0.8 -0.55,-1.32 0,-0.52 0.21,-0.99 0.55,-1.33 0.34,-0.34 0.81,-0.55 1.33,-0.55zm1.26 0.61c-0.32,-0.32 -0.77,-0.52 -1.26,-0.52 -0.5,0 -0.94,0.2 -1.27,0.52 -0.32,0.33 -0.52,0.77 -0.52,1.27 0,0.49 0.2,0.94 0.52,1.26 0.33,0.33 0.77,0.53 1.27,0.53 0.49,0 0.94,-0.2 1.26,-0.53 0.33,-0.32 0.53,-0.77 0.53,-1.26 0,-0.5 -0.2,-0.94 -0.53,-1.27z"/>
   <polygon class="fil3" points="63.12,48.11 63.12,29.36 62.66,29.36 62.66,32.01 20.94,32.01 20.94,53.69 36.88,53.69 36.88,48.11 "/>
   <path class="fil4" d="M47.53 40.01c0,-3.11 -2.52,-5.63 -5.63,-5.63 -3.1,0 -5.62,2.52 -5.62,5.63 0,3.11 2.52,5.62 5.62,5.62 3.11,0 5.63,-2.51 5.63,-5.62z"/>
   <path class="fil1" d="M46.59 40.01c0,-1.29 -0.52,-2.47 -1.37,-3.32 -0.85,-0.84 -2.02,-1.37 -3.32,-1.37 -1.29,0 -2.46,0.53 -3.31,1.37 -0.85,0.85 -1.37,2.03 -1.37,3.32 0,1.29 0.52,2.47 1.37,3.31 0.85,0.85 2.02,1.38 3.31,1.38 1.3,0 2.47,-0.53 3.32,-1.38 0.85,-0.84 1.37,-2.02 1.37,-3.31zm-0.05 -4.64c1.19,1.19 1.93,2.83 1.93,4.64 0,1.81 -0.74,3.45 -1.93,4.64 -1.18,1.19 -2.82,1.92 -4.64,1.92 -1.81,0 -3.45,-0.73 -4.64,-1.92 -1.18,-1.19 -1.92,-2.83 -1.92,-4.64 0,-1.81 0.74,-3.45 1.92,-4.64 1.19,-1.19 2.83,-1.92 4.64,-1.92 1.82,0 3.46,0.73 4.64,1.92z"/>
   <path class="fil5" d="M36.8 48.11l0 23.44 42.26 0 0 -23.44 -42.26 0zm20.66 16.83c-3.11,0 -5.64,-2.52 -5.64,-5.63 0,-3.1 2.53,-5.62 5.64,-5.62 3.11,0 5.63,2.52 5.63,5.62 0,3.11 -2.52,5.63 -5.63,5.63l0 0z"/>
   <path class="fil6" d="M63.08 59.31c0,-3.1 -2.51,-5.62 -5.62,-5.62 -3.11,0 -5.62,2.52 -5.62,5.62 0,3.11 2.51,5.63 5.62,5.63 3.11,0 5.62,-2.52 5.62,-5.63z"/>
   <path class="fil7" d="M62.15 59.31c0,-1.29 -0.53,-2.46 -1.38,-3.31 -0.84,-0.85 -2.02,-1.37 -3.31,-1.37 -1.29,0 -2.47,0.52 -3.31,1.37 -0.85,0.85 -1.38,2.02 -1.38,3.31 0,1.3 0.53,2.47 1.38,3.32 0.84,0.85 2.02,1.37 3.31,1.37 1.29,0 2.47,-0.52 3.31,-1.37 0.85,-0.85 1.38,-2.02 1.38,-3.32zm-0.05 -4.64c1.19,1.19 1.92,2.83 1.92,4.64 0,1.81 -0.73,3.46 -1.92,4.64 -1.19,1.19 -2.83,1.93 -4.64,1.93 -1.81,0 -3.45,-0.74 -4.64,-1.93 -1.19,-1.18 -1.92,-2.83 -1.92,-4.64 0,-1.81 0.73,-3.45 1.92,-4.64 1.19,-1.19 2.83,-1.92 4.64,-1.92 1.81,0 3.45,0.73 4.64,1.92z"/>
   <polygon class="fil4" points="20.94,29.36 63.12,29.36 63.12,32.01 20.94,32.01 "/>
   <path class="fil4" d="M31.25 39.2c0,-1.29 -1.05,-2.34 -2.34,-2.34 -1.3,0 -2.35,1.05 -2.35,2.34 0,1.3 1.05,2.35 2.35,2.35 1.29,0 2.34,-1.05 2.34,-2.35z"/>
   <path class="fil1" d="M30.31 39.2c0,-0.39 -0.16,-0.74 -0.41,-0.99 -0.25,-0.26 -0.6,-0.41 -0.99,-0.41 -0.39,0 -0.74,0.15 -1,0.41 -0.25,0.25 -0.41,0.6 -0.41,0.99 0,0.39 0.16,0.74 0.41,1 0.26,0.25 0.61,0.41 1,0.41 0.39,0 0.74,-0.16 0.99,-0.41 0.25,-0.26 0.41,-0.61 0.41,-1zm0.92 -2.32c0.59,0.6 0.96,1.42 0.96,2.32 0,0.91 -0.37,1.73 -0.96,2.32 -0.6,0.6 -1.42,0.96 -2.32,0.96 -0.91,0 -1.73,-0.36 -2.32,-0.96 -0.6,-0.59 -0.96,-1.41 -0.96,-2.32 0,-0.9 0.36,-1.72 0.96,-2.32 0.59,-0.59 1.41,-0.96 2.32,-0.96 0.9,0 1.72,0.37 2.32,0.96z"/>
   <path class="fil4" d="M56.56 39.2c0,-1.29 -1.05,-2.34 -2.34,-2.34 -1.3,0 -2.35,1.05 -2.35,2.34 0,1.3 1.05,2.35 2.35,2.35 1.29,0 2.34,-1.05 2.34,-2.35z"/>
   <path class="fil1" d="M55.62 39.2c0,-0.39 -0.15,-0.74 -0.41,-0.99 -0.25,-0.26 -0.6,-0.41 -0.99,-0.41 -0.39,0 -0.74,0.15 -1,0.41 -0.25,0.25 -0.41,0.6 -0.41,0.99 0,0.39 0.16,0.74 0.41,1 0.26,0.25 0.61,0.41 1,0.41 0.39,0 0.74,-0.16 0.99,-0.41 0.26,-0.26 0.41,-0.61 0.41,-1zm0.92 -2.32c0.59,0.6 0.96,1.42 0.96,2.32 0,0.91 -0.37,1.73 -0.96,2.32 -0.6,0.6 -1.42,0.96 -2.32,0.96 -0.91,0 -1.73,-0.36 -2.32,-0.96 -0.59,-0.59 -0.96,-1.41 -0.96,-2.32 0,-0.9 0.37,-1.72 0.96,-2.32 0.59,-0.59 1.41,-0.96 2.32,-0.96 0.9,0 1.72,0.37 2.32,0.96z"/>
   <path class="fil6" d="M47.19 58.89c0,-1.29 -1.05,-2.34 -2.35,-2.34 -1.29,0 -2.34,1.05 -2.34,2.34 0,1.29 1.05,2.34 2.34,2.34 1.3,0 2.35,-1.05 2.35,-2.34z"/>
   <path class="fil7" d="M46.25 58.89c0,-0.39 -0.16,-0.74 -0.41,-0.99 -0.26,-0.26 -0.61,-0.42 -1,-0.42 -0.38,0 -0.74,0.16 -0.99,0.42 -0.26,0.25 -0.41,0.6 -0.41,0.99 0,0.39 0.15,0.74 0.41,0.99 0.25,0.26 0.61,0.42 0.99,0.42 0.39,0 0.74,-0.16 1,-0.42 0.25,-0.25 0.41,-0.6 0.41,-0.99zm0.91 -2.32c0.6,0.59 0.97,1.41 0.97,2.32 0,0.91 -0.37,1.73 -0.97,2.32 -0.59,0.59 -1.41,0.96 -2.32,0.96 -0.9,0 -1.72,-0.37 -2.32,-0.96 -0.59,-0.59 -0.96,-1.41 -0.96,-2.32 0,-0.91 0.37,-1.73 0.96,-2.32 0.6,-0.59 1.42,-0.96 2.32,-0.96 0.91,0 1.73,0.37 2.32,0.96z"/>
   <path class="fil6" d="M72.5 58.89c0,-1.29 -1.05,-2.34 -2.34,-2.34 -1.3,0 -2.35,1.05 -2.35,2.34 0,1.29 1.05,2.34 2.35,2.34 1.29,0 2.34,-1.05 2.34,-2.34z"/>
   <path class="fil7" d="M71.56 58.89c0,-0.39 -0.15,-0.74 -0.41,-0.99 -0.25,-0.26 -0.61,-0.42 -0.99,-0.42 -0.39,0 -0.74,0.16 -1,0.42 -0.25,0.25 -0.41,0.6 -0.41,0.99 0,0.39 0.16,0.74 0.41,0.99 0.26,0.26 0.61,0.42 1,0.42 0.38,0 0.74,-0.16 0.99,-0.42 0.26,-0.25 0.41,-0.6 0.41,-0.99zm0.92 -2.32c0.59,0.59 0.96,1.41 0.96,2.32 0,0.91 -0.37,1.73 -0.96,2.32 -0.6,0.59 -1.42,0.96 -2.32,0.96 -0.91,0 -1.73,-0.37 -2.32,-0.96 -0.6,-0.59 -0.97,-1.41 -0.97,-2.32 0,-0.91 0.37,-1.73 0.97,-2.32 0.59,-0.59 1.41,-0.96 2.32,-0.96 0.9,0 1.72,0.37 2.32,0.96z"/>
   <path class="fil1" d="M55.62 77.17l-2.81 0c-0.52,0 -0.94,-0.42 -0.94,-0.94 0,-0.51 0.42,-0.93 0.94,-0.93l2.81 0c0.52,0 0.94,0.42 0.94,0.93 0,0.52 -0.42,0.94 -0.94,0.94z"/>
   <path class="fil1" d="M71.56 77.17l-2.81 0c-0.52,0 -0.94,-0.42 -0.94,-0.94 0,-0.51 0.42,-0.93 0.94,-0.93l2.81 0c0.52,0 0.94,0.42 0.94,0.93 0,0.52 -0.42,0.94 -0.94,0.94z"/>
   <path class="fil7" d="M72.5 52.8l-6.56 0c-0.52,0 -0.94,-0.42 -0.94,-0.94 0,-0.52 0.42,-0.94 0.94,-0.94l6.56 0c0.52,0 0.94,0.42 0.94,0.94 0,0.52 -0.42,0.94 -0.94,0.94l0 0z"/>
   <path class="fil1" d="M79.06 47.17l-42.18 0c-0.52,0 -0.94,0.42 -0.94,0.94l0 23.44c0,0.51 0.42,0.93 0.94,0.93l42.18 0c0.52,0 0.94,-0.42 0.94,-0.93l0 -23.44c0,-0.52 -0.42,-0.94 -0.94,-0.94zm-41.23 23.44l0 -21.55 40.29 0 0 21.55 -40.29 0z"/>
   <path class="fil1" d="M62.27 24.07c0.05,0.11 0.12,0.22 0.21,0.3l2.81 2.81c0.18,0.18 0.42,0.28 0.67,0.28 0.51,0 0.93,-0.42 0.93,-0.94 0,-0.24 -0.09,-0.48 -0.27,-0.66l-1.22 -1.19 3.75 0c3.41,0.01 6.16,2.77 6.16,6.17 0,0 0,0 0,0l0 4.69 -1.21 -1.22c-0.17,-0.18 -0.41,-0.28 -0.66,-0.28 -0.52,0 -0.94,0.42 -0.94,0.94 0,0.25 0.1,0.49 0.27,0.66l2.81 2.81c0.18,0.19 0.42,0.29 0.67,0.29 0.23,0 0.46,-0.09 0.63,-0.25l2.81 -2.81c0.18,-0.18 0.28,-0.42 0.28,-0.67 0,-0.52 -0.42,-0.93 -0.94,-0.93 -0.25,0 -0.49,0.09 -0.66,0.27l-1.18 1.21 0 -4.69c0,-0.01 0,-0.01 0,-0.02 0,-4.43 -3.59,-8.03 -8.02,-8.04l-3.75 0 1.22 -1.21c0.18,-0.18 0.28,-0.42 0.28,-0.67 0,-0.53 -0.43,-0.95 -0.95,-0.95 -0.25,0 -0.49,0.1 -0.67,0.28l-2.81 2.81c-0.18,0.17 -0.28,0.41 -0.28,0.66 0,0.13 0.03,0.25 0.07,0.36l-0.01 -0.01z"/>
   <polygon class="fil1" points="25.24,25.45 26.56,24.12 27.88,25.45 29.22,24.12 27.88,22.8 29.22,21.47 27.88,20.14 26.56,21.47 25.24,20.14 23.91,21.47 25.24,22.8 23.91,24.12 "/>
   <path class="fil1" d="M66.87 43.42c-0.51,0 -0.93,0.42 -0.93,0.94 0,0.52 0.42,0.94 0.93,0.94l1.88 0c0.52,0 0.94,-0.42 0.94,-0.94 0,-0.52 -0.42,-0.94 -0.94,-0.94l-1.88 0z"/>
   <path class="fil1" d="M70.62 34.98c0,-0.51 -0.41,-0.93 -0.93,-0.93l-2.82 0c-0.51,0 -0.93,0.42 -0.93,0.93 0,0.52 0.42,0.94 0.93,0.94l2.82 0c0.52,0 0.93,-0.42 0.93,-0.94z"/>
   <path class="fil1" d="M55.62 75.3l-2.81 0c-0.52,0 -0.94,0.42 -0.94,0.93 0,0.52 0.42,0.94 0.94,0.94l2.81 0c0.52,0 0.94,-0.42 0.94,-0.94 0,-0.51 -0.42,-0.93 -0.94,-0.93l0 0z"/>
   <path class="fil1" d="M71.56 75.3l-2.81 0c-0.52,0 -0.94,0.42 -0.94,0.93 0,0.52 0.42,0.94 0.94,0.94l2.81 0c0.52,0 0.94,-0.42 0.94,-0.94 0,-0.51 -0.42,-0.93 -0.94,-0.93l0 0z"/>
   <path class="fil1" d="M45.31 24.67l2.82 0c0.51,0 0.93,-0.42 0.93,-0.94 0,-0.51 -0.42,-0.93 -0.93,-0.93l-2.82 0c-0.52,0 -0.93,0.42 -0.93,0.93 0,0.52 0.41,0.94 0.93,0.94l0 0z"/>
   <path class="fil1" d="M20.94 54.67l12.19 0c0.51,0 0.93,-0.42 0.93,-0.94 0,-0.51 -0.42,-0.93 -0.93,-0.93l-11.25 0 0 -22.5 40.31 0 0 14.06c0,0.52 0.42,0.94 0.93,0.94 0.52,0 0.94,-0.42 0.94,-0.94l0 -15c0,-0.52 -0.42,-0.94 -0.94,-0.94l-42.18 0c-0.52,0 -0.94,0.42 -0.94,0.94l0 24.37c0,0.52 0.42,0.94 0.94,0.94l0 0z"/>
   <path class="fil1" d="M37.74 75.88c-0.05,-0.12 -0.12,-0.22 -0.21,-0.31l-2.81 -2.81c-0.17,-0.15 -0.39,-0.23 -0.61,-0.23 -0.52,0 -0.94,0.42 -0.94,0.94 0,0.22 0.08,0.44 0.23,0.61l1.22 1.22 -3.75 0c-0.01,0 -0.01,0 -0.01,0 -3.41,0 -6.17,-2.76 -6.17,-6.16l0 -4.69 1.21 1.21c0.17,0.14 0.38,0.22 0.61,0.22 0.52,0 0.93,-0.41 0.93,-0.93 0,-0.23 -0.08,-0.44 -0.22,-0.61l-2.81 -2.81c-0.18,-0.18 -0.42,-0.28 -0.67,-0.28 -0.25,0 -0.49,0.1 -0.66,0.28l-2.82 2.81c-0.14,0.17 -0.22,0.38 -0.22,0.61 0,0.52 0.42,0.93 0.94,0.93 0.22,0 0.43,-0.08 0.6,-0.22l1.23 -1.23 0 4.69c0,0 0,0 0,0.01 0,4.44 3.6,8.04 8.04,8.04l3.75 0 -1.21 1.21c-0.21,0.18 -0.33,0.44 -0.33,0.71 0,0.52 0.42,0.94 0.94,0.94 0.27,0 0.53,-0.12 0.71,-0.33l2.81 -2.81c0.18,-0.18 0.28,-0.42 0.28,-0.66 0,-0.13 -0.03,-0.25 -0.07,-0.36l0.01 0.01z"/>
  </g>
 </g>
</svg>
