<?xml version="1.0" encoding="UTF-8"?>
<!DOCTYPE svg PUBLIC "-//W3C//DTD SVG 1.1//EN" "http://www.w3.org/Graphics/SVG/1.1/DTD/svg11.dtd">
<!-- Creator: CorelDRAW 2020 (64-Bit) -->
<svg xmlns="http://www.w3.org/2000/svg" xml:space="preserve" width="100px" height="100px" version="1.1" style="shape-rendering:geometricPrecision; text-rendering:geometricPrecision; image-rendering:optimizeQuality; fill-rule:evenodd; clip-rule:evenodd"
viewBox="0 0 100 100"
 xmlns:xlink="http://www.w3.org/1999/xlink"
 xmlns:xodm="http://www.corel.com/coreldraw/odm/2003"
 data-name="Layer 3"
 enable-background="new 0 0 512 512">
 <defs>
  <style type="text/css">
   <![CDATA[
    .fil5 {fill:#F6B13D;fill-rule:nonzero}
    .fil4 {fill:#E9EEF2;fill-rule:nonzero}
    .fil7 {fill:#DBDDDE;fill-rule:nonzero}
    .fil3 {fill:#9DA5AA;fill-rule:nonzero}
    .fil2 {fill:#7B8286;fill-rule:nonzero}
    .fil6 {fill:#282828;fill-rule:nonzero}
    .fil1 {fill:#0A0B29;fill-rule:nonzero}
    .fil0 {fill:url(#id0)}
   ]]>
  </style>
  <linearGradient id="id0" gradientUnits="userSpaceOnUse" x1="25.68" y1="8.37" x2="74.45" y2="92.84">
   <stop offset="0" style="stop-opacity:1; stop-color:#CCCCCC"/>
   <stop offset="1" style="stop-opacity:1; stop-color:white"/>
  </linearGradient>
 </defs>
 <g id="Capa_x0020_1">
  <metadata id="CorelCorpID_0Corel-Layer"/>
  <path class="fil0" d="M83.72 16.28c-8.63,-8.63 -20.55,-13.97 -33.72,-13.97 -13.17,0 -25.1,5.34 -33.72,13.97 -8.63,8.62 -13.97,20.55 -13.97,33.72 0,13.17 5.34,25.1 13.97,33.72 8.62,8.63 20.55,13.97 33.72,13.97 13.17,0 25.09,-5.34 33.72,-13.97 8.63,-8.62 13.97,-20.55 13.97,-33.72 0,-13.17 -5.34,-25.1 -13.97,-33.72z"/>
  <path class="fil1" d="M50 0c13.81,0 26.31,5.6 35.36,14.64 9.04,9.05 14.64,21.55 14.64,35.36 0,13.81 -5.6,26.31 -14.64,35.36 -9.05,9.04 -21.55,14.64 -35.36,14.64 -13.81,0 -26.31,-5.6 -35.36,-14.64 -9.04,-9.05 -14.64,-21.55 -14.64,-35.36 0,-13.81 5.6,-26.31 14.64,-35.36 9.05,-9.04 21.55,-14.64 35.36,-14.64zm33.72 16.28c-8.63,-8.63 -20.55,-13.97 -33.72,-13.97 -13.17,0 -25.1,5.34 -33.72,13.97 -8.63,8.62 -13.97,20.55 -13.97,33.72 0,13.17 5.34,25.1 13.97,33.72 8.62,8.63 20.55,13.97 33.72,13.97 13.17,0 25.09,-5.34 33.72,-13.97 8.63,-8.62 13.97,-20.55 13.97,-33.72 0,-13.17 -5.34,-25.1 -13.97,-33.72z"/>
  <g id="_1931819227472">
   <polygon class="fil2" points="60.97,78.89 38.74,78.89 40.97,67.78 58.74,67.78 "/>
   <path class="fil3" d="M82.08 58.89l0 4.44c0,2.46 -1.99,4.45 -4.45,4.45l-55.55 0c-2.46,0 -4.45,-1.99 -4.45,-4.45l0 -4.44 64.45 0z"/>
   <path class="fil4" d="M22.08 21.11l55.55 0c2.46,0 4.45,1.99 4.45,4.45l0 29.99c0,2.46 -1.99,4.45 -4.45,4.45l-55.55 0c-2.46,0 -4.45,-1.99 -4.45,-4.45l0 -29.99c0,-2.46 1.99,-4.45 4.45,-4.45z"/>
   <path class="fil1" d="M18.89 60l62.22 0 0 3.33c0,1.84 -1.49,3.33 -3.33,3.34l-55.56 0c-1.84,-0.01 -3.33,-1.5 -3.33,-3.34l0 -3.33zm33.91 -31.11l1.81 0c1.13,0 2.06,0.92 2.06,2.05l0 1.16 0 5.56 0 0.12 0 13.4c0,0.3 -0.12,0.59 -0.34,0.79l-3.33 3.27c-0.44,0.43 -1.14,0.42 -1.57,-0.02l-2.54 -2.59 -2.54 2.59c-0.21,0.22 -0.5,0.34 -0.81,0.34 -0.3,-0.01 -0.59,-0.14 -0.79,-0.35l-2.53 -2.69 -2.52 2.69c-0.01,0 -0.01,0.01 -0.02,0.01 -0.43,0.44 -1.13,0.45 -1.57,0.02l-2.66 -2.61 -2.42 2.57c-0.01,0.01 -0.01,0.02 -0.02,0.03 -0.44,0.43 -1.14,0.43 -1.57,0l-2.55 -2.55 -2.55 2.55c-0.43,0.43 -1.12,0.43 -1.56,0.01l-3.33 -3.21c-0.21,-0.21 -0.34,-0.5 -0.34,-0.8l0 -21.23c0,-0.61 0.5,-1.11 1.11,-1.11 10.19,0 20.39,0 30.58,0zm-33.91 -3.33c0,-1.84 1.49,-3.34 3.33,-3.34 18.9,0 37.77,0.11 56.67,0.2 1.33,0.47 2.22,1.72 2.22,3.14l0 32.22 -62.22 0 0 -32.22zm21.36 52.22l1.77 -8.89 15.96 0 1.77 8.89 -19.5 0zm-18.03 -8.89l17.54 0 -1.96 9.78c-0.12,0.6 0.27,1.19 0.87,1.31 0.07,0.01 0.15,0.02 0.22,0.02l22.22 0c0.61,0 1.11,-0.5 1.11,-1.11 0,-0.07 0,-0.15 -0.02,-0.22l-1.96 -9.78 17.54 0c3.06,-0.01 5.55,-2.49 5.55,-5.56l0 -37.77c0,-2.64 -1.86,-4.92 -4.44,-5.45l-56.67 -0.11c-3.06,0 -5.55,2.49 -5.55,5.56l0 37.77c0,3.07 2.49,5.55 5.55,5.56l0 0z"/>
   <path class="fil5" d="M68.74 41.11c3.69,0 6.67,2.99 6.67,6.67 0,3.68 -2.98,6.66 -6.67,6.66 -3.68,0 -6.66,-2.98 -6.66,-6.66 0,-3.68 2.98,-6.67 6.66,-6.67z"/>
   <path class="fil6" d="M22.08 24.44c0.61,0 1.11,0.5 1.11,1.12 0,0.61 -0.5,1.11 -1.11,1.11 -0.62,0 -1.11,-0.5 -1.11,-1.11 0,-0.62 0.49,-1.12 1.11,-1.12z"/>
   <path class="fil6" d="M26.52 24.44c0.61,0 1.11,0.5 1.11,1.12 0,0.61 -0.5,1.11 -1.11,1.11 -0.61,0 -1.11,-0.5 -1.11,-1.11 0,-0.62 0.5,-1.12 1.11,-1.12z"/>
   <path class="fil6" d="M30.97 24.44c0.61,0 1.11,0.5 1.11,1.12 0,0.61 -0.5,1.11 -1.11,1.11 -0.62,0 -1.12,-0.5 -1.12,-1.11 0,-0.62 0.5,-1.12 1.12,-1.12z"/>
   <path class="fil6" d="M49.85 64.44l2.23 0c0.61,0 1.11,-0.49 1.11,-1.11 0,-0.61 -0.5,-1.11 -1.11,-1.11l-2.23 0c-0.61,0 -1.11,0.5 -1.11,1.11 0,0.62 0.5,1.11 1.11,1.11z"/>
   <path class="fil6" d="M70.18 45.88l-2.55 2.55 -0.32 -0.33c-0.44,-0.43 -1.14,-0.43 -1.57,0 -0.44,0.44 -0.44,1.14 0,1.57l1.11 1.12c0.43,0.43 1.13,0.43 1.57,0 0,0 0,0 0,0l3.33 -3.34c0.43,-0.43 0.43,-1.14 0,-1.57 -0.43,-0.43 -1.14,-0.43 -1.57,0l0 0z"/>
   <path class="fil6" d="M68.74 53.33c-3.06,0 -5.55,-2.48 -5.55,-5.55 0,-3.07 2.49,-5.56 5.55,-5.56 3.07,0 5.56,2.49 5.56,5.56 0,3.06 -2.49,5.55 -5.56,5.55zm0 -13.33c-4.29,0 -7.77,3.48 -7.77,7.78 0,4.29 3.48,7.78 7.77,7.78 4.3,0 7.78,-3.49 7.78,-7.78 0,-4.3 -3.48,-7.77 -7.78,-7.78z"/>
   <polygon class="fil7" points="54.99,50.72 54.99,30.62 22.93,30.62 22.93,50.77 26.13,53.82 29.34,50.66 32.55,53.82 35.62,50.59 38.96,53.82 42.17,50.46 45.37,53.82 48.58,50.59 51.79,53.82 "/>
   <path class="fil6" d="M39.86 40l-11.12 0c-0.61,0 -1.11,0.5 -1.11,1.11 0,0.62 0.5,1.11 1.11,1.11l11.12 0c0.61,0 1.11,-0.49 1.11,-1.11 0,-0.61 -0.5,-1.11 -1.11,-1.11z"/>
   <path class="fil6" d="M39.86 44.44l-11.12 0c-0.61,0 -1.11,0.5 -1.11,1.12 0,0.61 0.5,1.11 1.11,1.11l11.12 0c0.61,0 1.11,-0.5 1.11,-1.11 0,-0.62 -0.5,-1.12 -1.11,-1.12z"/>
   <path class="fil6" d="M46.52 42.22l2.22 0c0.62,0 1.11,-0.49 1.11,-1.11 0,-0.61 -0.49,-1.11 -1.11,-1.11l-2.22 0c-0.61,0 -1.11,0.5 -1.11,1.11 0,0.62 0.5,1.11 1.11,1.11z"/>
   <path class="fil6" d="M46.52 46.67l2.22 0c0.62,0 1.11,-0.5 1.11,-1.11 0,-0.62 -0.49,-1.12 -1.11,-1.12l-2.22 0c-0.61,0 -1.11,0.5 -1.11,1.12 0,0.61 0.5,1.11 1.11,1.11z"/>
   <path class="fil6" d="M39.86 35.56l-11.12 0c-0.61,0 -1.11,0.49 -1.11,1.11 0,0.61 0.5,1.11 1.11,1.11l11.12 0c0.61,0 1.11,-0.5 1.11,-1.11 0,-0.62 -0.5,-1.11 -1.11,-1.11z"/>
  </g>
 </g>
</svg>
