<?xml version="1.0" encoding="UTF-8"?>
<!DOCTYPE svg PUBLIC "-//W3C//DTD SVG 1.1//EN" "http://www.w3.org/Graphics/SVG/1.1/DTD/svg11.dtd">
<!-- Creator: CorelDRAW 2020 (64-Bit) -->
<svg xmlns="http://www.w3.org/2000/svg" xml:space="preserve" width="100px" height="100px" version="1.1" style="shape-rendering:geometricPrecision; text-rendering:geometricPrecision; image-rendering:optimizeQuality; fill-rule:evenodd; clip-rule:evenodd"
viewBox="0 0 100 100"
 xmlns:xlink="http://www.w3.org/1999/xlink"
 xmlns:xodm="http://www.corel.com/coreldraw/odm/2003"
 data-name="Layer 3"
 enable-background="new 0 0 512 512">
 <defs>
  <style type="text/css">
   <![CDATA[
    .fil8 {fill:black;fill-rule:nonzero}
    .fil1 {fill:#0A0B29;fill-rule:nonzero}
    .fil5 {fill:#7A8C98;fill-rule:nonzero}
    .fil4 {fill:#8D9CA8;fill-rule:nonzero}
    .fil3 {fill:#EDE1DD;fill-rule:nonzero}
    .fil2 {fill:#FAF7F7;fill-rule:nonzero}
    .fil7 {fill:#FD4755;fill-rule:nonzero}
    .fil6 {fill:#FE646F;fill-rule:nonzero}
    .fil0 {fill:url(#id0)}
   ]]>
  </style>
  <linearGradient id="id0" gradientUnits="userSpaceOnUse" x1="25.68" y1="8.37" x2="74.45" y2="92.84">
   <stop offset="0" style="stop-opacity:1; stop-color:#CCCCCC"/>
   <stop offset="1" style="stop-opacity:1; stop-color:white"/>
  </linearGradient>
 </defs>
 <g id="Capa_x0020_1">
  <metadata id="CorelCorpID_0Corel-Layer"/>
  <path class="fil0" d="M83.72 16.28c-8.63,-8.63 -20.55,-13.97 -33.72,-13.97 -13.17,0 -25.1,5.34 -33.72,13.97 -8.63,8.62 -13.97,20.55 -13.97,33.72 0,13.17 5.34,25.1 13.97,33.72 8.62,8.63 20.55,13.97 33.72,13.97 13.17,0 25.09,-5.34 33.72,-13.97 8.63,-8.62 13.97,-20.55 13.97,-33.72 0,-13.17 -5.34,-25.1 -13.97,-33.72z"/>
  <path class="fil1" d="M50 0c13.81,0 26.31,5.6 35.36,14.64 9.04,9.05 14.64,21.55 14.64,35.36 0,13.81 -5.6,26.31 -14.64,35.36 -9.05,9.04 -21.55,14.64 -35.36,14.64 -13.81,0 -26.31,-5.6 -35.36,-14.64 -9.04,-9.05 -14.64,-21.55 -14.64,-35.36 0,-13.81 5.6,-26.31 14.64,-35.36 9.05,-9.04 21.55,-14.64 35.36,-14.64zm33.72 16.28c-8.63,-8.63 -20.55,-13.97 -33.72,-13.97 -13.17,0 -25.1,5.34 -33.72,13.97 -8.63,8.62 -13.97,20.55 -13.97,33.72 0,13.17 5.34,25.1 13.97,33.72 8.62,8.63 20.55,13.97 33.72,13.97 13.17,0 25.09,-5.34 33.72,-13.97 8.63,-8.62 13.97,-20.55 13.97,-33.72 0,-13.17 -5.34,-25.1 -13.97,-33.72z"/>
  <path class="fil2" d="M70.99 82.45l-41.98 0c-1.26,0 -2.28,-1.02 -2.28,-2.28l0 -60.34c0,-1.26 1.02,-2.28 2.28,-2.28l41.98 0c1.26,0 2.28,1.02 2.28,2.28l0 60.34c0,1.26 -1.02,2.28 -2.28,2.28z"/>
  <path class="fil3" d="M71.98 22.14l0 60.34c0,1.26 -1.02,2.28 -2.28,2.28l-3 0c1.26,0 2.27,-1.02 2.27,-2.28l0 -60.34c0,-1.25 -1.01,-2.27 -2.27,-2.27l3 0c1.26,0 2.28,1.02 2.28,2.27z"/>
  <path class="fil4" d="M53.21 16.11l0 -1.65c0,-2.5 -2.01,-4.53 -4.5,-4.53 -2.48,0 -4.49,2.03 -4.49,4.53l0 1.65 -5.78 0c-0.5,0 -0.9,0.41 -0.9,0.91l0 5.69c0,0.51 0.4,0.91 0.9,0.91l20.54 0c0.5,0 0.91,-0.4 0.91,-0.91l0 -5.69c0,-0.5 -0.41,-0.91 -0.91,-0.91l-5.77 0 0 0z"/>
  <path class="fil5" d="M53.21 14.46l0 1.65 -1.37 0c-0.9,0 -1.64,-0.74 -1.64,-1.65 0,-1.97 -1.25,-3.65 -2.99,-4.27 0.47,-0.17 0.98,-0.26 1.5,-0.26 2.49,0 4.5,2.03 4.5,4.53l0 0z"/>
  <path class="fil5" d="M59.89 17.02l0 5.69c0,0.51 -0.41,0.91 -0.91,0.91l-3 0c0.49,0 0.9,-0.4 0.9,-0.91l0 -5.69c0,-0.5 -0.41,-0.91 -0.9,-0.91l3 0c0.5,0 0.91,0.41 0.91,0.91z"/>
  <circle class="fil6" cx="70.25" cy="71.82" r="12.94"/>
  <path class="fil7" d="M83.19 71.82c0,7.15 -5.79,12.94 -12.94,12.94 -2.89,0 -5.55,-0.94 -7.71,-2.54 1.47,0.57 3.06,0.88 4.72,0.88 7.15,0 12.94,-5.79 12.94,-12.94 0,-4.26 -2.06,-8.04 -5.23,-10.4 4.81,1.89 8.22,6.58 8.22,12.06l0 0z"/>
  <path class="fil2" d="M73.03 71.82l2.91 -2.91c0.77,-0.77 0.77,-2.01 0,-2.78 -0.77,-0.77 -2.01,-0.77 -2.78,0l-2.91 2.91 -2.91 -2.91c-0.77,-0.77 -2.01,-0.77 -2.78,0 -0.77,0.77 -0.77,2.01 0,2.78l2.91 2.91 -2.91 2.91c-0.77,0.77 -0.77,2.01 0,2.78 0.39,0.38 0.89,0.58 1.39,0.58 0.51,0 1.01,-0.2 1.39,-0.58l2.91 -2.91 2.91 2.91c0.39,0.38 0.89,0.58 1.39,0.58 0.5,0 1.01,-0.2 1.39,-0.58 0.77,-0.77 0.77,-2.01 0,-2.78l-2.91 -2.91z"/>
  <path class="fil3" d="M75.94 74.73c0.77,0.77 0.77,2.01 0,2.78 -0.38,0.38 -0.89,0.57 -1.39,0.57 -0.5,0 -1,-0.19 -1.39,-0.57l-0.01 -0.01c0.76,-0.77 0.76,-2.01 -0.01,-2.77l-2.22 -2.22c-0.38,-0.38 -0.38,-1 0,-1.38l2.22 -2.22c0.77,-0.76 0.77,-2 0.01,-2.77l0.01 -0.01c0.77,-0.77 2.01,-0.77 2.78,0 0.77,0.77 0.77,2.01 0,2.78l-2.91 2.91 2.91 2.91z"/>
  <path class="fil8" d="M32.25 58.34l3.35 0c0.63,0 1.13,-0.51 1.13,-1.13 0,-0.62 -0.5,-1.13 -1.13,-1.13l-3.35 0c-0.62,0 -1.13,0.51 -1.13,1.13 0,0.62 0.51,1.13 1.13,1.13z"/>
  <path class="fil8" d="M42.01 58.34l17.26 0c0.62,0 1.13,-0.51 1.13,-1.13 0,-0.62 -0.51,-1.13 -1.13,-1.13l-17.26 0c-0.62,0 -1.12,0.51 -1.12,1.13 0,0.62 0.5,1.13 1.12,1.13z"/>
  <path class="fil8" d="M77.65 67.52c0,-0.83 -0.33,-1.6 -0.91,-2.19 -0.59,-0.58 -1.36,-0.9 -2.19,-0.9 -0.82,0 -1.6,0.32 -2.19,0.9l-2.11 2.12 -2.11 -2.12c-0.58,-0.58 -1.36,-0.9 -2.19,-0.9 -0.82,0 -1.6,0.32 -2.18,0.9 -0.59,0.59 -0.91,1.36 -0.91,2.19 0,0.83 0.32,1.6 0.9,2.19l2.12 2.11 -2.11 2.11c-0.59,0.59 -0.91,1.36 -0.91,2.19 0,0.83 0.32,1.6 0.9,2.19 0.59,0.58 1.37,0.9 2.19,0.9 0.83,0 1.61,-0.32 2.19,-0.9l2.11 -2.12 2.11 2.12c0.59,0.58 1.36,0.9 2.19,0.9 0.83,0 1.61,-0.32 2.19,-0.9 0.58,-0.59 0.91,-1.36 0.91,-2.19 0,-0.83 -0.33,-1.6 -0.91,-2.19l-2.11 -2.11 2.11 -2.11c0.58,-0.59 0.91,-1.36 0.91,-2.19l0 0zm-2.51 0.59l-2.91 2.91c-0.21,0.21 -0.33,0.5 -0.33,0.8 0,0.3 0.12,0.59 0.33,0.8l2.91 2.91c0.16,0.15 0.25,0.37 0.25,0.59 0,0.46 -0.38,0.84 -0.84,0.84 -0.22,0 -0.43,-0.09 -0.59,-0.25l-2.91 -2.91c-0.21,-0.21 -0.5,-0.33 -0.8,-0.33 -0.3,0 -0.58,0.12 -0.79,0.33l-2.91 2.91c-0.52,0.51 -1.44,0.13 -1.44,-0.59 0,-0.23 0.09,-0.44 0.25,-0.59l2.91 -2.91c0.21,-0.21 0.33,-0.5 0.33,-0.8 0,-0.3 -0.12,-0.59 -0.33,-0.8l-2.91 -2.91c-0.16,-0.16 -0.25,-0.37 -0.25,-0.59 0,-0.47 0.38,-0.84 0.84,-0.84 0.23,0 0.44,0.09 0.6,0.25l2.91 2.91c0.21,0.21 0.49,0.33 0.79,0.33 0.3,0 0.59,-0.12 0.8,-0.33l2.91 -2.91c0.78,-0.78 2,0.37 1.18,1.18l0 0z"/>
  <path class="fil8" d="M73.11 58.04l0 -35.9c0,-1.87 -1.53,-3.4 -3.41,-3.4l-8.69 0 0 -1.72c0,-1.13 -0.91,-2.04 -2.03,-2.04l-4.65 0 0 -0.52c0,-3.12 -2.52,-5.66 -5.62,-5.66 -3.1,0 -5.62,2.54 -5.62,5.66l0 0.52 -4.65 0c-1.12,0 -2.03,0.91 -2.03,2.04l0 1.72 -8.69 0c-1.87,0 -3.4,1.53 -3.4,3.4l0 11.41c0,0.62 0.5,1.13 1.12,1.13 0.63,0 1.13,-0.51 1.13,-1.13l0 -11.41c0,-0.63 0.52,-1.15 1.15,-1.15l8.69 0 0 1.72c0,1.13 0.91,2.04 2.03,2.04l20.54 0c1.12,0 2.03,-0.91 2.03,-2.04l0 -1.72 8.69 0c0.64,0 1.15,0.52 1.15,1.15l0 35.62c-0.2,0 -0.4,-0.01 -0.6,-0.01 -7.76,0 -14.07,6.31 -14.07,14.07 0,4.95 2.57,9.3 6.44,11.81l-34.9 0c-0.63,0 -1.15,-0.51 -1.15,-1.15l0 -43.68c0,-0.62 -0.5,-1.13 -1.13,-1.13 -0.62,0 -1.12,0.51 -1.12,1.13l0 43.68c0,1.88 1.53,3.41 3.4,3.41l42.53 0c3.4,0 6.68,-1.23 9.24,-3.46 0.47,-0.41 0.52,-1.12 0.11,-1.59 -0.41,-0.47 -1.12,-0.52 -1.59,-0.11 -2.15,1.87 -4.9,2.9 -7.76,2.9 -6.51,0 -11.81,-5.3 -11.81,-11.81 0,-6.52 5.3,-11.81 11.81,-11.81 6.52,0 11.82,5.29 11.82,11.81 0,1.79 -0.39,3.5 -1.16,5.1 -0.27,0.56 -0.03,1.24 0.53,1.5 0.56,0.27 1.24,0.04 1.5,-0.53 0.92,-1.9 1.38,-3.94 1.38,-6.07 0,-6.78 -4.82,-12.45 -11.21,-13.78l0 0zm-14.35 -35.54l-20.09 0 0 -5.27 5.55 0c0.62,0 1.13,-0.5 1.13,-1.12l0 -1.65c0,-1.88 1.51,-3.4 3.36,-3.4 1.86,0 3.37,1.52 3.37,3.4l0 1.65c0,0.62 0.5,1.12 1.13,1.12l5.55 0 0 5.27z"/>
  <path class="fil8" d="M32.25 34.19l3.35 0c0.63,0 1.13,-0.5 1.13,-1.12 0,-0.63 -0.5,-1.13 -1.13,-1.13l-3.35 0c-0.62,0 -1.13,0.5 -1.13,1.13 0,0.62 0.51,1.12 1.13,1.12l0 0z"/>
  <path class="fil8" d="M42.01 34.19l23.16 0c0.63,0 1.13,-0.5 1.13,-1.12 0,-0.63 -0.5,-1.13 -1.13,-1.13l-23.16 0c-0.62,0 -1.12,0.5 -1.12,1.13 0,0.62 0.5,1.12 1.12,1.12l0 0z"/>
  <path class="fil8" d="M32.25 40.23l3.35 0c0.63,0 1.13,-0.5 1.13,-1.13 0,-0.62 -0.5,-1.12 -1.13,-1.12l-3.35 0c-0.62,0 -1.13,0.5 -1.13,1.12 0,0.63 0.51,1.13 1.13,1.13l0 0z"/>
  <path class="fil8" d="M42.01 40.23l23.16 0c0.63,0 1.13,-0.5 1.13,-1.13 0,-0.62 -0.5,-1.12 -1.13,-1.12l-23.16 0c-0.62,0 -1.12,0.5 -1.12,1.12 0,0.63 0.5,1.13 1.12,1.13l0 0z"/>
  <path class="fil8" d="M32.25 46.27l3.35 0c0.63,0 1.13,-0.51 1.13,-1.13 0,-0.62 -0.5,-1.13 -1.13,-1.13l-3.35 0c-0.62,0 -1.13,0.51 -1.13,1.13 0,0.62 0.51,1.13 1.13,1.13l0 0z"/>
  <path class="fil8" d="M42.01 46.27l23.16 0c0.63,0 1.13,-0.51 1.13,-1.13 0,-0.62 -0.5,-1.13 -1.13,-1.13l-23.16 0c-0.62,0 -1.12,0.51 -1.12,1.13 0,0.62 0.5,1.13 1.12,1.13l0 0z"/>
  <path class="fil8" d="M32.25 52.3l3.35 0c0.63,0 1.13,-0.5 1.13,-1.12 0,-0.63 -0.5,-1.13 -1.13,-1.13l-3.35 0c-0.62,0 -1.13,0.5 -1.13,1.13 0,0.62 0.51,1.12 1.13,1.12l0 0z"/>
  <path class="fil8" d="M42.01 52.3l23.16 0c0.63,0 1.13,-0.5 1.13,-1.12 0,-0.63 -0.5,-1.13 -1.13,-1.13l-23.16 0c-0.62,0 -1.12,0.5 -1.12,1.13 0,0.62 0.5,1.12 1.12,1.12l0 0z"/>
  <path class="fil8" d="M32.25 64.38l3.35 0c0.63,0 1.13,-0.51 1.13,-1.13 0,-0.63 -0.5,-1.13 -1.13,-1.13l-3.35 0c-0.62,0 -1.13,0.5 -1.13,1.13 0,0.62 0.51,1.13 1.13,1.13l0 0z"/>
  <path class="fil8" d="M42.01 64.38l12.46 0c0.62,0 1.13,-0.51 1.13,-1.13 0,-0.63 -0.51,-1.13 -1.13,-1.13l-12.46 0c-0.62,0 -1.12,0.5 -1.12,1.13 0,0.62 0.5,1.13 1.12,1.13l0 0z"/>
  <path class="fil8" d="M32.25 70.41l3.35 0c0.63,0 1.13,-0.5 1.13,-1.13 0,-0.62 -0.5,-1.12 -1.13,-1.12l-3.35 0c-0.62,0 -1.13,0.5 -1.13,1.12 0,0.63 0.51,1.13 1.13,1.13z"/>
  <path class="fil8" d="M42.01 70.41l9.29 0c0.62,0 1.13,-0.5 1.13,-1.13 0,-0.62 -0.51,-1.12 -1.13,-1.12l-9.29 0c-0.62,0 -1.12,0.5 -1.12,1.12 0,0.63 0.5,1.13 1.12,1.13z"/>
  <path class="fil8" d="M32.25 76.45l3.35 0c0.63,0 1.13,-0.51 1.13,-1.13 0,-0.62 -0.5,-1.13 -1.13,-1.13l-3.35 0c-0.62,0 -1.13,0.51 -1.13,1.13 0,0.62 0.51,1.13 1.13,1.13l0 0z"/>
  <path class="fil8" d="M42.01 76.45l8.23 0c0.63,0 1.13,-0.51 1.13,-1.13 0,-0.62 -0.5,-1.13 -1.13,-1.13l-8.23 0c-0.62,0 -1.12,0.51 -1.12,1.13 0,0.62 0.5,1.13 1.12,1.13l0 0z"/>
 </g>
</svg>
