<?xml version="1.0" encoding="UTF-8"?>
<!DOCTYPE svg PUBLIC "-//W3C//DTD SVG 1.1//EN" "http://www.w3.org/Graphics/SVG/1.1/DTD/svg11.dtd">
<!-- Creator: CorelDRAW 2020 (64-Bit) -->
<svg xmlns="http://www.w3.org/2000/svg" xml:space="preserve" width="100px" height="100px" version="1.1" style="shape-rendering:geometricPrecision; text-rendering:geometricPrecision; image-rendering:optimizeQuality; fill-rule:evenodd; clip-rule:evenodd"
viewBox="0 0 100 100"
 xmlns:xlink="http://www.w3.org/1999/xlink"
 xmlns:xodm="http://www.corel.com/coreldraw/odm/2003"
 data-name="Layer 3"
 enable-background="new 0 0 512 512">
 <defs>
  <style type="text/css">
   <![CDATA[
    .fil3 {fill:#001A3E}
    .fil2 {fill:#002F6B}
    .fil6 {fill:gray}
    .fil9 {fill:#9E8531}
    .fil7 {fill:#B3B3B3}
    .fil4 {fill:#CCCCCC}
    .fil5 {fill:#E6E6E6}
    .fil8 {fill:#F7D472}
    .fil10 {fill:black;fill-rule:nonzero}
    .fil1 {fill:#0A0B29;fill-rule:nonzero}
    .fil0 {fill:url(#id0)}
   ]]>
  </style>
  <linearGradient id="id0" gradientUnits="userSpaceOnUse" x1="25.68" y1="8.37" x2="74.45" y2="92.84">
   <stop offset="0" style="stop-opacity:1; stop-color:#CCCCCC"/>
   <stop offset="1" style="stop-opacity:1; stop-color:white"/>
  </linearGradient>
 </defs>
 <g id="Capa_x0020_1">
  <metadata id="CorelCorpID_0Corel-Layer"/>
  <path class="fil0" d="M83.72 16.28c-8.63,-8.63 -20.55,-13.97 -33.72,-13.97 -13.17,0 -25.1,5.34 -33.72,13.97 -8.63,8.62 -13.97,20.55 -13.97,33.72 0,13.17 5.34,25.1 13.97,33.72 8.62,8.63 20.55,13.97 33.72,13.97 13.17,0 25.09,-5.34 33.72,-13.97 8.63,-8.62 13.97,-20.55 13.97,-33.72 0,-13.17 -5.34,-25.1 -13.97,-33.72z"/>
  <path class="fil1" d="M50 0c13.81,0 26.31,5.6 35.36,14.64 9.04,9.05 14.64,21.55 14.64,35.36 0,13.81 -5.6,26.31 -14.64,35.36 -9.05,9.04 -21.55,14.64 -35.36,14.64 -13.81,0 -26.31,-5.6 -35.36,-14.64 -9.04,-9.05 -14.64,-21.55 -14.64,-35.36 0,-13.81 5.6,-26.31 14.64,-35.36 9.05,-9.04 21.55,-14.64 35.36,-14.64zm33.72 16.28c-8.63,-8.63 -20.55,-13.97 -33.72,-13.97 -13.17,0 -25.1,5.34 -33.72,13.97 -8.63,8.62 -13.97,20.55 -13.97,33.72 0,13.17 5.34,25.1 13.97,33.72 8.62,8.63 20.55,13.97 33.72,13.97 13.17,0 25.09,-5.34 33.72,-13.97 8.63,-8.62 13.97,-20.55 13.97,-33.72 0,-13.17 -5.34,-25.1 -13.97,-33.72z"/>
  <g id="_1931649177008">
   <path class="fil2" d="M76.23 75.91l0 -34.79c0,-1.59 -1.3,-2.89 -2.89,-2.89l-46.68 0c-1.59,0 -2.89,1.3 -2.89,2.89l0 34.79 52.46 0z"/>
   <path class="fil3" d="M76.23 75.91l0 -34.79c0,-1.59 -1.3,-2.89 -2.89,-2.89l-3.48 0c1.59,0 2.89,1.3 2.89,2.89l0 34.79 3.48 0z"/>
   <path class="fil2" d="M25.01 79.7l49.98 0c1.24,0 1.89,-0.61 2.39,-1.73l1.47 -3.2c0.62,-1.37 0.09,-2.33 -1.47,-2.33l-18.71 0c-0.28,0 -0.67,0.23 -0.79,0.69 -0.3,1.04 -1.26,1.79 -2.39,1.79l-10.98 0c-1.12,0 -2.1,-0.75 -2.39,-1.79 -0.12,-0.46 -0.51,-0.69 -0.79,-0.69l-18.71 0c-1.57,0 -2.09,0.96 -1.47,2.33l1.47 3.2c0.5,1.12 1.15,1.73 2.39,1.73l0 0z"/>
   <path class="fil3" d="M71.51 79.7l3.48 0c1.24,0 1.89,-0.61 2.4,-1.73l1.46 -3.2c0.62,-1.37 0.09,-2.33 -1.46,-2.33l-3.49 0c1.56,0 2.09,0.96 1.47,2.33l-1.47 3.2c-0.5,1.12 -1.15,1.73 -2.39,1.73l0 0z"/>
   <path class="fil4" d="M27.98 41.74l44.66 0c0.39,0 0.7,0.31 0.7,0.7l0 25.8c0,0.38 -0.31,0.69 -0.7,0.69l-44.66 0c-0.39,0 -0.7,-0.31 -0.7,-0.69l0 -25.8c0,-0.39 0.31,-0.7 0.7,-0.7l0 0z"/>
   <path class="fil5" d="M69.16 41.74l3.48 0c0.39,0 0.7,0.31 0.7,0.7l0 25.8c0,0.38 -0.31,0.69 -0.7,0.69l-3.48 0c0.39,0 0.7,-0.31 0.7,-0.69l0 -25.8c0,-0.39 -0.31,-0.7 -0.7,-0.7l0 0z"/>
   <path class="fil6" d="M33.48 64.78l33.66 0c0.96,0 1.74,-0.78 1.74,-1.74l0 -3.58c0,-0.95 -0.78,-1.73 -1.74,-1.73l-33.66 0c-0.96,0 -1.74,0.78 -1.74,1.73l0 3.58c0,0.96 0.78,1.74 1.74,1.74z"/>
   <path class="fil7" d="M63.66 64.78l3.48 0c0.96,0 1.74,-0.78 1.74,-1.74l0 -3.58c0,-0.95 -0.78,-1.73 -1.74,-1.73l-3.48 0c0.96,0 1.73,0.78 1.73,1.73l0 3.58c0,0.96 -0.77,1.74 -1.73,1.74z"/>
   <path class="fil8" d="M49.78 22.95l-2.54 -2.2c-0.34,-0.3 -0.73,-0.29 -1.06,0l-2.55 2.2c-0.32,0.28 -0.72,0.29 -1.05,0l-2.55 -2.2c-0.36,-0.32 -0.68,-0.32 -1.05,0l-2.55 2.2c-0.32,0.29 -0.53,0.65 -0.53,1.16l0 36.45c0,0.38 0.32,0.69 0.7,0.69l27.42 0c0.39,0 0.7,-0.31 0.7,-0.69l0 -36.45c0,-0.51 -0.21,-0.87 -0.53,-1.16l-2.55 -2.2c-0.37,-0.32 -0.69,-0.32 -1.05,0l-2.55 2.2c-0.33,0.29 -0.73,0.28 -1.05,0l-2.55 -2.2c-0.33,-0.29 -0.71,-0.3 -1.05,0l-2.55 2.2c-0.33,0.29 -0.73,0.29 -1.06,0l0 0z"/>
   <path class="fil9" d="M60.54 61.25l3.48 0c0.39,0 0.7,-0.31 0.7,-0.69l0 -36.45c0,-0.51 -0.21,-0.87 -0.53,-1.16l-2.55 -2.2c-0.37,-0.32 -0.69,-0.32 -1.05,0l-1.21 1.05 1.33 1.15c0.32,0.29 0.53,0.65 0.53,1.16l0 36.45c0,0.38 -0.32,0.69 -0.7,0.69z"/>
   <path class="fil10" d="M35 39.13l-8.34 0c-0.55,0 -1.05,0.22 -1.41,0.58 -0.36,0.36 -0.58,0.86 -0.58,1.41l0 23.2c0,0.49 -0.4,0.9 -0.9,0.9 -0.5,0 -0.9,-0.41 -0.9,-0.9l0 -23.2c0,-1.04 0.43,-1.99 1.11,-2.68 0.69,-0.68 1.64,-1.11 2.68,-1.11l8.34 0 0 -4.76c0,-0.5 0.41,-0.9 0.9,-0.9 0.5,0 0.9,0.4 0.9,0.9l0 27.79 27.02 0c0,-12.18 0,-24.36 0,-36.54l-2.7 -2.35 -3.02 2.62c-0.35,0.29 -0.85,0.28 -1.18,-0.01l-3.01 -2.61 -3.02 2.62c-0.34,0.29 -0.85,0.28 -1.17,-0.01l-3.01 -2.61 -3.02 2.62c-0.34,0.29 -0.85,0.28 -1.18,-0.01l-3.01 -2.61 -2.7 2.34 0 4.69c0,0.5 -0.4,0.9 -0.9,0.9 -0.49,0 -0.9,-0.4 -0.9,-0.9l0 -5.09c0,-0.25 0.11,-0.5 0.32,-0.68l3.59 -3.11c0.33,-0.29 0.84,-0.3 1.18,-0.01l3.02 2.62 3 -2.61c0.33,-0.29 0.84,-0.3 1.18,-0.01l3.02 2.62 3.01 -2.61c0.33,-0.29 0.83,-0.3 1.18,-0.01l3.01 2.62 3.01 -2.61c0.33,-0.29 0.84,-0.3 1.18,-0.01l3.55 3.08c0.22,0.16 0.37,0.42 0.37,0.72l0 13.92 7.72 0c1.04,0 1.99,0.43 2.68,1.11 0.68,0.69 1.11,1.64 1.11,2.68l0 30.43 0.26 0c0.53,0 0.99,0.09 1.37,0.26 0.4,0.19 0.71,0.45 0.92,0.79 0.21,0.33 0.32,0.72 0.32,1.14 0,0.43 -0.11,0.9 -0.34,1.4l-1.46 3.2c-0.31,0.69 -0.68,1.23 -1.19,1.63 -0.54,0.41 -1.19,0.63 -2.02,0.63l-49.98 0c-0.83,0 -1.48,-0.22 -2.02,-0.63 -0.51,-0.4 -0.88,-0.94 -1.19,-1.63l-1.46 -3.2c-0.23,-0.5 -0.34,-0.97 -0.34,-1.4 0,-0.42 0.11,-0.81 0.32,-1.14 0.21,-0.34 0.52,-0.6 0.92,-0.79 0.38,-0.17 0.84,-0.26 1.37,-0.26l0.26 0 0 -3.17c0,-0.49 0.4,-0.9 0.9,-0.9 0.5,0 0.9,0.41 0.9,0.9l0 3.17 17.36 0c0.49,0 0.89,0.4 0.89,0.89 0,0.44 0.18,0.83 0.47,1.12 0.29,0.29 0.69,0.47 1.12,0.47l10.98 0c0.43,0 0.83,-0.18 1.12,-0.47 0.29,-0.29 0.47,-0.68 0.47,-1.12 0,-0.49 0.4,-0.89 0.89,-0.89l17.36 0 0 -30.43c0,-0.55 -0.22,-1.05 -0.58,-1.41 -0.36,-0.36 -0.86,-0.58 -1.41,-0.58l-7.72 0 0 1.71 7.72 0c0.5,0 0.9,0.4 0.9,0.9l0 4.06c0,0.5 -0.4,0.9 -0.9,0.9 -0.49,0 -0.9,-0.4 -0.9,-0.9l0 -3.16 -6.82 0 0 14.19 1.52 0c0.73,0 1.39,0.3 1.86,0.77 0.48,0.48 0.77,1.14 0.77,1.86l0 3.58c0,0.73 -0.29,1.38 -0.77,1.86 -0.47,0.48 -1.13,0.77 -1.86,0.77l-33.66 0c-0.73,0 -1.39,-0.29 -1.86,-0.77 -0.48,-0.48 -0.77,-1.13 -0.77,-1.86l0 -3.58c0,-0.72 0.29,-1.38 0.77,-1.86 0.47,-0.47 1.13,-0.77 1.86,-0.77l1.52 0 0 -14.19 -6.82 0 0 25.39 44.26 0 0 -18.17c0,-0.49 0.41,-0.89 0.9,-0.89 0.5,0 0.9,0.4 0.9,0.89l0 19.07c0,0.5 -0.4,0.9 -0.9,0.9l-46.06 0c-0.5,0 -0.9,-0.4 -0.9,-0.9l0 -27.19c0,-0.5 0.4,-0.9 0.9,-0.9l7.72 0 0 -1.71zm5.63 -9.28c-0.48,0 -0.88,-0.39 -0.88,-0.87 0,-0.49 0.4,-0.88 0.88,-0.88l19.38 0c0.48,0 0.88,0.39 0.88,0.88 0,0.48 -0.4,0.87 -0.88,0.87l-19.38 0zm0 3.69c-0.48,0 -0.88,-0.39 -0.88,-0.88 0,-0.48 0.4,-0.88 0.88,-0.88l19.38 0c0.48,0 0.88,0.4 0.88,0.88 0,0.49 -0.4,0.88 -0.88,0.88l-19.38 0zm0 3.86c-0.48,0 -0.88,-0.39 -0.88,-0.88 0,-0.48 0.4,-0.88 0.88,-0.88l19.38 0c0.48,0 0.88,0.4 0.88,0.88 0,0.49 -0.4,0.88 -0.88,0.88l-19.38 0zm0 3.69c-0.48,0 -0.88,-0.4 -0.88,-0.88 0,-0.49 0.4,-0.88 0.88,-0.88l19.38 0c0.48,0 0.88,0.39 0.88,0.88 0,0.48 -0.4,0.88 -0.88,0.88l-19.38 0zm0 2.91c-0.48,0 -0.88,-0.39 -0.88,-0.88 0,-0.48 0.4,-0.88 0.88,-0.88l19.38 0c0.48,0 0.88,0.4 0.88,0.88 0,0.49 -0.4,0.88 -0.88,0.88l-19.38 0zm0 3.69c-0.48,0 -0.88,-0.39 -0.88,-0.88 0,-0.48 0.4,-0.88 0.88,-0.88l19.38 0c0.48,0 0.88,0.4 0.88,0.88 0,0.49 -0.4,0.88 -0.88,0.88l-19.38 0zm0.34 3.71c-0.49,0 -0.89,-0.4 -0.89,-0.89 0,-0.5 0.4,-0.9 0.89,-0.9l18.68 0c0.49,0 0.89,0.4 0.89,0.9 0,0.49 -0.4,0.89 -0.89,0.89l-18.68 0zm0 6.94c-0.49,0 -0.89,-0.4 -0.89,-0.9 0,-0.5 0.4,-0.9 0.89,-0.9l14.63 0c0.5,0 0.9,0.4 0.9,0.9 0,0.5 -0.4,0.9 -0.9,0.9l-14.63 0zm0 -3.47c-0.49,0 -0.89,-0.4 -0.89,-0.89 0,-0.5 0.4,-0.9 0.89,-0.9l18.68 0c0.49,0 0.89,0.4 0.89,0.9 0,0.49 -0.4,0.89 -0.89,0.89l-18.68 0zm24.65 3.75l0 2.63c0,0.5 -0.41,0.9 -0.9,0.9l-28.82 0c-0.49,0 -0.9,-0.4 -0.9,-0.9l0 -2.63 -1.52 0c-0.23,0 -0.44,0.1 -0.59,0.25 -0.16,0.15 -0.25,0.36 -0.25,0.59l0 3.58c0,0.23 0.09,0.44 0.25,0.6 0.15,0.15 0.36,0.24 0.59,0.24l33.66 0c0.24,0 0.44,-0.09 0.59,-0.24 0.16,-0.16 0.25,-0.37 0.25,-0.6l0 -3.58c0,-0.23 -0.09,-0.44 -0.25,-0.59 -0.15,-0.15 -0.35,-0.25 -0.59,-0.25l-1.52 0zm-40.61 20.19l49.98 0c0.41,0 0.71,-0.09 0.92,-0.26 0.26,-0.2 0.47,-0.52 0.67,-0.95l1.45 -3.2c0.09,-0.18 0.26,-0.66 0.14,-0.85 -0.12,-0.19 -0.6,-0.21 -0.78,-0.21l-18.64 0c-0.16,0.57 -0.46,1.08 -0.87,1.49 -0.61,0.61 -1.46,0.99 -2.39,0.99l-10.98 0c-0.93,0 -1.78,-0.38 -2.39,-0.99 -0.41,-0.41 -0.71,-0.92 -0.87,-1.49l-18.64 0c-0.18,0 -0.66,0.02 -0.78,0.21 -0.12,0.19 0.05,0.67 0.14,0.85l1.45 3.2c0.2,0.43 0.41,0.75 0.66,0.95 0.22,0.17 0.52,0.26 0.93,0.26l0 0z"/>
  </g>
 </g>
</svg>
