<?xml version="1.0" encoding="UTF-8"?>
<!DOCTYPE svg PUBLIC "-//W3C//DTD SVG 1.1//EN" "http://www.w3.org/Graphics/SVG/1.1/DTD/svg11.dtd">
<!-- Creator: CorelDRAW 2020 (64-Bit) -->
<svg xmlns="http://www.w3.org/2000/svg" xml:space="preserve" width="100px" height="100px" version="1.1" style="shape-rendering:geometricPrecision; text-rendering:geometricPrecision; image-rendering:optimizeQuality; fill-rule:evenodd; clip-rule:evenodd"
viewBox="0 0 100 100"
 xmlns:xlink="http://www.w3.org/1999/xlink"
 xmlns:xodm="http://www.corel.com/coreldraw/odm/2003"
 data-name="Layer 3"
 enable-background="new 0 0 64 64">
 <defs>
  <style type="text/css">
   <![CDATA[
    .fil8 {fill:black;fill-rule:nonzero}
    .fil2 {fill:#002F6B;fill-rule:nonzero}
    .fil1 {fill:#0A0B29;fill-rule:nonzero}
    .fil4 {fill:#4FC1E9;fill-rule:nonzero}
    .fil3 {fill:#E6E9ED;fill-rule:nonzero}
    .fil7 {fill:#F0D0B4;fill-rule:nonzero}
    .fil6 {fill:#FCD770;fill-rule:nonzero}
    .fil5 {fill:#FF826E;fill-rule:nonzero}
    .fil0 {fill:url(#id0)}
   ]]>
  </style>
  <linearGradient id="id0" gradientUnits="userSpaceOnUse" x1="25.68" y1="8.37" x2="74.45" y2="92.84">
   <stop offset="0" style="stop-opacity:1; stop-color:#CCCCCC"/>
   <stop offset="1" style="stop-opacity:1; stop-color:white"/>
  </linearGradient>
 </defs>
 <g id="Capa_x0020_1">
  <metadata id="CorelCorpID_0Corel-Layer"/>
  <path class="fil0" d="M83.72 16.28c-8.63,-8.63 -20.55,-13.97 -33.72,-13.97 -13.17,0 -25.1,5.34 -33.72,13.97 -8.63,8.62 -13.97,20.55 -13.97,33.72 0,13.17 5.34,25.1 13.97,33.72 8.62,8.63 20.55,13.97 33.72,13.97 13.17,0 25.09,-5.34 33.72,-13.97 8.63,-8.62 13.97,-20.55 13.97,-33.72 0,-13.17 -5.34,-25.1 -13.97,-33.72z"/>
  <path class="fil1" d="M50 0c13.81,0 26.31,5.6 35.36,14.64 9.04,9.05 14.64,21.55 14.64,35.36 0,13.81 -5.6,26.31 -14.64,35.36 -9.05,9.04 -21.55,14.64 -35.36,14.64 -13.81,0 -26.31,-5.6 -35.36,-14.64 -9.04,-9.05 -14.64,-21.55 -14.64,-35.36 0,-13.81 5.6,-26.31 14.64,-35.36 9.05,-9.04 21.55,-14.64 35.36,-14.64zm33.72 16.28c-8.63,-8.63 -20.55,-13.97 -33.72,-13.97 -13.17,0 -25.1,5.34 -33.72,13.97 -8.63,8.62 -13.97,20.55 -13.97,33.72 0,13.17 5.34,25.1 13.97,33.72 8.62,8.63 20.55,13.97 33.72,13.97 13.17,0 25.09,-5.34 33.72,-13.97 8.63,-8.62 13.97,-20.55 13.97,-33.72 0,-13.17 -5.34,-25.1 -13.97,-33.72z"/>
  <g id="_1931652071360">
   <path class="fil2" d="M79.03 22.9l0 9.68 -58.06 0 0 -9.68c0,-1.06 0.87,-1.93 1.93,-1.93l54.2 0c1.06,0 1.93,0.87 1.93,1.93z"/>
   <polygon class="fil3" points="24.84,24.84 28.71,24.84 28.71,28.71 24.84,28.71 "/>
   <polygon class="fil3" points="32.58,24.84 36.45,24.84 36.45,28.71 32.58,28.71 "/>
   <polygon class="fil3" points="40.32,24.84 44.19,24.84 44.19,28.71 40.32,28.71 "/>
   <path class="fil3" d="M77.1 67.42l-54.2 0c-1.06,0 -1.93,-0.87 -1.93,-1.94l0 -32.9 58.06 0 0 32.9c0,1.07 -0.87,1.94 -1.93,1.94z"/>
   <polygon class="fil4" points="26.77,36.45 38.39,36.45 38.39,48.06 26.77,48.06 "/>
   <polygon class="fil4" points="26.77,51.93 38.39,51.93 38.39,63.55 26.77,63.55 "/>
   <path class="fil5" d="M75.16 36.45l0 11.61 -15.48 0 0 -1.93c0,-0.53 -0.22,-1.02 -0.57,-1.37 -0.35,-0.35 -0.84,-0.57 -1.37,-0.57 -1.06,0 -1.93,0.87 -1.93,1.94l0 1.93 -13.55 0 0 -11.61 32.9 0z"/>
   <path class="fil6" d="M55.81 51.93l0 11.85c0,-3.36 -2.72,-6.08 -6.09,-6.08l-0.09 0c-0.87,0 -1.57,0.7 -1.57,1.57 0,0.24 0.06,0.48 0.17,0.7l1.13 2.25c0.21,0.42 0.37,0.86 0.48,1.33l-7.58 0 0 -11.62 13.55 0z"/>
   <path class="fil6" d="M69.35 57.74c-1.06,0 -1.93,0.87 -1.93,1.94l0 -1.94c0,-0.53 -0.21,-1.02 -0.57,-1.36 -0.35,-0.36 -0.83,-0.57 -1.37,-0.57 -1.06,0 -1.93,0.87 -1.93,1.93 0,-0.53 -0.22,-1.02 -0.57,-1.36 -0.35,-0.36 -0.83,-0.57 -1.37,-0.57 -1.06,0 -1.93,0.87 -1.93,1.93l0 -5.81 15.48 0 0 11.62 -3.87 0 0 -3.87c0,-0.54 -0.21,-1.02 -0.57,-1.37 -0.35,-0.36 -0.83,-0.57 -1.37,-0.57l0 0z"/>
   <path class="fil7" d="M67.42 59.68c0,-1.07 0.87,-1.94 1.93,-1.94 0.54,0 1.02,0.21 1.37,0.57 0.36,0.35 0.57,0.83 0.57,1.37l0 3.87 0 3.87 0 2.9c0,1.26 -0.41,2.48 -1.16,3.49l-1.74 2.32 0 2.9 -15.49 -0.04 0 -2.86 -2.29 -4.63c-0.41,-0.8 -0.61,-1.68 -0.61,-2.58l0 -1.5 0 -2.48c0,-0.46 -0.06,-0.94 -0.16,-1.39 -0.11,-0.47 -0.27,-0.91 -0.48,-1.33l-1.13 -2.25c-0.11,-0.22 -0.17,-0.46 -0.17,-0.7 0,-0.87 0.7,-1.57 1.57,-1.57l0.09 0c3.37,0 6.09,2.72 6.09,6.08l0 -11.85 0 -3.87 0 -1.93c0,-1.07 0.87,-1.94 1.93,-1.94 0.53,0 1.02,0.22 1.37,0.57 0.35,0.35 0.57,0.84 0.57,1.37l0 1.93 0 3.87 0 5.81c0,-1.06 0.87,-1.93 1.93,-1.93 0.53,0 1.02,0.21 1.37,0.57 0.35,0.34 0.57,0.83 0.57,1.36 0,-1.06 0.87,-1.93 1.93,-1.93 0.54,0 1.02,0.21 1.37,0.57 0.36,0.34 0.57,0.83 0.57,1.36l0 1.94z"/>
   <path class="fil8" d="M77.1 20l-54.2 0c-1.6,0 -2.9,1.3 -2.9,2.9l0 42.58c0,1.6 1.3,2.91 2.9,2.91l26.13 0 0 0.53c0,1.04 0.25,2.08 0.71,3.01l2.2 4.42 0 3.6 17.41 0.05 0 -3.55 1.55 -2.06c0.88,-1.17 1.36,-2.61 1.36,-4.07l0 -1.93 4.84 0c1.6,0 2.9,-1.31 2.9,-2.91l0 -42.58c0,-1.6 -1.3,-2.9 -2.9,-2.9l0 0zm-54.2 1.94l54.2 0c0.53,0 0.96,0.43 0.96,0.96l0 8.71 -56.12 0 0 -8.71c0,-0.53 0.43,-0.96 0.96,-0.96l0 0zm34.84 21.29c-1.6,0 -2.9,1.3 -2.9,2.9l0 0.97 -11.61 0 0 -9.68 30.96 0 0 9.68 -13.54 0 0 -0.97c0,-1.6 -1.31,-2.9 -2.91,-2.9zm-2.9 15.73c-1.3,-1.37 -3.14,-2.23 -5.21,-2.23 -1.4,0 -2.53,1.14 -2.53,2.54 0,0.39 0.09,0.78 0.26,1.13l1.09 2.18 -5.22 0 0 -9.68 11.61 0 0 6.06zm15.48 11.36c0,1.04 -0.34,2.07 -0.97,2.9l-1.93 2.58 0 2.26 -13.55 -0.04 0 -2.12 -2.4 -4.83c-0.33,-0.67 -0.5,-1.41 -0.5,-2.15l0 -3.98c0,-1.09 -0.26,-2.18 -0.75,-3.15l-1.12 -2.26c-0.04,-0.08 -0.07,-0.17 -0.07,-0.26 0,-0.33 0.27,-0.6 0.69,-0.6 2.82,0 5.12,2.29 5.12,5.11l0 1.66 0 1.94 1.93 0 0 -1.94 0 -1.66 0 -17.65c0,-0.54 0.44,-0.97 0.97,-0.97 0.53,0 0.97,0.43 0.97,0.97l0 11.61 0 3.87 1.94 0 0 -3.87c0,-0.53 0.43,-0.97 0.96,-0.97 0.54,0 0.97,0.44 0.97,0.97l0 3.87 1.94 0 0 -3.87c0,-0.53 0.43,-0.97 0.96,-0.97 0.54,0 0.97,0.44 0.97,0.97l0 1.94 0 1.93 1.94 0 0 -1.93c0,-0.54 0.43,-0.97 0.96,-0.97 0.54,0 0.97,0.43 0.97,0.97l0 10.64zm-0.97 -13.55c-0.38,0 -0.74,0.08 -1.08,0.22 -0.33,-1.24 -1.45,-2.15 -2.79,-2.15 -0.74,0 -1.42,0.29 -1.93,0.75 -0.52,-0.46 -1.19,-0.75 -1.94,-0.75 -0.34,0 -0.66,0.07 -0.96,0.18l0 -2.12 13.54 0 0 9.68 -1.93 0 0 -2.9c0,-1.6 -1.3,-2.91 -2.91,-2.91zm7.75 9.68l-4.84 0 0 -1.94 3.87 0 0 -13.54 -15.48 0 0 -1.94 15.48 0 0 -13.55 -34.84 0 0 13.55 13.55 0 0 1.94 -13.55 0 0 13.54 7.72 0c0.01,0.15 0.02,0.29 0.02,0.43l0 1.51 -26.13 0c-0.53,0 -0.96,-0.43 -0.96,-0.97l0 -31.93 56.12 0 0 31.93c0,0.54 -0.43,0.97 -0.96,0.97l0 0z"/>
   <path class="fil8" d="M29.68 23.87l-5.81 0 0 5.81 5.81 0 0 -5.81zm-1.94 3.87l-1.93 0 0 -1.93 1.93 0 0 1.93z"/>
   <path class="fil8" d="M37.42 23.87l-5.81 0 0 5.81 5.81 0 0 -5.81zm-1.94 3.87l-1.93 0 0 -1.93 1.93 0 0 1.93z"/>
   <path class="fil8" d="M45.16 23.87l-5.81 0 0 5.81 5.81 0 0 -5.81zm-1.93 3.87l-1.94 0 0 -1.93 1.94 0 0 1.93z"/>
   <polygon class="fil8" points="45.16,39.35 47.1,39.35 47.1,41.29 45.16,41.29 "/>
   <polygon class="fil8" points="49.03,39.35 72.26,39.35 72.26,41.29 49.03,41.29 "/>
   <polygon class="fil8" points="62.58,43.23 72.26,43.23 72.26,45.16 62.58,45.16 "/>
   <polygon class="fil8" points="45.16,43.23 52.9,43.23 52.9,45.16 45.16,45.16 "/>
   <path class="fil8" d="M25.81 49.03l13.54 0 0 -13.55 -13.54 0 0 13.55zm1.93 -11.61l9.68 0 0 9.68 -9.68 0 0 -9.68z"/>
   <polygon class="fil8" points="31.61,42.82 30.36,41.57 28.99,42.94 31.61,45.56 37.14,40.04 35.77,38.67 "/>
   <path class="fil8" d="M25.81 64.51l13.54 0 0 -13.54 -13.54 0 0 13.54zm1.93 -11.61l9.68 0 0 9.68 -9.68 0 0 -9.68z"/>
   <polygon class="fil8" points="31.61,58.31 30.36,57.06 28.99,58.42 31.61,61.04 37.14,55.52 35.77,54.15 "/>
  </g>
 </g>
</svg>
