<?xml version="1.0" encoding="UTF-8"?>
<!DOCTYPE svg PUBLIC "-//W3C//DTD SVG 1.1//EN" "http://www.w3.org/Graphics/SVG/1.1/DTD/svg11.dtd">
<!-- Creator: CorelDRAW 2020 (64-Bit) -->
<svg xmlns="http://www.w3.org/2000/svg" xml:space="preserve" width="100px" height="100px" version="1.1" style="shape-rendering:geometricPrecision; text-rendering:geometricPrecision; image-rendering:optimizeQuality; fill-rule:evenodd; clip-rule:evenodd"
viewBox="0 0 100 100"
 xmlns:xlink="http://www.w3.org/1999/xlink"
 xmlns:xodm="http://www.corel.com/coreldraw/odm/2003"
 data-name="Layer 3"
 enable-background="new 0 0 256 256">
 <defs>
  <style type="text/css">
   <![CDATA[
    .fil6 {fill:black;fill-rule:nonzero}
    .fil3 {fill:#002F6B;fill-rule:nonzero}
    .fil1 {fill:#0A0B29;fill-rule:nonzero}
    .fil5 {fill:#9E8531;fill-rule:nonzero}
    .fil2 {fill:#EDF4FC;fill-rule:nonzero}
    .fil4 {fill:#F7D472;fill-rule:nonzero}
    .fil0 {fill:url(#id0)}
   ]]>
  </style>
  <linearGradient id="id0" gradientUnits="userSpaceOnUse" x1="25.68" y1="8.37" x2="74.45" y2="92.84">
   <stop offset="0" style="stop-opacity:1; stop-color:#CCCCCC"/>
   <stop offset="1" style="stop-opacity:1; stop-color:white"/>
  </linearGradient>
 </defs>
 <g id="Capa_x0020_1">
  <metadata id="CorelCorpID_0Corel-Layer"/>
  <path class="fil0" d="M83.72 16.28c-8.63,-8.63 -20.55,-13.97 -33.72,-13.97 -13.17,0 -25.1,5.34 -33.72,13.97 -8.63,8.62 -13.97,20.55 -13.97,33.72 0,13.17 5.34,25.1 13.97,33.72 8.62,8.63 20.55,13.97 33.72,13.97 13.17,0 25.09,-5.34 33.72,-13.97 8.63,-8.62 13.97,-20.55 13.97,-33.72 0,-13.17 -5.34,-25.1 -13.97,-33.72z"/>
  <path class="fil1" d="M50 0c13.81,0 26.31,5.6 35.36,14.64 9.04,9.05 14.64,21.55 14.64,35.36 0,13.81 -5.6,26.31 -14.64,35.36 -9.05,9.04 -21.55,14.64 -35.36,14.64 -13.81,0 -26.31,-5.6 -35.36,-14.64 -9.04,-9.05 -14.64,-21.55 -14.64,-35.36 0,-13.81 5.6,-26.31 14.64,-35.36 9.05,-9.04 21.55,-14.64 35.36,-14.64zm33.72 16.28c-8.63,-8.63 -20.55,-13.97 -33.72,-13.97 -13.17,0 -25.1,5.34 -33.72,13.97 -8.63,8.62 -13.97,20.55 -13.97,33.72 0,13.17 5.34,25.1 13.97,33.72 8.62,8.63 20.55,13.97 33.72,13.97 13.17,0 25.09,-5.34 33.72,-13.97 8.63,-8.62 13.97,-20.55 13.97,-33.72 0,-13.17 -5.34,-25.1 -13.97,-33.72z"/>
  <g id="_1931823552928">
   <path class="fil2" d="M64.98 40.27l-29.96 0c-0.32,0 -0.58,0.25 -0.58,0.57 0,0.02 0,0.03 0,0.05 0.02,1.57 1.36,2.79 2.92,2.79l25.28 0c1.56,0 2.9,-1.22 2.92,-2.79 0,-0.02 0,-0.03 0,-0.05 0,-0.32 -0.26,-0.57 -0.58,-0.57z"/>
   <path class="fil3" d="M61.36 20.62l-22.72 0c-0.89,0 -1.61,0.73 -1.61,1.62l0 16.41c0,0.89 0.72,1.62 1.61,1.62l22.72 0c0.89,0 1.61,-0.73 1.61,-1.62l0 -16.42c0,-0.88 -0.72,-1.61 -1.61,-1.61l0 0z"/>
   <path class="fil4" d="M61.84 22.95l-23.68 0c-0.62,0 -1.13,0.51 -1.13,1.14l0 12.57c0,0.63 0.51,1.14 1.13,1.14l23.68 0c0.62,0 1.13,-0.51 1.13,-1.14l0 -12.57c0,-0.63 -0.51,-1.14 -1.13,-1.14z"/>
   <path class="fil3" d="M41.56 60.61l-18.71 0c-0.81,0 -1.47,0.66 -1.47,1.47l0 12.76c0,0.8 0.66,1.46 1.47,1.46l18.71 0c0.81,0 1.46,-0.66 1.46,-1.46l0 -12.76c0,-0.81 -0.65,-1.47 -1.46,-1.47z"/>
   <path class="fil2" d="M44.84 76.3l-25.27 0c-0.29,0 -0.53,0.23 -0.53,0.51 0,0.02 0,0.04 0,0.06 0.02,1.41 1.23,2.51 2.65,2.51l21.03 0c1.41,0 2.62,-1.1 2.65,-2.51 0,-0.02 0,-0.04 0,-0.06 -0.01,-0.28 -0.24,-0.51 -0.53,-0.51l0 0z"/>
   <path class="fil3" d="M77.15 60.61l-18.71 0c-0.81,0 -1.46,0.66 -1.46,1.47l0 12.76c0,0.8 0.65,1.46 1.46,1.46l18.71 0c0.81,0 1.47,-0.66 1.47,-1.46l0 -12.76c0,-0.81 -0.66,-1.47 -1.47,-1.47z"/>
   <path class="fil2" d="M80.43 76.3l-25.27 0c-0.29,0 -0.52,0.23 -0.53,0.51 0,0.02 0,0.04 0,0.06 0.03,1.41 1.24,2.51 2.65,2.51l21.03 0c1.42,0 2.63,-1.1 2.65,-2.51 0,-0.02 0,-0.04 0,-0.06 0,-0.28 -0.24,-0.51 -0.53,-0.51l0 0z"/>
   <path class="fil5" d="M42 62.73l-19.59 0c-0.57,0 -1.03,0.46 -1.03,1.02l0 9.29c0,0.57 0.46,1.03 1.03,1.03l19.59 0c0.56,0 1.02,-0.46 1.02,-1.03l0 -9.29c0,-0.56 -0.46,-1.02 -1.02,-1.02l0 0z"/>
   <path class="fil5" d="M77.59 62.73l-19.59 0c-0.56,0 -1.02,0.46 -1.02,1.02l0 9.29c0,0.57 0.46,1.03 1.02,1.03l19.59 0c0.57,0 1.03,-0.46 1.03,-1.03l0 -9.29c0,-0.56 -0.46,-1.02 -1.03,-1.02l0 0z"/>
   <path class="fil6" d="M62.64 44.29l-25.28 0c-1.92,0 -3.51,-1.52 -3.54,-3.39l0 -0.07c0,-0.65 0.54,-1.18 1.2,-1.18l29.96 0c0.66,0 1.2,0.53 1.2,1.18l0 0.07c-0.03,1.87 -1.62,3.39 -3.54,3.39l0 0zm-27.59 -3.4c0.02,1.2 1.06,2.17 2.31,2.17l25.28 0c1.25,0 2.29,-0.97 2.31,-2.17l-29.9 0zm29.93 0l0.01 0 -0.01 0z"/>
   <path class="fil6" d="M67.88 58.35c-0.34,0 -0.61,-0.28 -0.61,-0.62l0 -5.13 -34.54 0 0 5.13c0,0.34 -0.27,0.62 -0.61,0.62 -0.35,0 -0.62,-0.28 -0.62,-0.62l0 -5.75c0,-0.34 0.27,-0.61 0.62,-0.61l35.76 0c0.35,0 0.62,0.27 0.62,0.61l0 5.75c0,0.34 -0.27,0.62 -0.62,0.62z"/>
   <path class="fil6" d="M50 52.6c-0.34,0 -0.62,-0.28 -0.62,-0.62l0 -8.17c0,-0.35 0.28,-0.62 0.62,-0.62 0.34,0 0.62,0.27 0.62,0.62l0 8.17c0,0.34 -0.28,0.62 -0.62,0.62z"/>
   <path class="fil6" d="M46.59 33.61c-0.15,0 -0.31,-0.06 -0.43,-0.18l-2.7 -2.69c-0.24,-0.24 -0.24,-0.63 0,-0.87l2.7 -2.7c0.24,-0.24 0.63,-0.24 0.87,0 0.24,0.24 0.24,0.63 0,0.88l-2.26 2.25 2.26 2.26c0.24,0.24 0.24,0.63 0,0.87 -0.12,0.12 -0.28,0.18 -0.44,0.18l0 0z"/>
   <path class="fil6" d="M53.41 33.61c-0.16,0 -0.32,-0.06 -0.44,-0.18 -0.24,-0.24 -0.24,-0.63 0,-0.87l2.26 -2.26 -2.26 -2.25c-0.24,-0.25 -0.24,-0.64 0,-0.88 0.24,-0.24 0.63,-0.24 0.87,0l2.7 2.7c0.11,0.11 0.18,0.27 0.18,0.43 0,0.17 -0.07,0.32 -0.18,0.44l-2.7 2.69c-0.12,0.12 -0.28,0.18 -0.43,0.18l0 0z"/>
   <path class="fil6" d="M48.35 35.23c-0.08,0 -0.15,-0.01 -0.22,-0.04 -0.32,-0.12 -0.48,-0.48 -0.36,-0.8l3.31 -8.62c0.12,-0.31 0.48,-0.47 0.79,-0.35 0.32,0.12 0.48,0.48 0.36,0.79l-3.31 8.62c-0.09,0.25 -0.33,0.4 -0.57,0.4z"/>
   <path class="fil6" d="M39.33 66.38l-14.34 0c-0.34,0 -0.62,-0.28 -0.62,-0.62 0,-0.34 0.28,-0.61 0.62,-0.61l14.34 0c0.34,0 0.61,0.27 0.61,0.61 0,0.34 -0.27,0.62 -0.61,0.62z"/>
   <path class="fil6" d="M39.33 69l-14.34 0c-0.34,0 -0.62,-0.28 -0.62,-0.62 0,-0.34 0.28,-0.62 0.62,-0.62l14.34 0c0.34,0 0.61,0.28 0.61,0.62 0,0.34 -0.27,0.62 -0.61,0.62l0 0z"/>
   <path class="fil6" d="M39.33 71.61l-14.34 0c-0.34,0 -0.62,-0.28 -0.62,-0.62 0,-0.34 0.28,-0.61 0.62,-0.61l14.34 0c0.34,0 0.61,0.27 0.61,0.61 0,0.34 -0.27,0.62 -0.61,0.62z"/>
   <path class="fil6" d="M75.1 66.38l-14.34 0c-0.34,0 -0.62,-0.28 -0.62,-0.62 0,-0.34 0.28,-0.61 0.62,-0.61l14.34 0c0.34,0 0.61,0.27 0.61,0.61 0,0.34 -0.27,0.62 -0.61,0.62z"/>
   <path class="fil6" d="M75.1 69l-14.34 0c-0.34,0 -0.62,-0.28 -0.62,-0.62 0,-0.34 0.28,-0.62 0.62,-0.62l14.34 0c0.34,0 0.61,0.28 0.61,0.62 0,0.34 -0.27,0.62 -0.61,0.62l0 0z"/>
   <path class="fil6" d="M75.1 71.61l-14.34 0c-0.34,0 -0.62,-0.28 -0.62,-0.62 0,-0.34 0.28,-0.61 0.62,-0.61l14.34 0c0.34,0 0.61,0.27 0.61,0.61 0,0.34 -0.27,0.62 -0.61,0.62z"/>
   <path class="fil6" d="M61.36 40.89c-0.34,0 -0.62,-0.28 -0.62,-0.62 0,-0.34 0.28,-0.62 0.62,-0.62 0.55,0 1,-0.45 1,-1l0 -16.42c0,-0.55 -0.45,-1 -1,-1l-22.72 0c-0.55,0 -1,0.45 -1,1l0 16.42c0,0.55 0.45,1 1,1 0.34,0 0.62,0.28 0.62,0.62 0,0.34 -0.28,0.62 -0.62,0.62 -1.23,0 -2.23,-1.01 -2.23,-2.24l0 -16.42c0,-1.23 1,-2.23 2.23,-2.23l22.72 0c1.23,0 2.23,1 2.23,2.23l0 16.42c0,1.23 -1,2.24 -2.23,2.24z"/>
   <path class="fil6" d="M61.84 38.42l-23.68 0c-0.97,0 -1.75,-0.79 -1.75,-1.76 0,-0.34 0.27,-0.61 0.62,-0.61 0.34,0 0.61,0.27 0.61,0.61 0,0.29 0.23,0.52 0.52,0.52l23.68 0c0.29,0 0.52,-0.23 0.52,-0.52 0,-0.34 0.27,-0.61 0.61,-0.61 0.35,0 0.62,0.27 0.62,0.61 0,0.97 -0.78,1.76 -1.75,1.76z"/>
   <path class="fil6" d="M62.97 24.7c-0.34,0 -0.61,-0.27 -0.61,-0.61 0,-0.29 -0.23,-0.52 -0.52,-0.52l-23.68 0c-0.29,0 -0.52,0.23 -0.52,0.52 0,0.34 -0.27,0.61 -0.61,0.61 -0.35,0 -0.62,-0.27 -0.62,-0.61 0,-0.97 0.78,-1.75 1.75,-1.75l23.68 0c0.97,0 1.75,0.78 1.75,1.75 0,0.34 -0.27,0.61 -0.62,0.61l0 0z"/>
   <path class="fil6" d="M41.56 76.92c-0.34,0 -0.61,-0.28 -0.61,-0.62 0,-0.34 0.27,-0.62 0.61,-0.62 0.47,0 0.85,-0.37 0.85,-0.84l0 -12.76c0,-0.47 -0.38,-0.85 -0.85,-0.85l-18.71 0c-0.47,0 -0.85,0.38 -0.85,0.85l0 12.76c0,0.47 0.38,0.84 0.85,0.84 0.34,0 0.61,0.28 0.61,0.62 0,0.34 -0.27,0.62 -0.61,0.62 -1.15,0 -2.08,-0.93 -2.08,-2.08l0 -12.76c0,-1.15 0.93,-2.08 2.08,-2.08l18.71 0c1.15,0 2.08,0.93 2.08,2.08l0 12.76c0,1.15 -0.93,2.08 -2.08,2.08z"/>
   <path class="fil6" d="M42.72 80l-21.03 0c-1.78,0 -3.24,-1.4 -3.27,-3.12l0 -0.07c0.01,-0.62 0.52,-1.13 1.15,-1.13l25.27 0c0.63,0 1.14,0.51 1.14,1.13l0 0.07c-0.02,1.72 -1.49,3.12 -3.26,3.12zm-23.06 -3.08c0.05,1.02 0.95,1.85 2.03,1.85l21.03 0c1.08,0 1.98,-0.83 2.03,-1.85l-25.09 0zm25.18 0l0 0 0 0z"/>
   <path class="fil6" d="M77.15 76.92c-0.34,0 -0.61,-0.28 -0.61,-0.62 0,-0.34 0.27,-0.62 0.61,-0.62 0.47,0 0.85,-0.37 0.85,-0.84l0 -12.76c0,-0.47 -0.38,-0.85 -0.85,-0.85l-18.71 0c-0.47,0 -0.85,0.38 -0.85,0.85l0 12.76c0,0.47 0.38,0.84 0.85,0.84 0.34,0 0.61,0.28 0.61,0.62 0,0.34 -0.27,0.62 -0.61,0.62 -1.15,0 -2.08,-0.93 -2.08,-2.08l0 -12.76c0,-1.15 0.93,-2.08 2.08,-2.08l18.71 0c1.15,0 2.08,0.93 2.08,2.08l0 12.76c0,1.15 -0.93,2.08 -2.08,2.08z"/>
   <path class="fil6" d="M78.31 80l-21.03 0c-1.77,0 -3.24,-1.4 -3.26,-3.12l0 -0.07c0,-0.62 0.51,-1.13 1.14,-1.13l25.27 0c0.63,0 1.14,0.51 1.15,1.13l0 0.07c-0.03,1.72 -1.49,3.12 -3.27,3.12l0 0zm-23.06 -3.08c0.05,1.02 0.95,1.85 2.03,1.85l21.03 0c1.09,0 1.98,-0.83 2.03,-1.85l-25.09 0zm25.18 0l0.01 0 -0.01 0z"/>
   <path class="fil6" d="M42 74.68l-19.59 0c-0.91,0 -1.64,-0.73 -1.64,-1.64 0,-0.34 0.27,-0.61 0.61,-0.61 0.34,0 0.62,0.27 0.62,0.61 0,0.22 0.19,0.41 0.41,0.41l19.59 0c0.22,0 0.41,-0.19 0.41,-0.41 0,-0.34 0.27,-0.61 0.61,-0.61 0.35,0 0.62,0.27 0.62,0.61 0,0.91 -0.74,1.64 -1.64,1.64l0 0z"/>
   <path class="fil6" d="M43.02 64.37c-0.34,0 -0.61,-0.28 -0.61,-0.62 0,-0.22 -0.19,-0.41 -0.41,-0.41l-19.59 0c-0.22,0 -0.41,0.19 -0.41,0.41 0,0.34 -0.28,0.62 -0.62,0.62 -0.34,0 -0.61,-0.28 -0.61,-0.62 0,-0.91 0.73,-1.64 1.64,-1.64l19.59 0c0.9,0 1.64,0.73 1.64,1.64 0,0.34 -0.28,0.62 -0.62,0.62l0 0z"/>
   <path class="fil6" d="M77.59 74.68l-19.59 0c-0.9,0 -1.64,-0.73 -1.64,-1.64 0,-0.34 0.28,-0.61 0.62,-0.61 0.34,0 0.61,0.27 0.61,0.61 0,0.23 0.19,0.41 0.41,0.41l19.59 0c0.22,0 0.41,-0.19 0.41,-0.41 0,-0.34 0.28,-0.61 0.62,-0.61 0.34,0 0.61,0.27 0.61,0.61 0,0.91 -0.73,1.64 -1.64,1.64z"/>
   <path class="fil6" d="M78.62 64.37c-0.34,0 -0.62,-0.28 -0.62,-0.62 0,-0.22 -0.19,-0.41 -0.41,-0.41l-19.59 0c-0.22,0 -0.41,0.19 -0.41,0.41 0,0.34 -0.27,0.62 -0.61,0.62 -0.34,0 -0.62,-0.28 -0.62,-0.62 0,-0.91 0.74,-1.64 1.64,-1.64l19.59 0c0.91,0 1.64,0.73 1.64,1.64 0,0.34 -0.27,0.62 -0.61,0.62z"/>
  </g>
 </g>
</svg>
