<?xml version="1.0" encoding="UTF-8"?>
<!DOCTYPE svg PUBLIC "-//W3C//DTD SVG 1.1//EN" "http://www.w3.org/Graphics/SVG/1.1/DTD/svg11.dtd">
<!-- Creator: CorelDRAW 2020 (64-Bit) -->
<svg xmlns="http://www.w3.org/2000/svg" xml:space="preserve" width="100px" height="100px" version="1.1" style="shape-rendering:geometricPrecision; text-rendering:geometricPrecision; image-rendering:optimizeQuality; fill-rule:evenodd; clip-rule:evenodd"
viewBox="0 0 100 100"
 xmlns:xlink="http://www.w3.org/1999/xlink"
 xmlns:xodm="http://www.corel.com/coreldraw/odm/2003"
 data-name="Layer 3"
 enable-background="new 0 0 256 256">
 <defs>
  <style type="text/css">
   <![CDATA[
    .fil10 {fill:black;fill-rule:nonzero}
    .fil2 {fill:#02A9F4;fill-rule:nonzero}
    .fil3 {fill:#0377BC;fill-rule:nonzero}
    .fil1 {fill:#0A0B29;fill-rule:nonzero}
    .fil8 {fill:#37474F;fill-rule:nonzero}
    .fil7 {fill:#707070;fill-rule:nonzero}
    .fil5 {fill:#9E8531;fill-rule:nonzero}
    .fil6 {fill:#9E9E9E;fill-rule:nonzero}
    .fil9 {fill:whitesmoke;fill-rule:nonzero}
    .fil4 {fill:#F7D472;fill-rule:nonzero}
    .fil0 {fill:url(#id0)}
   ]]>
  </style>
  <linearGradient id="id0" gradientUnits="userSpaceOnUse" x1="25.68" y1="8.37" x2="74.45" y2="92.84">
   <stop offset="0" style="stop-opacity:1; stop-color:#CCCCCC"/>
   <stop offset="1" style="stop-opacity:1; stop-color:white"/>
  </linearGradient>
 </defs>
 <g id="Capa_x0020_1">
  <metadata id="CorelCorpID_0Corel-Layer"/>
  <path class="fil0" d="M83.72 16.28c-8.63,-8.63 -20.55,-13.97 -33.72,-13.97 -13.17,0 -25.1,5.34 -33.72,13.97 -8.63,8.62 -13.97,20.55 -13.97,33.72 0,13.17 5.34,25.1 13.97,33.72 8.62,8.63 20.55,13.97 33.72,13.97 13.17,0 25.09,-5.34 33.72,-13.97 8.63,-8.62 13.97,-20.55 13.97,-33.72 0,-13.17 -5.34,-25.1 -13.97,-33.72z"/>
  <path class="fil1" d="M50 0c13.81,0 26.31,5.6 35.36,14.64 9.04,9.05 14.64,21.55 14.64,35.36 0,13.81 -5.6,26.31 -14.64,35.36 -9.05,9.04 -21.55,14.64 -35.36,14.64 -13.81,0 -26.31,-5.6 -35.36,-14.64 -9.04,-9.05 -14.64,-21.55 -14.64,-35.36 0,-13.81 5.6,-26.31 14.64,-35.36 9.05,-9.04 21.55,-14.64 35.36,-14.64zm33.72 16.28c-8.63,-8.63 -20.55,-13.97 -33.72,-13.97 -13.17,0 -25.1,5.34 -33.72,13.97 -8.63,8.62 -13.97,20.55 -13.97,33.72 0,13.17 5.34,25.1 13.97,33.72 8.62,8.63 20.55,13.97 33.72,13.97 13.17,0 25.09,-5.34 33.72,-13.97 8.63,-8.62 13.97,-20.55 13.97,-33.72 0,-13.17 -5.34,-25.1 -13.97,-33.72z"/>
  <g id="_1931791241760">
   <path id="Shape" class="fil2" d="M79 26.73l0 40c0,1.1 -0.9,2 -2,2l-0.61 0 -4.43 -5.01 2.36 -1.87c0.36,-0.29 0.55,-0.75 0.49,-1.22 -0.06,-0.46 -0.36,-0.85 -0.79,-1.04l-14.14 -6.18c-0.47,-0.21 -1.02,-0.13 -1.41,0.2 -0.39,0.34 -0.56,0.87 -0.42,1.37l2.49 8.75 -14.3 0c-0.53,0 -1.04,-0.21 -1.41,-0.59l-1.12 -1.12c-0.19,-0.19 -0.44,-0.29 -0.71,-0.29l-18 0 0 -35c0,-0.55 0.45,-1 1,-1l52 0c0.55,0 1,0.45 1,1z"/>
   <path id="Shape_0" class="fil3" d="M58.18 53.98l-1.3 -0.57c-0.47,-0.21 -1.03,-0.13 -1.42,0.2 -0.39,0.34 -0.55,0.87 -0.41,1.37l2.49 8.75 3 0 -2.49 -8.75c-0.1,-0.34 -0.05,-0.7 0.13,-1l0 0z"/>
   <path id="Shape_1" class="fil3" d="M78 25.73l-3 0c0.55,0 1,0.45 1,1l0 41.56 0.39 0.44 0.61 0c1.1,0 2,-0.9 2,-2l0 -40c0,-0.55 -0.45,-1 -1,-1z"/>
   <circle id="Oval" class="fil4" cx="52" cy="44.73" r="13"/>
   <path id="Shape_2" class="fil5" d="M52 31.73c-0.5,0 -1,0.03 -1.5,0.09 6.55,0.76 11.5,6.31 11.5,12.91 0,6.6 -4.95,12.15 -11.5,12.91 4.8,0.57 9.53,-1.56 12.27,-5.55 2.73,-3.98 3.03,-9.16 0.77,-13.44 -2.26,-4.27 -6.7,-6.94 -11.54,-6.92l0 0z"/>
   <path id="Shape_3" class="fil6" d="M61.96 68.73l-36.96 0c-2.21,0 -4,-1.79 -4,-4l0 -2c0,-0.55 0.45,-1 1,-1l21 0c0.27,0 0.52,0.1 0.71,0.29l1.12 1.12c0.37,0.38 0.88,0.59 1.41,0.59l14.3 0 1.42 5z"/>
   <polygon id="Shape_4" class="fil7" points="60.54,63.73 57.54,63.73 58.96,68.73 61.96,68.73 "/>
   <path id="Shape_5" class="fil8" d="M77.61 72l-1.9 1.88c-0.26,0.26 -0.62,0.4 -0.99,0.39 -0.37,-0.01 -0.72,-0.17 -0.96,-0.45l-6.01 -6.75 -3.53 2.8c-0.35,0.28 -0.82,0.36 -1.25,0.23 -0.42,-0.14 -0.75,-0.48 -0.88,-0.91l-0.13 -0.46 -1.42 -5 -2.49 -8.75c-0.14,-0.5 0.02,-1.03 0.42,-1.37 0.39,-0.33 0.94,-0.41 1.41,-0.2l14.14 6.18c0.43,0.19 0.73,0.58 0.79,1.04 0.06,0.47 -0.13,0.93 -0.49,1.22l-2.36 1.87 4.43 5.01 1.28 1.45c0.46,0.53 0.44,1.32 -0.06,1.82l0 0z"/>
   <path id="Shape_6" class="fil9" d="M75 34.73c-0.55,0 -1,-0.45 -1,-1l0 -3 -3 0c-0.55,0 -1,-0.45 -1,-1 0,-0.55 0.45,-1 1,-1l4 0c0.55,0 1,0.45 1,1l0 4c0,0.55 -0.45,1 -1,1l0 0z"/>
   <path id="Shape_7" class="fil10" d="M25 69.73l33 0c0.55,0 1,-0.45 1,-1 0,-0.55 -0.45,-1 -1,-1l-33 0c-1.66,0 -3,-1.34 -3,-3l0 -2 3 0 0 2c0,0.55 0.45,1 1,1 0.55,0 1,-0.45 1,-1l0 -2 2 0 0 2c0,0.55 0.45,1 1,1 0.55,0 1,-0.45 1,-1l0 -2 12 0 1.11 1.11c0.56,0.57 1.33,0.89 2.13,0.89l9.76 0c0.55,0 1,-0.45 1,-1 0,-0.55 -0.45,-1 -1,-1l-9.76 0c-0.26,0 -0.52,-0.11 -0.7,-0.3l-1.14 -1.14c-0.38,-0.36 -0.88,-0.56 -1.4,-0.56l-17 0 0 -23c0,-0.55 -0.45,-1 -1,-1 -0.55,0 -1,0.45 -1,1l0 23 -2 0c-1.1,0 -2,0.89 -2,2l0 2c0,2.76 2.24,5 5,5l0 0z"/>
   <path id="Shape_8" class="fil10" d="M25 33.73c0.55,0 1,-0.45 1,-1l0 -6 52 0 0 35c0,0.55 0.45,1 1,1 0.55,0 1,-0.45 1,-1l0 -35c0,-1.11 -0.9,-2 -2,-2l-52 0c-1.1,0 -2,0.89 -2,2l0 6c0,0.55 0.45,1 1,1l0 0z"/>
   <path id="Shape_9" class="fil10" d="M52 30.73c-5.71,-0.01 -10.86,3.46 -12.99,8.76 -2.14,5.3 -0.84,11.37 3.27,15.33 4.12,3.96 10.24,5.02 15.45,2.68l3.4 11.96c0.21,0.75 0.79,1.35 1.54,1.59 0.74,0.24 1.56,0.09 2.17,-0.4l2.79 -2.21 5.38 6.05c0.43,0.48 1.04,0.76 1.68,0.78l0.07 0c0.62,0 1.21,-0.24 1.65,-0.68l1.9 -1.88c0.88,-0.87 0.92,-2.26 0.11,-3.19l-5.01 -5.67 1.53 -1.22c0.64,-0.51 0.97,-1.31 0.86,-2.13 -0.1,-0.81 -0.63,-1.5 -1.38,-1.83l-11.59 -5.07c2.06,-2.49 3.18,-5.63 3.17,-8.87 -0.01,-7.73 -6.27,-13.99 -14,-14l0 0zm21.82 30.04c0.01,0.11 -0.03,0.23 -0.12,0.3l-2.36 1.87c-0.22,0.17 -0.35,0.42 -0.38,0.7 -0.02,0.27 0.07,0.54 0.25,0.75l5.71 6.46c0.11,0.13 0.11,0.32 -0.02,0.45l-1.9 1.88c-0.06,0.06 -0.16,0.1 -0.25,0.1 -0.09,-0.01 -0.18,-0.05 -0.25,-0.12l-6.01 -6.76c-0.35,-0.39 -0.95,-0.44 -1.37,-0.11l-3.53 2.8c-0.09,0.07 -0.21,0.09 -0.32,0.05 -0.11,-0.03 -0.19,-0.11 -0.22,-0.22l-4.03 -14.21c-0.05,-0.12 -0.01,-0.25 0.09,-0.33 0.1,-0.09 0.25,-0.12 0.37,-0.06l1.29 0.56 12.85 5.63c0.11,0.04 0.19,0.14 0.2,0.26l0 0zm-13.54 -8.28c-0.82,-0.37 -1.79,-0.22 -2.47,0.37 -0.68,0.59 -0.96,1.53 -0.72,2.4l0.08 0.27c-5.58,2.66 -12.26,0.65 -15.44,-4.63 -3.19,-5.29 -1.84,-12.14 3.11,-15.82 4.95,-3.69 11.9,-3.02 16.05,1.55 4.15,4.57 4.16,11.55 0.01,16.13l-0.62 -0.27z"/>
   <path id="Shape_10" class="fil10" d="M55 41.23c0,0.55 0.45,1 1,1 0.55,0 1,-0.45 1,-1 -0.1,-2.24 -1.78,-4.09 -4,-4.4l0 -0.1c0,-0.55 -0.45,-1 -1,-1 -0.55,0 -1,0.45 -1,1l0 0.1c-2.22,0.31 -3.9,2.16 -4,4.4 0.1,2.24 1.78,4.09 4,4.41l0 4.93c-1.11,-0.25 -1.93,-1.2 -2,-2.34 0,-0.55 -0.45,-1 -1,-1 -0.55,0 -1,0.45 -1,1 0.1,2.24 1.78,4.09 4,4.41l0 0.09c0,0.55 0.45,1 1,1 0.55,0 1,-0.45 1,-1l0 -0.1c2.22,-0.31 3.9,-2.16 4,-4.4 -0.1,-2.24 -1.78,-4.1 -4,-4.41l0 -4.93c1.11,0.25 1.93,1.2 2,2.34l0 0zm-6 0c0.07,-1.14 0.89,-2.09 2,-2.35l0 4.69c-1.11,-0.25 -1.93,-1.2 -2,-2.34zm6 7c-0.07,1.14 -0.89,2.09 -2,2.34l0 -4.69c1.11,0.26 1.93,1.21 2,2.35z"/>
  </g>
 </g>
</svg>
