<?xml version="1.0" encoding="UTF-8"?>
<!DOCTYPE svg PUBLIC "-//W3C//DTD SVG 1.1//EN" "http://www.w3.org/Graphics/SVG/1.1/DTD/svg11.dtd">
<!-- Creator: CorelDRAW 2020 (64-Bit) -->
<svg xmlns="http://www.w3.org/2000/svg" xml:space="preserve" width="100px" height="100px" version="1.1" style="shape-rendering:geometricPrecision; text-rendering:geometricPrecision; image-rendering:optimizeQuality; fill-rule:evenodd; clip-rule:evenodd"
viewBox="0 0 100 100"
 xmlns:xlink="http://www.w3.org/1999/xlink"
 xmlns:xodm="http://www.corel.com/coreldraw/odm/2003"
 data-name="Layer 3"
 enable-background="new 0 0 256 256">
 <defs>
  <style type="text/css">
   <![CDATA[
    .fil6 {fill:black;fill-rule:nonzero}
    .fil2 {fill:#002F6B;fill-rule:nonzero}
    .fil1 {fill:#0A0B29;fill-rule:nonzero}
    .fil5 {fill:#9E8531;fill-rule:nonzero}
    .fil4 {fill:#F7D472;fill-rule:nonzero}
    .fil3 {fill:#FF5D5D;fill-rule:nonzero}
    .fil0 {fill:url(#id0)}
   ]]>
  </style>
  <linearGradient id="id0" gradientUnits="userSpaceOnUse" x1="25.68" y1="8.37" x2="74.45" y2="92.84">
   <stop offset="0" style="stop-opacity:1; stop-color:#CCCCCC"/>
   <stop offset="1" style="stop-opacity:1; stop-color:white"/>
  </linearGradient>
 </defs>
 <g id="Capa_x0020_1">
  <metadata id="CorelCorpID_0Corel-Layer"/>
  <path class="fil0" d="M83.72 16.28c-8.63,-8.63 -20.55,-13.97 -33.72,-13.97 -13.17,0 -25.1,5.34 -33.72,13.97 -8.63,8.62 -13.97,20.55 -13.97,33.72 0,13.17 5.34,25.1 13.97,33.72 8.62,8.63 20.55,13.97 33.72,13.97 13.17,0 25.09,-5.34 33.72,-13.97 8.63,-8.62 13.97,-20.55 13.97,-33.72 0,-13.17 -5.34,-25.1 -13.97,-33.72z"/>
  <path class="fil1" d="M50 0c13.81,0 26.31,5.6 35.36,14.64 9.04,9.05 14.64,21.55 14.64,35.36 0,13.81 -5.6,26.31 -14.64,35.36 -9.05,9.04 -21.55,14.64 -35.36,14.64 -13.81,0 -26.31,-5.6 -35.36,-14.64 -9.04,-9.05 -14.64,-21.55 -14.64,-35.36 0,-13.81 5.6,-26.31 14.64,-35.36 9.05,-9.04 21.55,-14.64 35.36,-14.64zm33.72 16.28c-8.63,-8.63 -20.55,-13.97 -33.72,-13.97 -13.17,0 -25.1,5.34 -33.72,13.97 -8.63,8.62 -13.97,20.55 -13.97,33.72 0,13.17 5.34,25.1 13.97,33.72 8.62,8.63 20.55,13.97 33.72,13.97 13.17,0 25.09,-5.34 33.72,-13.97 8.63,-8.62 13.97,-20.55 13.97,-33.72 0,-13.17 -5.34,-25.1 -13.97,-33.72z"/>
  <g id="_1931792192416">
   <path class="fil2" d="M39.97 50l0 -23.46 0 -4.17c0,-1.07 -1.3,-1.6 -2.05,-0.85l-16.75 16.75 16.75 16.75c0.75,0.75 2.05,0.22 2.05,-0.85l0 -4.17 0 0z"/>
   <path class="fil2" d="M62.08 44.98c-0.75,-0.75 -2.05,-0.22 -2.05,0.85l0 4.17 0 23.46 0 4.17c0,1.07 1.3,1.6 2.05,0.85l16.75 -16.75 -16.75 -16.75z"/>
   <circle class="fil3" cx="73.46" cy="26.54" r="2.81"/>
   <circle class="fil4" cx="39.97" cy="40.93" r="2.81"/>
   <circle class="fil4" cx="60.03" cy="60.63" r="2.81"/>
   <circle class="fil5" cx="26.54" cy="73.46" r="2.81"/>
   <path class="fil6" d="M64.66 27.71l4.99 0c0.5,1.63 2.02,2.81 3.81,2.81 2.2,0 3.98,-1.78 3.98,-3.98 0,-2.2 -1.78,-3.98 -3.98,-3.98 -1.79,0 -3.31,1.18 -3.81,2.81l-4.99 0c-0.65,0 -1.17,0.52 -1.17,1.17 0,0.65 0.52,1.17 1.17,1.17zm8.8 -2.81c0.91,0 1.64,0.73 1.64,1.64 0,0.9 -0.73,1.64 -1.64,1.64 -0.84,0 -1.54,-0.64 -1.63,-1.46 0.01,-0.06 0.02,-0.12 0.02,-0.18 0,-0.06 -0.01,-0.12 -0.02,-0.18 0.09,-0.82 0.79,-1.46 1.63,-1.46z"/>
   <path class="fil6" d="M60.22 27.71c0.31,0 0.61,-0.12 0.83,-0.34 0.22,-0.22 0.34,-0.52 0.34,-0.83 0,-0.31 -0.12,-0.61 -0.34,-0.83 -0.22,-0.22 -0.52,-0.34 -0.83,-0.34 -0.31,0 -0.61,0.12 -0.83,0.34 -0.22,0.22 -0.34,0.52 -0.34,0.83 0,0.31 0.12,0.61 0.34,0.83 0.22,0.22 0.52,0.34 0.83,0.34z"/>
   <path class="fil6" d="M79.66 60.9l-16.75 -16.75c-0.68,-0.68 -1.69,-0.88 -2.58,-0.51 -0.9,0.37 -1.47,1.23 -1.47,2.19l0 3 -17.72 0 0 -4.09c1.63,-0.51 2.81,-2.02 2.81,-3.81 0,-2.2 -1.78,-3.99 -3.98,-3.99 -2.2,0 -3.99,1.79 -3.99,3.99 0,1.79 1.19,3.3 2.82,3.81l0 9.43c0,0.01 0,0.01 0,0.01 -0.01,0.01 -0.03,0.02 -0.04,0.02 0,0 0.01,0.01 -0.01,-0.01l-15.92 -15.92 15.92 -15.92c0,0 0.01,-0.01 0.01,-0.01 0.01,0 0.03,0.01 0.03,0.01 0,0 0.01,0.01 0.01,0.02l0 4.17c0,0.65 0.52,1.17 1.17,1.17l15.43 0c0.65,0 1.18,-0.52 1.18,-1.17 0,-0.65 -0.53,-1.17 -1.18,-1.17l-14.26 0 0 -3c0,-0.96 -0.57,-1.82 -1.47,-2.19 -0.89,-0.37 -1.9,-0.16 -2.58,0.52l-16.75 16.74c-0.46,0.46 -0.46,1.2 0,1.66l16.75 16.74c0.68,0.69 1.69,0.89 2.58,0.52 0.9,-0.37 1.47,-1.23 1.47,-2.19l0 -3 17.72 0 0 5.65c-1.63,0.51 -2.82,2.02 -2.82,3.81 0,2.2 1.79,3.99 3.99,3.99 2.2,0 3.98,-1.79 3.98,-3.99 0,-1.79 -1.18,-3.3 -2.81,-3.81l0 -10.99c0,-0.01 0,-0.01 0,-0.01 0.01,-0.01 0.03,-0.02 0.04,-0.02 0,0 -0.01,-0.01 0.01,0.01l15.92 15.92 -15.92 15.92c0,0 -0.01,0.01 -0.01,0.01 -0.01,0 -0.03,-0.01 -0.03,-0.02 0,0 0,0 0,-0.01l0 -4.17c0,-0.65 -0.53,-1.17 -1.18,-1.17l-20.34 0c-0.65,0 -1.18,0.52 -1.18,1.17 0,0.65 0.53,1.17 1.18,1.17l19.17 0 0 3c0,0.96 0.58,1.82 1.47,2.19 0.29,0.12 0.6,0.18 0.91,0.18 0.61,0 1.22,-0.24 1.67,-0.7l16.75 -16.74c0.46,-0.46 0.46,-1.2 0,-1.66zm-39.69 -21.61c0.9,0 1.64,0.73 1.64,1.64 0,0.9 -0.74,1.64 -1.64,1.64 -0.91,0 -1.64,-0.74 -1.64,-1.64 0,-0.91 0.73,-1.64 1.64,-1.64zm20.06 22.98c-0.9,0 -1.64,-0.73 -1.64,-1.64 0,-0.9 0.74,-1.64 1.64,-1.64 0.9,0 1.64,0.74 1.64,1.64 0,0.91 -0.74,1.64 -1.64,1.64z"/>
   <path class="fil6" d="M34.33 72.29c-0.3,0 -0.61,0.12 -0.82,0.34 -0.22,0.22 -0.35,0.52 -0.35,0.83 0,0.31 0.13,0.61 0.35,0.83 0.22,0.22 0.52,0.34 0.82,0.34 0.32,0 0.62,-0.12 0.83,-0.34 0.22,-0.22 0.35,-0.52 0.35,-0.83 0,-0.31 -0.13,-0.61 -0.35,-0.83 -0.21,-0.22 -0.52,-0.34 -0.83,-0.34z"/>
   <path class="fil6" d="M26.54 69.48c-2.2,0 -3.98,1.79 -3.98,3.98 0,2.2 1.78,3.99 3.98,3.99 2.2,0 3.98,-1.79 3.98,-3.99 0,-2.19 -1.78,-3.98 -3.98,-3.98zm0 5.62c-0.9,0 -1.64,-0.73 -1.64,-1.64 0,-0.9 0.74,-1.64 1.64,-1.64 0.91,0 1.64,0.74 1.64,1.64 0,0.91 -0.73,1.64 -1.64,1.64z"/>
   <path class="fil6" d="M48.19 31.25c0,0.65 0.53,1.17 1.18,1.17l13.21 0c0.65,0 1.17,-0.52 1.17,-1.17 0,-0.65 -0.52,-1.17 -1.17,-1.17l-13.21 0c-0.65,0 -1.18,0.52 -1.18,1.17z"/>
   <path class="fil6" d="M56.78 69.92c0.64,0 1.17,-0.52 1.17,-1.17 0,-0.65 -0.53,-1.17 -1.17,-1.17l-13.22 0c-0.64,0 -1.17,0.52 -1.17,1.17 0,0.65 0.52,1.17 1.17,1.17l13.22 0z"/>
  </g>
 </g>
</svg>
