<?xml version="1.0" encoding="UTF-8"?>
<!DOCTYPE svg PUBLIC "-//W3C//DTD SVG 1.1//EN" "http://www.w3.org/Graphics/SVG/1.1/DTD/svg11.dtd">
<!-- Creator: CorelDRAW 2020 (64-Bit) -->
<svg xmlns="http://www.w3.org/2000/svg" xml:space="preserve" width="100px" height="100px" version="1.1" style="shape-rendering:geometricPrecision; text-rendering:geometricPrecision; image-rendering:optimizeQuality; fill-rule:evenodd; clip-rule:evenodd"
viewBox="0 0 100 100"
 xmlns:xlink="http://www.w3.org/1999/xlink"
 xmlns:xodm="http://www.corel.com/coreldraw/odm/2003"
 data-name="Layer 3"
 enable-background="new 0 0 256 256">
 <defs>
  <style type="text/css">
   <![CDATA[
    .fil9 {fill:black;fill-rule:nonzero}
    .fil1 {fill:#0A0B29;fill-rule:nonzero}
    .fil10 {fill:#29589F;fill-rule:nonzero}
    .fil14 {fill:#33CC66;fill-rule:nonzero}
    .fil3 {fill:#5290DB;fill-rule:nonzero}
    .fil11 {fill:#70D6F9;fill-rule:nonzero}
    .fil13 {fill:#9E8531;fill-rule:nonzero}
    .fil6 {fill:#B2E26D;fill-rule:nonzero}
    .fil7 {fill:#C7D7E5;fill-rule:nonzero}
    .fil8 {fill:#DAE6F1;fill-rule:nonzero}
    .fil2 {fill:#EDF4FC;fill-rule:nonzero}
    .fil5 {fill:#F5C84C;fill-rule:nonzero}
    .fil12 {fill:#F7D472;fill-rule:nonzero}
    .fil4 {fill:#FC657E;fill-rule:nonzero}
    .fil0 {fill:url(#id0)}
   ]]>
  </style>
  <linearGradient id="id0" gradientUnits="userSpaceOnUse" x1="25.68" y1="8.37" x2="74.45" y2="92.84">
   <stop offset="0" style="stop-opacity:1; stop-color:#CCCCCC"/>
   <stop offset="1" style="stop-opacity:1; stop-color:white"/>
  </linearGradient>
 </defs>
 <g id="Capa_x0020_1">
  <metadata id="CorelCorpID_0Corel-Layer"/>
  <path class="fil0" d="M83.72 16.28c-8.63,-8.63 -20.55,-13.97 -33.72,-13.97 -13.17,0 -25.1,5.34 -33.72,13.97 -8.63,8.62 -13.97,20.55 -13.97,33.72 0,13.17 5.34,25.1 13.97,33.72 8.62,8.63 20.55,13.97 33.72,13.97 13.17,0 25.09,-5.34 33.72,-13.97 8.63,-8.62 13.97,-20.55 13.97,-33.72 0,-13.17 -5.34,-25.1 -13.97,-33.72z"/>
  <path class="fil1" d="M50 0c13.81,0 26.31,5.6 35.36,14.64 9.04,9.05 14.64,21.55 14.64,35.36 0,13.81 -5.6,26.31 -14.64,35.36 -9.05,9.04 -21.55,14.64 -35.36,14.64 -13.81,0 -26.31,-5.6 -35.36,-14.64 -9.04,-9.05 -14.64,-21.55 -14.64,-35.36 0,-13.81 5.6,-26.31 14.64,-35.36 9.05,-9.04 21.55,-14.64 35.36,-14.64zm33.72 16.28c-8.63,-8.63 -20.55,-13.97 -33.72,-13.97 -13.17,0 -25.1,5.34 -33.72,13.97 -8.63,8.62 -13.97,20.55 -13.97,33.72 0,13.17 5.34,25.1 13.97,33.72 8.62,8.63 20.55,13.97 33.72,13.97 13.17,0 25.09,-5.34 33.72,-13.97 8.63,-8.62 13.97,-20.55 13.97,-33.72 0,-13.17 -5.34,-25.1 -13.97,-33.72z"/>
  <g id="_1931824147184">
   <path class="fil2" d="M23.57 23.55l48.04 0c0.93,0 1.67,0.75 1.67,1.67l0 55.39c0,0.92 -0.74,1.66 -1.67,1.66l-48.04 0c-0.93,0 -1.67,-0.74 -1.67,-1.66l0 -55.39c0,-0.92 0.74,-1.67 1.67,-1.67l0 0z"/>
   <path class="fil3" d="M71.61 23.55l-48.04 0c-0.93,0 -1.67,0.75 -1.67,1.67l0 4.62 51.38 0 0 -4.62c0,-0.92 -0.74,-1.67 -1.67,-1.67l0 0z"/>
   <circle class="fil4" cx="26.52" cy="26.61" r="1.15"/>
   <circle class="fil5" cx="30.6" cy="26.61" r="1.15"/>
   <circle class="fil6" cx="34.67" cy="26.61" r="1.15"/>
   <path class="fil1" d="M71.61 82.91l-48.04 0c-1.29,0 -2.31,-1.02 -2.31,-2.3l0 -55.39c0,-1.28 1.02,-2.31 2.31,-2.31l48.04 0c1.29,0 2.31,1.03 2.31,2.31l0 55.39c0,1.28 -1.05,2.3 -2.31,2.3zm-48.04 -58.71c-0.57,0 -1.03,0.46 -1.03,1.02l0 55.39c0,0.56 0.46,1.02 1.03,1.02l48.04 0c0.57,0 1.03,-0.46 1.03,-1.02l0 -55.39c0,-0.56 -0.46,-1.02 -1.03,-1.02l-48.04 0z"/>
   <path class="fil1" d="M68.23 27.25l-10.78 0c-0.36,0 -0.64,-0.28 -0.64,-0.64 0,-0.36 0.28,-0.64 0.64,-0.64l10.78 0c0.36,0 0.64,0.28 0.64,0.64 0,0.36 -0.28,0.64 -0.64,0.64l0 0z"/>
   <path class="fil1" d="M73.28 30.48l-51.38 0c-0.36,0 -0.64,-0.28 -0.64,-0.64l0 -4.62c0,-1.28 1.02,-2.31 2.31,-2.31l48.04 0c1.29,0 2.31,1.03 2.31,2.31l0 4.62c0,0.36 -0.3,0.64 -0.64,0.64l0 0zm-50.74 -1.28l50.1 0 0 -3.98c0,-0.56 -0.46,-1.02 -1.03,-1.02l-48.04 0c-0.57,0 -1.03,0.46 -1.03,1.02l0 3.98z"/>
   <path class="fil1" d="M26.52 28.4c-1,0 -1.8,-0.82 -1.8,-1.79 0,-1 0.82,-1.8 1.8,-1.8 1,0 1.79,0.8 1.79,1.8 0,0.97 -0.79,1.79 -1.79,1.79zm0 -2.33c-0.29,0 -0.52,0.23 -0.52,0.51 0,0.28 0.23,0.51 0.52,0.51 0.28,0 0.51,-0.23 0.51,-0.51 0,-0.28 -0.23,-0.51 -0.51,-0.51z"/>
   <path class="fil1" d="M30.6 28.4c-1,0 -1.8,-0.82 -1.8,-1.79 0,-0.98 0.82,-1.8 1.8,-1.8 1,0 1.79,0.8 1.79,1.8 0,0.97 -0.79,1.79 -1.79,1.79zm0 -2.33c-0.29,0 -0.52,0.23 -0.52,0.51 0,0.28 0.23,0.51 0.52,0.51 0.28,0 0.51,-0.23 0.51,-0.51 0,-0.28 -0.23,-0.51 -0.51,-0.51z"/>
   <path class="fil1" d="M34.68 28.4c-1.01,0 -1.8,-0.82 -1.8,-1.79 0,-0.98 0.82,-1.8 1.8,-1.8 1,0 1.79,0.8 1.79,1.8 0,0.97 -0.82,1.79 -1.79,1.79zm0 -2.33c-0.29,0 -0.52,0.23 -0.52,0.51 0,0.28 0.23,0.51 0.52,0.51 0.28,0 0.51,-0.23 0.51,-0.51 0,-0.28 -0.23,-0.51 -0.51,-0.51z"/>
   <path class="fil2" d="M52.69 56.42c-0.59,-0.59 -0.59,-1.52 0,-2.11l0.56 -0.56 -14.75 0c-0.82,0 -1.49,0.69 -1.49,1.54 0,0.82 0.67,1.48 1.49,1.48l14.55 0 -0.36 -0.35z"/>
   <path class="fil7" d="M57.02 43.08c-0.05,-0.06 -0.08,-0.11 -0.13,-0.16l-8.72 -8.69c-0.54,-0.54 -1.41,-0.57 -1.95,-0.06 -0.02,0 -0.02,0.03 -0.05,0.06l-8.72 8.69c-0.05,0.05 -0.1,0.1 -0.13,0.16 -0.69,0.89 -0.05,2.33 1.03,2.33l17.62 0c1.1,0 1.75,-1.41 1.05,-2.33l0 0z"/>
   <polygon class="fil7" points="39.27,45.41 39.27,53.77 42.3,53.77 42.3,45.41 "/>
   <polygon class="fil7" points="45.66,45.41 48.69,45.41 48.69,53.77 45.66,53.77 "/>
   <polygon class="fil7" points="55.07,51.95 55.07,45.41 52.05,45.41 52.05,53.77 53.23,53.77 "/>
   <circle class="fil8" cx="47.15" cy="41" r="1.77"/>
   <path class="fil1" d="M53.05 57.44l-14.55 0c-1.18,-0.02 -2.13,-0.97 -2.13,-2.18 0,-1.18 0.95,-2.1 2.13,-2.13l14.75 0c0.36,0 0.64,0.28 0.64,0.64 0,0.18 -0.07,0.34 -0.18,0.47l-0.56 0.56c-0.33,0.33 -0.33,0.87 0,1.18l0.36 0.36c0.25,0.26 0.25,0.67 0,0.9 -0.13,0.12 -0.28,0.2 -0.46,0.2zm-14.55 -3.03c-0.49,0 -0.87,0.41 -0.84,0.88 0,0.46 0.38,0.84 0.84,0.84l13.26 0c-0.23,-0.56 -0.18,-1.2 0.08,-1.74l-13.34 0 0 0.02z"/>
   <path class="fil1" d="M56 46.05l-17.63 0c-0.74,-0.02 -1.41,-0.46 -1.74,-1.13 -0.36,-0.72 -0.28,-1.59 0.2,-2.23 0.05,-0.08 0.13,-0.15 0.18,-0.2l8.73 -8.7c0.79,-0.8 2.07,-0.82 2.87,-0.03 0,0 0.02,0.03 0.02,0.03l8.73 8.7c0.07,0.07 0.12,0.12 0.18,0.2 0.48,0.64 0.56,1.51 0.2,2.23 -0.33,0.67 -1,1.11 -1.74,1.13zm-8.83 -11.59c-0.2,0 -0.41,0.07 -0.54,0.23l-8.72 8.69c-0.02,0.03 -0.05,0.06 -0.08,0.11 -0.17,0.25 -0.2,0.59 -0.05,0.87 0.11,0.23 0.34,0.38 0.59,0.41l17.63 0c0.25,-0.03 0.48,-0.18 0.59,-0.41 0.15,-0.28 0.12,-0.62 -0.05,-0.87 -0.03,-0.03 -0.06,-0.05 -0.08,-0.11l-8.72 -8.69c-0.16,-0.16 -0.36,-0.23 -0.57,-0.23l0 0z"/>
   <path class="fil1" d="M42.3 54.41l-3.03 0c-0.36,0 -0.64,-0.28 -0.64,-0.64l0 -8.36c0,-0.36 0.28,-0.64 0.64,-0.64l3.03 0c0.36,0 0.64,0.28 0.64,0.64l0 8.36c0,0.36 -0.28,0.64 -0.64,0.64l0 0zm-2.39 -1.28l1.75 0 0 -7.08 -1.75 0 0 7.08z"/>
   <path class="fil1" d="M48.69 54.41l-3.03 0c-0.36,0 -0.64,-0.28 -0.64,-0.64l0 -8.36c0,-0.36 0.28,-0.64 0.64,-0.64l3.03 0c0.35,0 0.64,0.28 0.64,0.64l0 8.36c0,0.36 -0.29,0.64 -0.64,0.64l0 0zm-2.39 -1.28l1.74 0 0 -7.08 -1.74 0 0 7.08z"/>
   <path class="fil1" d="M53.25 54.41l-1.18 0c-0.36,0 -0.64,-0.28 -0.64,-0.64l0 -8.36c0,-0.36 0.28,-0.64 0.64,-0.64l3.03 0c0.36,0 0.64,0.28 0.64,0.64l0 6.54c0,0.18 -0.08,0.34 -0.18,0.46l-1.82 1.83c-0.16,0.1 -0.33,0.17 -0.49,0.17zm-0.56 -1.28l0.28 0 1.46 -1.46 0 -5.62 -1.74 0 0 7.08z"/>
   <path class="fil9" d="M47.15 43.38c-1.34,0 -2.42,-1.07 -2.42,-2.41 0,-1.33 1.08,-2.41 2.42,-2.41 1.33,0 2.41,1.08 2.41,2.41 0,1.36 -1.08,2.41 -2.41,2.41zm0 -3.51c-0.62,0 -1.13,0.51 -1.13,1.13 0,0.61 0.51,1.13 1.13,1.13 0.61,0 1.12,-0.52 1.12,-1.13 0,-0.62 -0.51,-1.13 -1.12,-1.13z"/>
   <path class="fil4" d="M63.95 42.97l4.13 4.13c0.59,0.59 0.59,1.52 0,2.11l-4.13 4.13c-0.59,0.59 -1.52,0.59 -2.1,0 -0.6,-0.59 -0.6,-1.52 0,-2.11l1.59 -1.59 -4.7 0c-0.82,0 -1.46,-0.69 -1.46,-1.51 0,-0.8 0.67,-1.46 1.46,-1.46l4.7 0 -1.59 -1.59c-0.6,-0.59 -0.6,-1.52 0,-2.11 0.58,-0.59 1.51,-0.59 2.1,0l0 0z"/>
   <path class="fil1" d="M64.37 42.55l4.13 4.13c0.41,0.41 0.62,0.94 0.62,1.48 0,0.52 -0.21,1.06 -0.62,1.47l-4.13 4.13c-0.42,0.41 -0.95,0.62 -1.47,0.62 -0.53,0 -1.06,-0.21 -1.47,-0.62 -0.42,-0.41 -0.63,-0.94 -0.63,-1.47 0,-0.53 0.21,-1.07 0.62,-1.48l0.57 -0.57 -3.25 0c-0.57,0 -1.09,-0.24 -1.46,-0.62 -0.37,-0.39 -0.6,-0.92 -0.6,-1.49 0,-0.56 0.23,-1.08 0.61,-1.45 0.38,-0.38 0.89,-0.61 1.45,-0.61l3.25 0 -0.57 -0.57c-0.41,-0.41 -0.62,-0.95 -0.62,-1.48 0,-0.53 0.21,-1.06 0.62,-1.47 0.41,-0.41 0.95,-0.62 1.48,-0.62 0.53,0 1.06,0.21 1.47,0.62zm3.29 4.98l-4.14 -4.13c-0.17,-0.18 -0.4,-0.27 -0.62,-0.27 -0.23,0 -0.45,0.09 -0.63,0.27 -0.18,0.17 -0.27,0.4 -0.27,0.62 0,0.23 0.09,0.46 0.27,0.63l2.61 2.62 -6.14 0c-0.23,0 -0.45,0.1 -0.6,0.25 -0.16,0.16 -0.26,0.38 -0.26,0.61 0,0.26 0.1,0.49 0.26,0.66 0.15,0.15 0.36,0.25 0.6,0.25l6.14 0 -2.61 2.62c-0.18,0.17 -0.27,0.4 -0.27,0.63 0,0.22 0.09,0.45 0.27,0.62 0.18,0.18 0.4,0.27 0.63,0.27 0.22,0 0.45,-0.09 0.62,-0.26l4.14 -4.14c0.17,-0.17 0.26,-0.4 0.26,-0.62 0,-0.23 -0.09,-0.46 -0.26,-0.63z"/>
   <path class="fil10" d="M56.82 50.21l-4.13 4.13c-0.59,0.59 -0.59,1.51 0,2.1l4.13 4.13c0.59,0.59 1.51,0.59 2.1,0 0.59,-0.59 0.59,-1.51 0,-2.1l-1.59 -1.59 4.69 0c0.83,0 1.47,-0.7 1.47,-1.52 0,-0.79 -0.67,-1.46 -1.47,-1.46l-4.69 0 1.59 -1.59c0.59,-0.59 0.59,-1.51 0,-2.1 -0.59,-0.59 -1.54,-0.59 -2.1,0l0 0z"/>
   <path class="fil11" d="M56.82 50.21l-4.13 4.13c-0.59,0.59 -0.59,1.51 0,2.1l4.13 4.13c0.59,0.59 1.51,0.59 2.1,0 0.59,-0.59 0.59,-1.51 0,-2.1l-1.59 -1.59 4.69 0c0.83,0 1.47,-0.7 1.47,-1.52 0,-0.79 -0.67,-1.46 -1.47,-1.46l-4.69 0 1.59 -1.59c0.59,-0.59 0.59,-1.51 0,-2.1 -0.59,-0.59 -1.54,-0.59 -2.1,0l0 0z"/>
   <path class="fil9" d="M57.87 61.62c-0.56,0 -1.1,-0.23 -1.51,-0.61l-4.13 -4.13c-0.83,-0.82 -0.83,-2.18 0,-3l4.13 -4.13c0.82,-0.82 2.18,-0.82 3,0 0.82,0.82 0.82,2.18 0,3l-0.52 0.51 3.16 0c1.18,0.03 2.1,0.98 2.1,2.16 0,1.15 -0.95,2.07 -2.1,2.1l-3.16 0 0.52 0.51c0.82,0.82 0.82,2.18 0,3 -0.39,0.36 -0.93,0.59 -1.49,0.59l0 0zm-0.62 -10.95l-4.13 4.13c-0.33,0.33 -0.33,0.87 0,1.18l4.13 4.13c0.34,0.33 0.88,0.33 1.18,0 0.31,-0.33 0.34,-0.87 0,-1.18l-1.59 -1.59c-0.25,-0.26 -0.25,-0.67 0,-0.9 0.13,-0.13 0.29,-0.18 0.47,-0.18l4.69 0c0.46,0 0.85,-0.38 0.82,-0.84 0,-0.47 -0.39,-0.83 -0.82,-0.83l-4.69 0c-0.37,0 -0.65,-0.28 -0.65,-0.64 0,-0.18 0.08,-0.33 0.18,-0.46l1.59 -1.59c0.34,-0.33 0.34,-0.87 0,-1.18 -0.33,-0.31 -0.84,-0.38 -1.18,-0.05l0 0z"/>
   <path class="fil1" d="M57.87 61.62c-0.56,0 -1.1,-0.23 -1.51,-0.61l-4.13 -4.13c-0.83,-0.82 -0.83,-2.18 0,-3l4.13 -4.13c0.82,-0.82 2.18,-0.82 3,0 0.82,0.82 0.82,2.18 0,3l-0.52 0.51 3.16 0c1.18,0.03 2.1,0.98 2.1,2.16 0,1.15 -0.95,2.07 -2.1,2.1l-3.16 0 0.52 0.51c0.82,0.82 0.82,2.18 0,3 -0.39,0.36 -0.93,0.59 -1.49,0.59l0 0zm-0.62 -10.95l-4.13 4.13c-0.33,0.33 -0.33,0.87 0,1.18l4.13 4.13c0.34,0.33 0.88,0.33 1.18,0 0.31,-0.33 0.34,-0.87 0,-1.18l-1.59 -1.59c-0.25,-0.26 -0.25,-0.67 0,-0.9 0.13,-0.13 0.29,-0.18 0.47,-0.18l4.69 0c0.46,0 0.85,-0.38 0.82,-0.84 0,-0.47 -0.39,-0.83 -0.82,-0.83l-4.69 0c-0.37,0 -0.65,-0.28 -0.65,-0.64 0,-0.18 0.08,-0.33 0.18,-0.46l1.59 -1.59c0.34,-0.33 0.34,-0.87 0,-1.18 -0.33,-0.31 -0.84,-0.38 -1.18,-0.05l0 0z"/>
   <circle class="fil4" cx="30.01" cy="64.42" r="1.51"/>
   <path class="fil1" d="M30.01 66.57c-1.18,0 -2.16,-0.97 -2.16,-2.15 0,-1.18 0.98,-2.16 2.16,-2.16 1.18,0 2.15,0.98 2.15,2.16 0,1.2 -0.97,2.15 -2.15,2.15zm0 -3c-0.49,0 -0.88,0.39 -0.88,0.87 0,0.49 0.39,0.88 0.88,0.88 0.48,0 0.87,-0.39 0.87,-0.88 0,-0.48 -0.39,-0.87 -0.87,-0.87z"/>
   <path class="fil1" d="M55.58 65.06l-15.78 0c-0.35,0 -0.64,-0.28 -0.64,-0.64 0,-0.36 0.29,-0.64 0.64,-0.64l15.78 0c0.36,0 0.64,0.28 0.64,0.64 0,0.36 -0.3,0.64 -0.64,0.64z"/>
   <path class="fil1" d="M55.66 68.32l-15.75 0c-0.36,0 -0.64,-0.28 -0.64,-0.64 0,-0.36 0.28,-0.64 0.64,-0.64l15.77 0c0.36,0 0.64,0.28 0.64,0.64 0,0.36 -0.3,0.64 -0.66,0.64z"/>
   <path class="fil1" d="M65.79 65.06l-6.69 0c-0.36,0 -0.65,-0.28 -0.65,-0.64 0,-0.36 0.29,-0.64 0.65,-0.64l6.69 0c0.36,0 0.64,0.28 0.64,0.64 0,0.36 -0.28,0.64 -0.64,0.64z"/>
   <path class="fil1" d="M65.74 68.32l-6.7 0c-0.35,0 -0.64,-0.28 -0.64,-0.64 0,-0.36 0.29,-0.64 0.64,-0.64l6.7 0c0.36,0 0.64,0.28 0.64,0.64 0,0.36 -0.28,0.64 -0.64,0.64z"/>
   <path class="fil1" d="M36.65 65.06l-2.13 0c-0.36,0 -0.64,-0.28 -0.64,-0.64 0,-0.36 0.28,-0.64 0.64,-0.64l2.13 0c0.36,0 0.64,0.28 0.64,0.64 0,0.36 -0.28,0.64 -0.64,0.64z"/>
   <path class="fil1" d="M36.62 68.32l-2.12 0c-0.36,0 -0.65,-0.28 -0.65,-0.64 0,-0.36 0.29,-0.64 0.65,-0.64l2.12 0c0.36,0 0.65,0.28 0.65,0.64 0,0.36 -0.29,0.64 -0.65,0.64z"/>
   <circle class="fil11" cx="30.01" cy="71.99" r="1.51"/>
   <path class="fil1" d="M30.01 74.14c-1.18,0 -2.16,-0.97 -2.16,-2.15 0,-1.18 0.98,-2.16 2.16,-2.16 1.18,0 2.15,0.98 2.15,2.16 0,1.2 -0.97,2.15 -2.15,2.15zm0 -3.03c-0.49,0 -0.88,0.39 -0.88,0.88 0,0.48 0.39,0.87 0.88,0.87 0.48,0 0.87,-0.39 0.87,-0.87 0,-0.47 -0.39,-0.88 -0.87,-0.88z"/>
   <path class="fil1" d="M55.58 72.63l-15.78 0c-0.35,0 -0.64,-0.28 -0.64,-0.64 0,-0.36 0.29,-0.64 0.64,-0.64l15.78 0c0.36,0 0.64,0.28 0.64,0.64 0,0.36 -0.3,0.64 -0.64,0.64l0 0z"/>
   <path class="fil1" d="M55.66 75.89l-15.75 0c-0.36,0 -0.64,-0.29 -0.64,-0.65 0,-0.36 0.28,-0.64 0.64,-0.64l15.77 0c0.36,0 0.64,0.28 0.64,0.64 0,0.36 -0.3,0.65 -0.66,0.65l0 0z"/>
   <path class="fil1" d="M65.79 72.63l-6.69 0c-0.36,0 -0.65,-0.28 -0.65,-0.64 0,-0.36 0.29,-0.64 0.65,-0.64l6.69 0c0.36,0 0.64,0.28 0.64,0.64 0,0.36 -0.28,0.64 -0.64,0.64l0 0z"/>
   <path class="fil1" d="M65.74 75.89l-6.7 0c-0.35,0 -0.64,-0.29 -0.64,-0.65 0,-0.36 0.29,-0.64 0.64,-0.64l6.7 0c0.36,0 0.64,0.28 0.64,0.64 0,0.36 -0.28,0.65 -0.64,0.65l0 0z"/>
   <path class="fil1" d="M36.65 72.63l-2.13 0c-0.36,0 -0.64,-0.28 -0.64,-0.64 0,-0.36 0.28,-0.64 0.64,-0.64l2.13 0c0.36,0 0.64,0.28 0.64,0.64 0,0.36 -0.28,0.64 -0.64,0.64l0 0z"/>
   <path class="fil1" d="M36.62 75.89l-2.12 0c-0.36,0 -0.65,-0.29 -0.65,-0.65 0,-0.36 0.29,-0.64 0.65,-0.64l2.12 0c0.36,0 0.65,0.28 0.65,0.64 0,0.36 -0.29,0.65 -0.65,0.65l0 0z"/>
   <circle class="fil12" cx="71.61" cy="24.21" r="7.13"/>
   <path class="fil13" d="M78.74 24.21c0,3.92 -3.21,7.13 -7.13,7.13 -2.27,0 -4.27,-1.02 -5.56,-2.67 1.2,0.98 2.76,1.56 4.45,1.56 3.92,0 7.13,-3.21 7.13,-7.13 0,-1.69 -0.58,-3.25 -1.56,-4.45 1.65,1.29 2.67,3.29 2.67,5.56z"/>
   <path class="fil14" d="M75.49 22.16l-4.63 5.08c-0.31,0.36 -0.85,0.36 -1.16,0l-1.96 -2.18c-0.27,-0.31 -0.27,-0.8 0.04,-1.11 0.32,-0.27 0.8,-0.27 1.12,0.04l1.38 1.56 4.05 -4.41c0.31,-0.31 0.8,-0.36 1.11,-0.05 0.32,0.27 0.32,0.81 0.05,1.07z"/>
  </g>
 </g>
</svg>
