<?xml version="1.0" encoding="UTF-8"?>
<!DOCTYPE svg PUBLIC "-//W3C//DTD SVG 1.1//EN" "http://www.w3.org/Graphics/SVG/1.1/DTD/svg11.dtd">
<!-- Creator: CorelDRAW 2020 (64-Bit) -->
<svg xmlns="http://www.w3.org/2000/svg" xml:space="preserve" width="3307px" height="1654px" version="1.1" style="shape-rendering:geometricPrecision; text-rendering:geometricPrecision; image-rendering:optimizeQuality; fill-rule:evenodd; clip-rule:evenodd"
viewBox="0 0 3307 1653.5"
 xmlns:xlink="http://www.w3.org/1999/xlink"
 xmlns:xodm="http://www.corel.com/coreldraw/odm/2003">
 <defs>
  <style type="text/css">
   <![CDATA[
    .fil0 {fill:none}
    .fil4 {fill:#DCDDDF}
    .fil2 {fill:#BDBFC1}
    .fil1 {fill:#848688}
    .fil3 {fill:#727376;fill-rule:nonzero}
   ]]>
  </style>
 </defs>
 <g id="Capa_x0020_1">
  <metadata id="CorelCorpID_0Corel-Layer"/>
  <rect class="fil0" width="3307" height="1653.5"/>
  <path class="fil1" d="M1013.17 266.27c72.01,23.94 137.84,61.38 194.54,109.3 -92.22,344.17 -184.45,688.35 -276.67,1032.53 -33.85,6.04 -68.7,9.19 -104.29,9.19 -39.4,0 -77.89,-3.9 -115.13,-11.26l301.55 -1139.76z"/>
  <path class="fil2" d="M826.75 236.21c52.92,0 104.2,7.01 153.01,20.06l-61.15 228.21c-29.3,-7.85 -60.09,-12.05 -91.86,-12.05 -195.69,0 -354.32,158.63 -354.32,354.32 0,164.01 111.45,301.98 262.74,342.35l-61.15 228.2c-252.1,-67.31 -437.81,-297.23 -437.81,-570.55 0,-326.14 264.4,-590.54 590.54,-590.54z"/>
  <path class="fil2" d="M1237.24 402.26c111.01,107.36 180.05,257.86 180.05,424.49 0,276.75 -190.39,509 -447.33,573.01l79.76 -297.65c80.12,-64.96 131.35,-164.17 131.35,-275.36 0,-44.81 -8.34,-87.66 -23.51,-127.12l79.68 -297.37z"/>
  <path class="fil1" d="M1022.53 232.11l7.58 -28.28 223.86 0 -35.77 133.36c-60.43,-47.01 -125.42,-82.62 -195.67,-105.08z"/>
  <path class="fil3" d="M1828.23 522.59l0 31.21c-11.33,5.9 -22.9,10.38 -34.65,13.45 -11.76,3.07 -23.42,4.63 -34.94,4.63 -11.09,0 -21.67,-1.47 -31.72,-4.34 -10.06,-2.93 -19.55,-7.23 -28.52,-12.94 -14.35,-9.4 -25.54,-21.43 -33.52,-36.02 -7.98,-14.64 -11.99,-30.5 -11.99,-47.69 0,-12.98 2.64,-25.58 7.88,-37.81 5.24,-12.18 12.75,-22.9 22.43,-32.01 10.34,-9.77 21.9,-17.09 34.7,-21.91 12.84,-4.86 27.05,-7.27 42.63,-7.27 10.91,0 21.67,1.23 32.39,3.73 10.67,2.5 21.9,6.42 33.61,11.81l0 30.07c-12.27,-6.66 -23.79,-11.57 -34.6,-14.78 -10.77,-3.16 -21.25,-4.77 -31.4,-4.77 -22.61,0 -41.26,7.04 -56.04,21.11 -14.78,14.06 -22.14,31.67 -22.14,52.87 0,20.96 7.27,38.43 21.81,52.5 14.54,14.07 32.76,21.1 54.72,21.1 11.28,0 22.66,-1.88 34.18,-5.66 11.57,-3.78 23.27,-9.54 35.17,-17.28z"/>
  <path id="1" class="fil3" d="M1873.79 504.46c0,11.9 4.01,22.05 12.04,30.45 8.03,8.41 17.7,12.61 29.03,12.61 11.24,0 20.92,-4.2 28.99,-12.66 8.07,-8.45 12.09,-18.6 12.09,-30.4 0,-11.71 -4.02,-21.76 -12.04,-30.17 -8.03,-8.4 -17.71,-12.6 -29.04,-12.6 -11.33,0 -21,4.2 -29.03,12.6 -8.03,8.41 -12.04,18.46 -12.04,30.17zm-26.63 0c0,-18.55 6.61,-34.27 19.78,-47.21 13.18,-12.89 29.27,-19.36 48.25,-19.36 8.97,0 17.52,1.7 25.69,5.06 8.16,3.35 15.43,8.16 21.9,14.44 6.57,6.66 11.52,13.93 14.97,21.86 3.4,7.98 5.1,16.34 5.1,25.21 0,8.78 -1.75,17.28 -5.24,25.59 -3.54,8.31 -8.45,15.58 -14.83,21.76 -6.47,6.33 -13.69,11.15 -21.76,14.36 -8.07,3.25 -16.67,4.86 -25.83,4.86 -18.98,0 -35.07,-6.47 -48.25,-19.36 -13.17,-12.93 -19.78,-28.65 -19.78,-47.21z"/>
  <path id="2" class="fil3" d="M2006.97 568.48l0 -127.75 25.5 0 0 15.53c6.37,-6.04 12.7,-10.48 19.02,-13.31 6.33,-2.79 13.13,-4.21 20.4,-4.21 13.83,0 24.74,4.02 32.71,12.04 7.98,7.98 12,19.03 12,33l0 84.7 -25.5 0 0 -78.18c0,-10.34 -2.17,-17.99 -6.56,-22.9 -4.39,-4.96 -11.19,-7.41 -20.4,-7.41 -6.56,0 -12.27,1.27 -17.23,3.82 -4.91,2.5 -9.72,6.71 -14.44,12.51l0 92.16 -25.5 0z"/>
  <path id="3" class="fil3" d="M2218.85 564.51c-3.96,2.22 -8.21,3.87 -12.79,4.91 -4.53,1.09 -9.44,1.61 -14.68,1.61 -14.35,0 -24.46,-3.4 -30.31,-10.25 -5.86,-6.84 -8.78,-19.26 -8.78,-37.34l0 -60.62 -21.81 0 0 -2.5 44.7 -49.34 2.88 0 0 29.75 39.94 0 0 22.09 -39.94 0 0 58.68c0,10.58 1.33,17.43 3.92,20.54 2.65,3.07 7.56,4.63 14.73,4.63 3.87,0 7.65,-0.52 11.33,-1.51 3.69,-1.04 7.27,-2.6 10.81,-4.72l0 24.07z"/>
  <path id="4" class="fil3" d="M2302.37 542.47l0 -37.44c-17.18,5.33 -29.03,10.29 -35.55,14.77 -6.51,4.54 -9.77,9.78 -9.77,15.77 0,5.29 1.7,9.35 5.05,12.18 3.4,2.88 8.12,4.3 14.21,4.3 4.53,0 8.97,-0.8 13.31,-2.45 4.35,-1.61 8.6,-4.02 12.75,-7.13zm0.94 15.53c-6.42,4.53 -12.55,7.79 -18.31,9.77 -5.76,1.98 -11.95,2.98 -18.6,2.98 -11.43,0 -20.4,-2.74 -26.87,-8.22 -6.47,-5.52 -9.68,-13.08 -9.68,-22.66 0,-9.02 3.5,-17 10.53,-23.79 6.99,-6.85 17.52,-12.61 31.63,-17.33l30.36 -10.15c0.1,-0.76 0.14,-1.46 0.19,-2.22 0.05,-0.71 0.09,-1.79 0.09,-3.16 0,-7.65 -1.88,-13.13 -5.61,-16.48 -3.73,-3.35 -9.92,-5.05 -18.51,-5.05 -7.08,0 -14.45,1.51 -22,4.48 -7.56,3.02 -15.16,7.46 -22.71,13.36l0 -25.16c6.56,-5.38 13.88,-9.39 22,-12.13 8.12,-2.69 16.71,-4.06 25.87,-4.06 16.43,0 28.33,3.63 35.84,10.86 7.46,7.22 11.18,18.88 11.18,35.03l0 54.1c0,4.53 0.38,7.74 1.18,9.63 0.81,1.89 2.08,2.83 3.92,2.83 1.61,0 3.21,-0.42 4.96,-1.22 1.7,-0.85 4.49,-2.79 8.36,-5.86l0 15.58c-4.63,3.97 -9.26,6.89 -13.98,8.78 -4.67,1.89 -9.53,2.84 -14.63,2.84 -4.87,0 -8.55,-1.04 -10.96,-3.07 -2.45,-2.03 -3.87,-5.24 -4.25,-9.68z"/>
  <path id="5" class="fil3" d="M2388.53 542.8c4.63,1.7 9.02,2.92 13.27,3.77 4.25,0.81 8.45,1.23 12.56,1.23 13.45,0 23.88,-3.73 31.3,-11.24 7.41,-7.45 11.14,-18.08 11.14,-31.82 0,-13.4 -3.59,-23.93 -10.77,-31.72 -7.22,-7.74 -16.9,-11.62 -29.17,-11.62 -4.87,0 -9.63,0.81 -14.31,2.37 -4.62,1.55 -9.3,3.96 -14.02,7.17l0 71.86zm-25.78 19.78l0 -187.57 25.78 0 0 72.85c4.82,-3.4 9.92,-5.95 15.44,-7.56 5.48,-1.6 11.57,-2.41 18.32,-2.41 18.65,0 33.56,6.05 44.8,18.18 11.28,12.13 16.9,28.28 16.9,48.39 0,21.34 -6.32,37.77 -18.98,49.43 -12.6,11.62 -30.5,17.42 -53.53,17.42 -7.75,0 -15.63,-0.71 -23.61,-2.12 -7.98,-1.47 -16.34,-3.64 -25.12,-6.61z"/>
  <path id="6" class="fil3" d="M2507.83 403.05c0,-4.06 1.37,-7.5 4.16,-10.29 2.78,-2.79 6.23,-4.15 10.29,-4.15 4.06,0 7.51,1.36 10.29,4.15 2.79,2.79 4.16,6.23 4.16,10.29 0,4.06 -1.37,7.51 -4.16,10.29 -2.78,2.79 -6.23,4.16 -10.29,4.16 -4.06,0 -7.51,-1.37 -10.29,-4.16 -2.79,-2.78 -4.16,-6.23 -4.16,-10.29zm1.7 165.43l0 -127.75 25.5 0 0 127.75 -25.5 0z"/>
  <polygon id="7" class="fil3" points="2569.3,568.48 2569.3,375.01 2594.8,375.01 2594.8,568.48 "/>
  <path id="8" class="fil3" d="M2627.37 403.05c0,-4.06 1.37,-7.5 4.16,-10.29 2.78,-2.79 6.23,-4.15 10.29,-4.15 4.06,0 7.51,1.36 10.29,4.15 2.79,2.79 4.16,6.23 4.16,10.29 0,4.06 -1.37,7.51 -4.16,10.29 -2.78,2.79 -6.23,4.16 -10.29,4.16 -4.06,0 -7.51,-1.37 -10.29,-4.16 -2.79,-2.78 -4.16,-6.23 -4.16,-10.29zm1.7 165.43l0 -127.75 25.5 0 0 127.75 -25.5 0z"/>
  <path id="9" class="fil3" d="M2776.09 540.06l0 -71.9c-4.16,-2.98 -8.41,-5.15 -12.7,-6.61 -4.35,-1.42 -9.02,-2.13 -13.98,-2.13 -12.98,0 -23.23,3.97 -30.69,11.9 -7.45,7.93 -11.18,18.84 -11.18,32.76 0,13.93 3.73,24.88 11.18,32.86 7.46,7.98 17.71,11.99 30.69,11.99 4.96,0 9.63,-0.7 13.98,-2.12 4.29,-1.46 8.54,-3.68 12.7,-6.75zm0 21.34c-4.68,3.25 -9.73,5.66 -15.11,7.27 -5.43,1.56 -11.43,2.36 -18.04,2.36 -18.46,0 -33.47,-6.19 -45.13,-18.56 -11.66,-12.36 -17.47,-28.37 -17.47,-48.01 0,-19.64 5.81,-35.64 17.47,-48.01 11.66,-12.37 26.67,-18.56 45.13,-18.56 6.43,0 12.37,0.81 17.8,2.41 5.43,1.61 10.58,4.11 15.35,7.51l0 -72.8 25.49 0 0 193.47 -25.49 0 0 -7.08z"/>
  <path id="10" class="fil3" d="M2897.37 542.47l0 -37.44c-17.18,5.33 -29.03,10.29 -35.55,14.77 -6.51,4.54 -9.77,9.78 -9.77,15.77 0,5.29 1.7,9.35 5.05,12.18 3.4,2.88 8.12,4.3 14.21,4.3 4.53,0 8.97,-0.8 13.31,-2.45 4.35,-1.61 8.6,-4.02 12.75,-7.13zm0.95 15.53c-6.43,4.53 -12.56,7.79 -18.32,9.77 -5.76,1.98 -11.95,2.98 -18.6,2.98 -11.43,0 -20.4,-2.74 -26.87,-8.22 -6.47,-5.52 -9.68,-13.08 -9.68,-22.66 0,-9.02 3.5,-17 10.53,-23.79 6.99,-6.85 17.52,-12.61 31.63,-17.33l30.36 -10.15c0.1,-0.76 0.14,-1.46 0.19,-2.22 0.05,-0.71 0.09,-1.79 0.09,-3.16 0,-7.65 -1.88,-13.13 -5.61,-16.48 -3.73,-3.35 -9.92,-5.05 -18.51,-5.05 -7.08,0 -14.45,1.51 -22,4.48 -7.55,3.02 -15.16,7.46 -22.71,13.36l0 -25.16c6.56,-5.38 13.88,-9.39 22,-12.13 8.12,-2.69 16.71,-4.06 25.87,-4.06 16.43,0 28.33,3.63 35.84,10.86 7.46,7.22 11.19,18.88 11.19,35.03l0 54.1c0,4.53 0.37,7.74 1.18,9.63 0.8,1.89 2.07,2.83 3.91,2.83 1.61,0 3.21,-0.42 4.96,-1.22 1.7,-0.85 4.49,-2.79 8.36,-5.86l0 15.58c-4.63,3.97 -9.26,6.89 -13.98,8.78 -4.67,1.89 -9.53,2.84 -14.63,2.84 -4.87,0 -8.55,-1.04 -10.96,-3.07 -2.45,-2.03 -3.87,-5.24 -4.24,-9.68z"/>
  <path id="11" class="fil3" d="M3045.28 540.06l0 -71.9c-4.15,-2.98 -8.4,-5.15 -12.7,-6.61 -4.34,-1.42 -9.01,-2.13 -13.97,-2.13 -12.98,0 -23.23,3.97 -30.69,11.9 -7.46,7.93 -11.19,18.84 -11.19,32.76 0,13.93 3.73,24.88 11.19,32.86 7.46,7.98 17.71,11.99 30.69,11.99 4.96,0 9.63,-0.7 13.97,-2.12 4.3,-1.46 8.55,-3.68 12.7,-6.75zm0 21.34c-4.67,3.25 -9.72,5.66 -15.1,7.27 -5.43,1.56 -11.43,2.36 -18.04,2.36 -18.46,0 -33.47,-6.19 -45.13,-18.56 -11.66,-12.36 -17.47,-28.37 -17.47,-48.01 0,-19.64 5.81,-35.64 17.47,-48.01 11.66,-12.37 26.67,-18.56 45.13,-18.56 6.42,0 12.37,0.81 17.8,2.41 5.43,1.61 10.57,4.11 15.34,7.51l0 -72.8 25.5 0 0 193.47 -25.5 0 0 -7.08z"/>
  <polygon class="fil3" points="1652.63,892.02 1652.63,698.55 1680.39,698.55 1680.39,892.02 "/>
  <path id="1" class="fil3" d="M1718.06 892.02l0 -127.75 25.5 0 0 15.53c6.37,-6.04 12.7,-10.48 19.02,-13.31 6.33,-2.79 13.13,-4.21 20.4,-4.21 13.83,0 24.73,4.02 32.71,12.04 7.98,7.98 12,19.03 12,33l0 84.7 -25.5 0 0 -78.18c0,-10.34 -2.17,-17.99 -6.56,-22.9 -4.39,-4.96 -11.19,-7.41 -20.4,-7.41 -6.56,0 -12.27,1.27 -17.23,3.82 -4.91,2.5 -9.72,6.71 -14.44,12.51l0 92.16 -25.5 0z"/>
  <path id="2" class="fil3" d="M1929.94 888.05c-3.96,2.22 -8.21,3.88 -12.79,4.91 -4.53,1.09 -9.44,1.61 -14.68,1.61 -14.35,0 -24.46,-3.4 -30.31,-10.25 -5.86,-6.84 -8.78,-19.26 -8.78,-37.34l0 -60.62 -21.81 0 0 -2.5 44.7 -49.34 2.88 0 0 29.75 39.94 0 0 22.09 -39.94 0 0 58.68c0,10.58 1.33,17.43 3.92,20.54 2.65,3.07 7.56,4.63 14.73,4.63 3.87,0 7.65,-0.52 11.33,-1.51 3.69,-1.04 7.27,-2.6 10.81,-4.72l0 24.07z"/>
  <path id="3" class="fil3" d="M2062.75 878.52c-8.5,5.43 -17.19,9.53 -26.2,12.27 -8.97,2.69 -18.27,4.06 -27.86,4.06 -20.16,0 -36.26,-6.23 -48.29,-18.74 -12.04,-12.51 -18.04,-29.18 -18.04,-50.04 0,-19.08 5.81,-34.61 17.38,-46.51 11.56,-11.89 26.62,-17.84 45.27,-17.84 18.41,0 33.05,6.04 43.81,18.13 10.81,12.08 16.19,28.37 16.19,48.95l0 3.73 -95.74 0c0.76,12.09 4.72,21.53 11.9,28.33 7.17,6.8 16.81,10.2 28.89,10.2 8.12,0 16.57,-1.51 25.4,-4.49 8.78,-3.02 17.89,-7.55 27.29,-13.64l0 25.59zm-93.48 -64.12l67.7 0c-0.85,-9.34 -4.2,-16.8 -10.1,-22.42 -5.9,-5.62 -13.31,-8.45 -22.14,-8.45 -9.78,0 -17.71,2.6 -23.7,7.84 -6,5.19 -9.92,12.88 -11.76,23.03z"/>
  <polygon id="4" class="fil3" points="2089.61,892.02 2089.61,698.55 2115.11,698.55 2115.11,892.02 "/>
  <path id="5" class="fil3" d="M2147.68 726.59c0,-4.06 1.37,-7.5 4.16,-10.29 2.78,-2.79 6.23,-4.15 10.29,-4.15 4.06,0 7.51,1.36 10.29,4.15 2.79,2.79 4.16,6.23 4.16,10.29 0,4.06 -1.37,7.51 -4.16,10.29 -2.78,2.79 -6.23,4.16 -10.29,4.16 -4.06,0 -7.51,-1.37 -10.29,-4.16 -2.79,-2.78 -4.16,-6.23 -4.16,-10.29zm1.7 165.43l0 -127.75 25.5 0 0 127.75 -25.5 0z"/>
  <path id="6" class="fil3" d="M2215.95 915.86c0,6.23 3.12,10.95 9.39,14.16 6.28,3.17 15.49,4.77 27.67,4.77 11.9,0 21.2,-1.56 27.9,-4.72 6.75,-3.11 10.1,-7.41 10.1,-12.84 0,-6 -3.82,-10.53 -11.42,-13.55 -7.6,-3.07 -18.98,-4.58 -34.18,-4.58 -8.69,0 -15.77,1.61 -21.25,4.77 -5.47,3.21 -8.21,7.18 -8.21,11.99zm15.06 -64.58c-9.63,-2.98 -16.95,-7.84 -21.95,-14.69 -5.06,-6.79 -7.56,-15.25 -7.56,-25.3 0,-15.49 5.34,-27.19 16.05,-35.13 10.72,-7.93 26.58,-11.89 47.64,-11.89l50.75 0 0 20.67 -21.57 0c3.49,3.78 6.09,7.8 7.74,12 1.65,4.2 2.5,8.87 2.5,14.02 0,10.71 -3.26,19.87 -9.77,27.43 -6.47,7.55 -15.25,12.32 -26.2,14.26 -2.41,0.47 -5.62,0.99 -9.68,1.65 -13.74,2.12 -20.63,5.62 -20.63,10.48 0,4.91 9.82,9.25 29.46,13.12 4.81,0.95 8.59,1.66 11.37,2.22 12.37,2.6 21.72,6.9 28.09,12.98 6.38,6.1 9.54,13.84 9.54,23.23 0,13.03 -5.43,22.95 -16.24,29.75 -10.86,6.84 -26.63,10.24 -47.26,10.24 -20.2,0 -35.64,-3.3 -46.31,-9.87 -10.62,-6.61 -15.96,-16.19 -15.96,-28.7 0,-8.97 3.12,-16.34 9.35,-22.14 6.23,-5.81 15.39,-9.82 27.43,-12.04 -4.86,-2.22 -8.45,-4.58 -10.72,-7.08 -2.26,-2.55 -3.4,-5.38 -3.4,-8.5 0,-3.35 1.37,-6.33 4.16,-8.97 2.78,-2.69 7.17,-5.29 13.17,-7.74zm22.28 -65.48c-7.83,0 -14.25,2.26 -19.16,6.84 -4.96,4.58 -7.42,10.39 -7.42,17.52 0,7.46 2.36,13.31 7.04,17.51 4.72,4.2 11.23,6.28 19.54,6.28 8.36,0 15.02,-2.12 19.93,-6.37 4.86,-4.25 7.31,-10.06 7.31,-17.42 0,-7.13 -2.55,-12.94 -7.69,-17.52 -5.1,-4.58 -11.62,-6.84 -19.55,-6.84z"/>
  <path id="7" class="fil3" d="M2447.05 878.52c-8.5,5.43 -17.19,9.53 -26.2,12.27 -8.97,2.69 -18.28,4.06 -27.86,4.06 -20.16,0 -36.26,-6.23 -48.3,-18.74 -12.03,-12.51 -18.03,-29.18 -18.03,-50.04 0,-19.08 5.81,-34.61 17.37,-46.51 11.57,-11.89 26.63,-17.84 45.28,-17.84 18.41,0 33.05,6.04 43.81,18.13 10.81,12.08 16.19,28.37 16.19,48.95l0 3.73 -95.74 0c0.76,12.09 4.72,21.53 11.9,28.33 7.17,6.8 16.8,10.2 28.89,10.2 8.12,0 16.57,-1.51 25.4,-4.49 8.78,-3.02 17.89,-7.55 27.29,-13.64l0 25.59zm-93.48 -64.12l67.7 0c-0.85,-9.34 -4.2,-16.8 -10.1,-22.42 -5.9,-5.62 -13.32,-8.45 -22.14,-8.45 -9.78,0 -17.71,2.6 -23.71,7.84 -5.99,5.19 -9.91,12.88 -11.75,23.03z"/>
  <path id="8" class="fil3" d="M2473.06 892.02l0 -127.75 25.49 0 0 15.53c6.38,-6.04 12.7,-10.48 19.03,-13.31 6.33,-2.79 13.13,-4.21 20.4,-4.21 13.83,0 24.73,4.02 32.71,12.04 7.98,7.98 11.99,19.03 11.99,33l0 84.7 -25.49 0 0 -78.18c0,-10.34 -2.17,-17.99 -6.56,-22.9 -4.39,-4.96 -11.19,-7.41 -20.4,-7.41 -6.56,0 -12.27,1.27 -17.23,3.82 -4.91,2.5 -9.73,6.71 -14.45,12.51l0 92.16 -25.49 0z"/>
  <path id="9" class="fil3" d="M2684.94 888.05c-3.96,2.22 -8.21,3.88 -12.79,4.91 -4.53,1.09 -9.44,1.61 -14.68,1.61 -14.36,0 -24.46,-3.4 -30.31,-10.25 -5.86,-6.84 -8.78,-19.26 -8.78,-37.34l0 -60.62 -21.82 0 0 -2.5 44.71 -49.34 2.88 0 0 29.75 39.94 0 0 22.09 -39.94 0 0 58.68c0,10.58 1.32,17.43 3.92,20.54 2.65,3.07 7.55,4.63 14.73,4.63 3.87,0 7.65,-0.52 11.33,-1.51 3.68,-1.04 7.27,-2.6 10.81,-4.72l0 24.07z"/>
  <path id="10" class="fil3" d="M2817.75 878.52c-8.5,5.43 -17.19,9.53 -26.2,12.27 -8.97,2.69 -18.27,4.06 -27.86,4.06 -20.16,0 -36.26,-6.23 -48.3,-18.74 -12.03,-12.51 -18.03,-29.18 -18.03,-50.04 0,-19.08 5.81,-34.61 17.37,-46.51 11.57,-11.89 26.63,-17.84 45.28,-17.84 18.41,0 33.05,6.04 43.81,18.13 10.81,12.08 16.19,28.37 16.19,48.95l0 3.73 -95.74 0c0.76,12.09 4.72,21.53 11.9,28.33 7.17,6.8 16.8,10.2 28.89,10.2 8.12,0 16.57,-1.51 25.4,-4.49 8.78,-3.02 17.89,-7.55 27.29,-13.64l0 25.59zm-93.48 -64.12l67.7 0c-0.85,-9.34 -4.2,-16.8 -10.1,-22.42 -5.9,-5.62 -13.32,-8.45 -22.14,-8.45 -9.78,0 -17.71,2.6 -23.7,7.84 -6,5.19 -9.92,12.88 -11.76,23.03z"/>
  <path class="fil3" d="M1682.35 1182.3c0,9.87 1.84,19.31 5.52,28.23 3.69,8.92 9.02,16.85 15.91,23.79 6.75,6.9 14.64,12.23 23.75,15.96 9.06,3.73 18.55,5.62 28.42,5.62 10.1,0 19.64,-1.84 28.56,-5.48 8.88,-3.63 16.86,-9.01 23.84,-16.1 6.9,-6.94 12.23,-14.87 15.96,-23.79 3.73,-8.92 5.62,-18.36 5.62,-28.23 0,-9.87 -1.84,-19.17 -5.52,-28 -3.69,-8.78 -9.16,-16.85 -16.34,-24.12 -6.89,-7.13 -14.82,-12.51 -23.79,-16.24 -8.93,-3.73 -18.37,-5.62 -28.33,-5.62 -9.63,0 -18.88,1.89 -27.9,5.66 -8.97,3.78 -17.09,9.16 -24.27,16.2 -6.89,6.7 -12.22,14.59 -15.91,23.65 -3.68,9.02 -5.52,18.51 -5.52,28.47zm-29.46 -1.04c0,-12.89 2.64,-25.45 7.88,-37.58 5.24,-12.18 12.75,-22.95 22.43,-32.25 9.87,-9.49 21.01,-16.71 33.47,-21.71 12.42,-4.96 25.54,-7.46 39.28,-7.46 13.98,0 27.29,2.5 39.89,7.55 12.56,5.01 23.66,12.23 33.24,21.62 10.06,9.78 17.61,20.68 22.71,32.63 5.05,11.99 7.6,25.02 7.6,39.04 0,13.17 -2.6,25.82 -7.84,37.96 -5.19,12.13 -12.6,22.8 -22.19,32.01 -10.05,9.58 -21.24,16.85 -33.66,21.76 -12.41,4.96 -25.68,7.41 -39.75,7.41 -13.74,0 -26.91,-2.55 -39.51,-7.6 -12.56,-5.1 -23.66,-12.27 -33.24,-21.57 -9.96,-9.68 -17.52,-20.63 -22.61,-32.77 -5.15,-12.18 -7.7,-25.21 -7.7,-39.04z"/>
  <path id="1" class="fil3" d="M1885.69 1278.84l0 -127.75 25.49 0 0 15.53c6.37,-6.04 12.7,-10.48 19.03,-13.31 6.32,-2.79 13.12,-4.2 20.39,-4.2 13.83,0 24.74,4.01 32.72,12.04 7.98,7.98 11.99,19.02 11.99,33l0 84.69 -25.49 0 0 -78.18c0,-10.34 -2.18,-17.98 -6.57,-22.89 -4.39,-4.96 -11.18,-7.42 -20.39,-7.42 -6.56,0 -12.28,1.28 -17.23,3.83 -4.91,2.5 -9.73,6.7 -14.45,12.51l0 92.15 -25.49 0z"/>
  <polygon id="2" class="fil3" points="2027.89,1278.84 2027.89,1085.37 2053.38,1085.37 2053.38,1278.84 "/>
  <path id="3" class="fil3" d="M2085.96 1113.42c0,-4.06 1.36,-7.51 4.15,-10.3 2.79,-2.78 6.23,-4.15 10.29,-4.15 4.06,0 7.51,1.37 10.29,4.15 2.79,2.79 4.16,6.24 4.16,10.3 0,4.06 -1.37,7.5 -4.16,10.29 -2.78,2.78 -6.23,4.15 -10.29,4.15 -4.06,0 -7.5,-1.37 -10.29,-4.15 -2.79,-2.79 -4.15,-6.23 -4.15,-10.29zm1.69 165.42l0 -127.75 25.5 0 0 127.75 -25.5 0z"/>
  <path id="4" class="fil3" d="M2146.57 1278.84l0 -127.75 25.5 0 0 15.53c6.37,-6.04 12.7,-10.48 19.02,-13.31 6.33,-2.79 13.13,-4.2 20.4,-4.2 13.83,0 24.74,4.01 32.72,12.04 7.98,7.98 11.99,19.02 11.99,33l0 84.69 -25.5 0 0 -78.18c0,-10.34 -2.17,-17.98 -6.56,-22.89 -4.39,-4.96 -11.19,-7.42 -20.39,-7.42 -6.57,0 -12.28,1.28 -17.23,3.83 -4.91,2.5 -9.73,6.7 -14.45,12.51l0 92.15 -25.5 0z"/>
  <path id="5" class="fil3" d="M2400.1 1265.34c-8.5,5.43 -17.19,9.54 -26.2,12.28 -8.97,2.69 -18.28,4.06 -27.86,4.06 -20.16,0 -36.26,-6.24 -48.3,-18.75 -12.03,-12.51 -18.03,-29.17 -18.03,-50.04 0,-19.07 5.81,-34.6 17.37,-46.5 11.57,-11.9 26.63,-17.85 45.28,-17.85 18.41,0 33.05,6.04 43.81,18.13 10.81,12.09 16.19,28.37 16.19,48.96l0 3.73 -95.74 0c0.76,12.08 4.72,21.53 11.9,28.33 7.17,6.79 16.8,10.19 28.89,10.19 8.12,0 16.57,-1.51 25.4,-4.48 8.78,-3.02 17.89,-7.56 27.29,-13.65l0 25.59zm-93.48 -64.11l67.7 0c-0.85,-9.35 -4.2,-16.81 -10.1,-22.43 -5.9,-5.61 -13.32,-8.45 -22.14,-8.45 -9.78,0 -17.71,2.6 -23.71,7.84 -5.99,5.19 -9.91,12.89 -11.75,23.04z"/>
  <path class="fil4" d="M1208.84 826.75c0,-12.15 -0.59,-24.16 -1.7,-36.03l158.72 -72.21c6.99,35 10.68,71.19 10.68,108.24 0,7.11 -0.14,14.19 -0.41,21.24l-167.29 -21.24z"/>
  <line class="fil0" x1="1237.24" y1="402.26" x2="1224.66" y2= "448.83" />
  <path class="fil4" d="M1158.45 1265.21l-93.27 -139.91c38.22,-30.56 70.44,-68.32 94.63,-111.21l139.82 93.21c-36.48,61.34 -84.54,114.99 -141.18,157.91z"/>
 </g>
</svg>
