<?xml version="1.0" encoding="UTF-8"?>
<!DOCTYPE svg PUBLIC "-//W3C//DTD SVG 1.1//EN" "http://www.w3.org/Graphics/SVG/1.1/DTD/svg11.dtd">
<!-- Creator: CorelDRAW 2020 (64-Bit) -->
<svg xmlns="http://www.w3.org/2000/svg" xml:space="preserve" width="100px" height="100px" version="1.1" style="shape-rendering:geometricPrecision; text-rendering:geometricPrecision; image-rendering:optimizeQuality; fill-rule:evenodd; clip-rule:evenodd"
viewBox="0 0 100 100"
 xmlns:xlink="http://www.w3.org/1999/xlink"
 xmlns:xodm="http://www.corel.com/coreldraw/odm/2003"
 data-name="Layer 3"
 enable-background="new 0 0 512 512">
 <defs>
  <style type="text/css">
   <![CDATA[
    .fil13 {fill:black;fill-rule:nonzero}
    .fil1 {fill:#0A0B29;fill-rule:nonzero}
    .fil5 {fill:#4E5A61;fill-rule:nonzero}
    .fil4 {fill:#5F6C75;fill-rule:nonzero}
    .fil12 {fill:#7FCB8F;fill-rule:nonzero}
    .fil6 {fill:#94D4A2;fill-rule:nonzero}
    .fil10 {fill:#9EC8FC;fill-rule:nonzero}
    .fil9 {fill:#BED9FD;fill-rule:nonzero}
    .fil8 {fill:#CD5668;fill-rule:nonzero}
    .fil3 {fill:#E6F7FE;fill-rule:nonzero}
    .fil2 {fill:#F5FCFF;fill-rule:nonzero}
    .fil11 {fill:#FFD064;fill-rule:nonzero}
    .fil7 {fill:#FFE07D;fill-rule:nonzero}
    .fil0 {fill:url(#id0)}
   ]]>
  </style>
  <linearGradient id="id0" gradientUnits="userSpaceOnUse" x1="25.68" y1="8.37" x2="74.45" y2="92.84">
   <stop offset="0" style="stop-opacity:1; stop-color:#CCCCCC"/>
   <stop offset="1" style="stop-opacity:1; stop-color:white"/>
  </linearGradient>
 </defs>
 <g id="Capa_x0020_1">
  <metadata id="CorelCorpID_0Corel-Layer"/>
  <path class="fil0" d="M83.72 16.28c-8.63,-8.63 -20.55,-13.97 -33.72,-13.97 -13.17,0 -25.1,5.34 -33.72,13.97 -8.63,8.62 -13.97,20.55 -13.97,33.72 0,13.17 5.34,25.1 13.97,33.72 8.62,8.63 20.55,13.97 33.72,13.97 13.17,0 25.09,-5.34 33.72,-13.97 8.63,-8.62 13.97,-20.55 13.97,-33.72 0,-13.17 -5.34,-25.1 -13.97,-33.72z"/>
  <path class="fil1" d="M50 0c13.81,0 26.31,5.6 35.36,14.64 9.04,9.05 14.64,21.55 14.64,35.36 0,13.81 -5.6,26.31 -14.64,35.36 -9.05,9.04 -21.55,14.64 -35.36,14.64 -13.81,0 -26.31,-5.6 -35.36,-14.64 -9.04,-9.05 -14.64,-21.55 -14.64,-35.36 0,-13.81 5.6,-26.31 14.64,-35.36 9.05,-9.04 21.55,-14.64 35.36,-14.64zm33.72 16.28c-8.63,-8.63 -20.55,-13.97 -33.72,-13.97 -13.17,0 -25.1,5.34 -33.72,13.97 -8.63,8.62 -13.97,20.55 -13.97,33.72 0,13.17 5.34,25.1 13.97,33.72 8.62,8.63 20.55,13.97 33.72,13.97 13.17,0 25.09,-5.34 33.72,-13.97 8.63,-8.62 13.97,-20.55 13.97,-33.72 0,-13.17 -5.34,-25.1 -13.97,-33.72z"/>
  <g id="_1632283202864">
   <path class="fil2" d="M79.12 38.05l0 33.05c0,0.97 -0.79,1.76 -1.76,1.76l-54.72 0c-0.97,0 -1.76,-0.79 -1.76,-1.76l0 -33.05 58.24 0z"/>
   <path class="fil3" d="M79.12 40.4l0 -2.35 -32.34 -1.5 -25.9 1.5 0 2.35 0 30.7c0,0.97 0.79,1.76 1.76,1.76l2.34 0c-0.97,0 -1.76,-0.79 -1.76,-1.76l0 -30c0,-0.39 0.32,-0.7 0.71,-0.7l55.19 0z"/>
   <path class="fil4" d="M79.12 29.03l0 9.08 -58.24 0 0 -9.08c0,-0.97 0.79,-1.76 1.76,-1.76l54.72 0c0.97,0 1.76,0.79 1.76,1.76z"/>
   <path class="fil5" d="M47.57 35.71c-0.97,0 -1.75,-0.79 -1.75,-1.76 0,-0.97 0.78,-1.76 1.75,-1.76l24.41 0c0.97,0 1.75,0.79 1.75,1.76 0,0.97 -0.78,1.76 -1.75,1.76l-24.41 0z"/>
   <ellipse class="fil5" cx="39.73" cy="33.95" rx="1.75" ry="1.76"/>
   <polygon class="fil5" points="40.96,35.2 42.47,33.69 40.93,33.83 "/>
   <polygon class="fil5" points="38.53,32.67 40,31.21 39.68,32.43 "/>
   <ellipse class="fil5" cx="32.37" cy="33.95" rx="1.75" ry="1.76"/>
   <polygon class="fil5" points="33.6,35.2 35.05,33.73 33.57,33.83 "/>
   <polygon class="fil5" points="31.16,32.67 32.61,31.21 32.32,32.43 "/>
   <ellipse class="fil5" cx="24.74" cy="33.95" rx="1.75" ry="1.76"/>
   <polygon class="fil5" points="26.01,35.16 27.5,33.62 25.96,33.78 "/>
   <polygon class="fil5" points="23.53,32.67 24.9,31.26 24.69,32.43 "/>
   <ellipse class="fil6" cx="41.25" cy="32.43" rx="1.75" ry="1.76"/>
   <polygon class="fil5" points="46.37,32.67 47.89,31.15 47.53,32.82 "/>
   <polygon class="fil5" points="73.24,35.17 74.78,33.63 73.59,34.02 "/>
   <ellipse class="fil7" cx="33.88" cy="32.43" rx="1.75" ry="1.76"/>
   <ellipse class="fil8" cx="26.21" cy="32.43" rx="1.75" ry="1.76"/>
   <path class="fil2" d="M49.09 34.18c-0.97,0 -1.75,-0.78 -1.75,-1.75 0,-0.97 0.78,-1.76 1.75,-1.76l24.41 0c0.97,0 1.75,0.79 1.75,1.76 0,0.97 -0.78,1.75 -1.75,1.75l-24.41 0z"/>
   <path class="fil9" d="M24.46 43.43c0,-0.65 0.52,-1.17 1.17,-1.17l0.33 -0.35 8.37 0c0.64,0 1.17,0.53 1.17,1.18l0 24.14 -0.22 0.59c0,0.64 -0.75,0.77 -1.4,0.77l-7.97 -0.15c-0.65,0 -1.17,-0.52 -1.17,-1.17l-0.28 -23.84z"/>
   <path class="fil10" d="M35.5 67.23l0 0.47c0,0.64 -0.53,1.17 -1.17,1.17l-8.84 0c-0.65,0 -1.17,-0.53 -1.17,-1.17l0 -24.61c0,-0.65 0.52,-1.18 1.17,-1.18l0.47 0 0 24.61c0,0.39 0.32,0.71 0.7,0.71l8.84 0z"/>
   <path class="fil2" d="M31.92 47.44c0,-1.11 -0.9,-2.01 -2.01,-2.01 -0.15,0 -0.3,0.02 -0.44,0.05 -0.9,0.2 -1.37,1.02 -1.37,1.98 0,1.11 0.74,1.72 1.85,1.72 0.96,0 1.72,-0.41 1.92,-1.31 0.03,-0.14 0.05,-0.28 0.05,-0.43l0 0z"/>
   <path class="fil3" d="M31.87 47.87c-0.2,0.9 -1,1.57 -1.96,1.57 -1.11,0 -2.01,-0.89 -2.01,-2 0,-0.96 0.67,-1.76 1.57,-1.96 -0.03,0.14 -0.05,0.28 -0.05,0.43 0,1.11 0.9,2.01 2.01,2.01 0.15,0 0.3,-0.02 0.44,-0.05l0 0z"/>
   <path class="fil7" d="M48.09 68.6l-8.33 0.14c-0.32,0 -0.58,-0.27 -0.58,-0.59l0.17 -10.25c0,-0.32 0.26,-0.58 0.58,-0.58l0.84 -0.17 7.48 0c0.33,0 0.59,0.26 0.59,0.58l0 9.38 -0.16 0.91c0,0.32 -0.26,0.58 -0.59,0.58z"/>
   <path class="fil11" d="M48.84 67.11l0 1.17c0,0.32 -0.26,0.59 -0.58,0.59l-8.66 0c-0.33,0 -0.59,-0.27 -0.59,-0.59l0 -10.54c0,-0.33 0.26,-0.59 0.59,-0.59l1.17 0 0 9.61c0,0.19 0.16,0.35 0.35,0.35l7.72 0z"/>
   <path class="fil6" d="M61.47 68.6l-8.33 0.14c-0.32,0 -0.58,-0.27 -0.58,-0.59l0.16 -10.25c0,-0.32 0.27,-0.58 0.59,-0.58l0.84 -0.17 7.48 0c0.33,0 0.59,0.26 0.59,0.58l0 9.38 -0.16 0.91c0,0.32 -0.26,0.58 -0.59,0.58l0 0z"/>
   <path class="fil12" d="M62.22 67.11l0 1.17c0,0.32 -0.26,0.59 -0.59,0.59l-8.65 0c-0.33,0 -0.59,-0.27 -0.59,-0.59l0 -10.54c0,-0.33 0.26,-0.59 0.59,-0.59l1.17 0 0 9.61c0,0.19 0.16,0.35 0.35,0.35l7.72 0z"/>
   <path class="fil7" d="M74.86 68.6l-8.34 0.14c-0.32,0 -0.58,-0.27 -0.58,-0.59l0.17 -10.25c0,-0.32 0.26,-0.58 0.58,-0.58l0.84 -0.17 7.48 0c0.33,0 0.59,0.26 0.59,0.58l0 9.38 -0.16 0.91c0,0.32 -0.26,0.58 -0.58,0.58z"/>
   <path class="fil11" d="M75.6 67.11l0 1.17c0,0.32 -0.26,0.59 -0.59,0.59l-8.65 0c-0.33,0 -0.59,-0.27 -0.59,-0.59l0 -10.54c0,-0.33 0.26,-0.59 0.59,-0.59l1.17 0 0 9.61c0,0.19 0.16,0.35 0.35,0.35l7.72 0z"/>
   <path class="fil6" d="M48.09 53.37l-8.33 0.13c-0.32,0 -0.58,-0.26 -0.58,-0.58l0.17 -10.25c0,-0.32 0.26,-0.59 0.58,-0.59l0.84 -0.17 7.49 0c0.32,0 0.58,0.27 0.58,0.59l0 9.38 -0.16 0.9c0,0.33 -0.26,0.59 -0.59,0.59z"/>
   <path class="fil12" d="M48.84 51.88l0 1.17c0,0.32 -0.26,0.58 -0.58,0.58l-8.66 0c-0.33,0 -0.59,-0.26 -0.59,-0.58l0 -10.55c0,-0.32 0.26,-0.59 0.59,-0.59l1.17 0 0 9.61c0,0.2 0.16,0.36 0.35,0.36l7.72 0z"/>
   <path class="fil7" d="M61.47 53.37l-8.33 0.13c-0.32,0 -0.58,-0.26 -0.58,-0.58l0.16 -10.25c0,-0.32 0.27,-0.59 0.59,-0.59l0.84 -0.17 7.48 0c0.33,0 0.59,0.27 0.59,0.59l0 9.38 -0.16 0.9c0,0.33 -0.26,0.59 -0.59,0.59l0 0z"/>
   <path class="fil11" d="M62.22 51.88l0 1.17c0,0.32 -0.26,0.58 -0.59,0.58l-8.65 0c-0.33,0 -0.59,-0.26 -0.59,-0.58l0 -10.55c0,-0.32 0.26,-0.59 0.59,-0.59l1.17 0 0 9.61c0,0.2 0.16,0.36 0.35,0.36l7.72 0z"/>
   <path class="fil6" d="M74.86 53.37l-8.34 0.13c-0.32,0 -0.58,-0.26 -0.58,-0.58l0.17 -10.25c0,-0.32 0.26,-0.59 0.58,-0.59l0.84 -0.17 7.48 0c0.33,0 0.59,0.27 0.59,0.59l0 9.38 -0.16 0.9c0,0.33 -0.26,0.59 -0.58,0.59z"/>
   <path class="fil12" d="M75.6 51.88l0 1.17c0,0.32 -0.26,0.58 -0.59,0.58l-8.65 0c-0.33,0 -0.59,-0.26 -0.59,-0.58l0 -10.55c0,-0.32 0.26,-0.59 0.59,-0.59l1.17 0 0 9.61c0,0.2 0.16,0.36 0.35,0.36l7.72 0z"/>
   <path class="fil13" d="M26.08 30.14c-1.45,0 -2.64,1.18 -2.64,2.63 0,1.46 1.19,2.64 2.64,2.64 1.46,0 2.65,-1.18 2.65,-2.64 0,-1.45 -1.19,-2.63 -2.65,-2.63zm0 3.51c-0.48,0 -0.88,-0.39 -0.88,-0.88 0,-0.48 0.4,-0.88 0.88,-0.88 0.49,0 0.89,0.4 0.89,0.88 0,0.49 -0.4,0.88 -0.89,0.88z"/>
   <path class="fil13" d="M33.73 30.14c-1.45,0 -2.64,1.18 -2.64,2.63 0,1.46 1.19,2.64 2.64,2.64 1.46,0 2.65,-1.18 2.65,-2.64 0,-1.45 -1.19,-2.63 -2.65,-2.63zm0 3.51c-0.49,0 -0.88,-0.39 -0.88,-0.88 0,-0.48 0.39,-0.88 0.88,-0.88 0.49,0 0.89,0.4 0.89,0.88 0,0.49 -0.4,0.88 -0.89,0.88z"/>
   <path class="fil13" d="M41.16 30.14c-1.46,0 -2.64,1.18 -2.64,2.63 0,1.46 1.18,2.64 2.64,2.64 1.46,0 2.64,-1.18 2.64,-2.64 0,-1.45 -1.18,-2.63 -2.64,-2.63zm0 3.51c-0.49,0 -0.89,-0.39 -0.89,-0.88 0,-0.48 0.4,-0.88 0.89,-0.88 0.49,0 0.89,0.4 0.89,0.88 0,0.49 -0.4,0.88 -0.89,0.88z"/>
   <path class="fil13" d="M73.77 30.14l-4.42 0c-0.49,0 -0.88,0.39 -0.88,0.88 0,0.48 0.39,0.87 0.88,0.87l4.42 0c0.49,0 0.88,0.4 0.88,0.88 0,0.49 -0.39,0.88 -0.88,0.88l-24.71 0c-0.49,0 -0.89,-0.39 -0.89,-0.88 0,-0.48 0.4,-0.88 0.89,-0.88l16.17 0c0.48,0 0.88,-0.39 0.88,-0.87 0,-0.49 -0.4,-0.88 -0.88,-0.88l-16.17 0c-1.46,0 -2.65,1.18 -2.65,2.63 0,1.46 1.19,2.64 2.65,2.64l24.71 0c1.46,0 2.64,-1.18 2.64,-2.64 0,-1.45 -1.18,-2.63 -2.64,-2.63l0 0z"/>
   <path class="fil13" d="M77.36 26.33l-54.72 0c-1.46,0 -2.64,1.18 -2.64,2.63l0 42.08c0,1.45 1.18,2.63 2.64,2.63l54.72 0c1.46,0 2.64,-1.18 2.64,-2.63l0 -22.04c0,-0.49 -0.39,-0.88 -0.88,-0.88 -0.48,0 -0.88,0.39 -0.88,0.88l0 22.04c0,0.48 -0.39,0.87 -0.88,0.87l-54.72 0c-0.49,0 -0.88,-0.39 -0.88,-0.87l0 -32.17 56.48 0 0 6.02c0,0.48 0.4,0.88 0.88,0.88 0.49,0 0.88,-0.4 0.88,-0.88l0 -15.93c0,-1.45 -1.18,-2.63 -2.64,-2.63l0 0zm-55.6 10.78l0 -8.15c0,-0.48 0.39,-0.87 0.88,-0.87l54.72 0c0.49,0 0.88,0.39 0.88,0.87l0 8.15 -56.48 0z"/>
   <path class="fil13" d="M24.32 51.77c-0.49,0 -0.88,0.4 -0.88,0.88l0 15.05c0,1.13 0.92,2.05 2.05,2.05l8.84 0c1.13,0 2.05,-0.92 2.05,-2.05l0 -24.61c0,-1.13 -0.92,-2.05 -2.05,-2.05l-8.84 0c-1.13,0 -2.05,0.92 -2.05,2.05l0 5.46c0,0.49 0.39,0.88 0.88,0.88 0.48,0 0.88,-0.39 0.88,-0.88l0 -5.46c0,-0.17 0.13,-0.3 0.29,-0.3l8.84 0c0.16,0 0.29,0.13 0.29,0.3l0 24.61c0,0.16 -0.13,0.29 -0.29,0.29l-8.84 0c-0.16,0 -0.29,-0.13 -0.29,-0.29l0 -15.05c0,-0.48 -0.4,-0.88 -0.88,-0.88l0 0z"/>
   <path class="fil13" d="M29.91 50.32c1.59,0 2.88,-1.29 2.88,-2.88 0,-1.59 -1.29,-2.89 -2.88,-2.89 -1.59,0 -2.89,1.3 -2.89,2.89 0,1.59 1.3,2.88 2.89,2.88zm0 -4.01c0.62,0 1.13,0.5 1.13,1.13 0,0.62 -0.51,1.12 -1.13,1.12 -0.62,0 -1.13,-0.5 -1.13,-1.12 0,-0.63 0.51,-1.13 1.13,-1.13z"/>
   <path class="fil13" d="M27.84 54.39l4.14 0c0.48,0 0.87,-0.4 0.87,-0.88 0,-0.49 -0.39,-0.88 -0.87,-0.88l-4.14 0c-0.48,0 -0.88,0.39 -0.88,0.88 0,0.48 0.4,0.88 0.88,0.88z"/>
   <path class="fil13" d="M27.84 57.9l4.14 0c0.48,0 0.87,-0.39 0.87,-0.88 0,-0.48 -0.39,-0.87 -0.87,-0.87l-4.14 0c-0.48,0 -0.88,0.39 -0.88,0.87 0,0.49 0.4,0.88 0.88,0.88z"/>
   <path class="fil13" d="M27.84 61.42l4.14 0c0.48,0 0.87,-0.39 0.87,-0.88 0,-0.49 -0.39,-0.88 -0.87,-0.88l-4.14 0c-0.48,0 -0.88,0.39 -0.88,0.88 0,0.49 0.4,0.88 0.88,0.88z"/>
   <path class="fil13" d="M27.84 64.94l2.07 0c0.48,0 0.88,-0.4 0.88,-0.88 0,-0.49 -0.4,-0.88 -0.88,-0.88l-2.07 0c-0.48,0 -0.88,0.39 -0.88,0.88 0,0.48 0.4,0.88 0.88,0.88z"/>
   <path class="fil13" d="M66.36 54.51l8.65 0c0.81,0 1.47,-0.65 1.47,-1.46l0 -10.55c0,-0.81 -0.66,-1.46 -1.47,-1.46l-8.65 0c-0.81,0 -1.47,0.65 -1.47,1.46l0 10.55c0,0.81 0.66,1.46 1.47,1.46zm0.29 -11.72l8.07 0 0 9.96 -8.07 0 0 -9.96z"/>
   <path class="fil13" d="M66.36 69.75l8.66 0c0.8,0 1.46,-0.66 1.46,-1.47l0 -10.55c0,-0.8 -0.66,-1.46 -1.46,-1.46l-8.66 0c-0.81,0 -1.47,0.66 -1.47,1.46l0 10.55c0,0.81 0.66,1.47 1.47,1.47zm0.29 -11.72l8.07 0 0 9.96 -8.07 0 0 -9.96z"/>
   <path class="fil13" d="M52.98 54.39l8.65 0c0.81,0 1.47,-0.66 1.47,-1.47l0 -10.42c0,-0.81 -0.66,-1.46 -1.47,-1.46l-8.65 0c-0.81,0 -1.47,0.65 -1.47,1.46l0 10.42c0,0.81 0.66,1.47 1.47,1.47zm0.29 -11.6l8.07 0 0 9.84 -8.07 0 0 -9.84z"/>
   <path class="fil13" d="M52.98 69.75l8.65 0c0.81,0 1.47,-0.66 1.47,-1.47l0 -10.55c0,-0.8 -0.66,-1.46 -1.47,-1.46l-8.65 0c-0.81,0 -1.47,0.66 -1.47,1.46l0 1.41c0,0.49 0.4,0.88 0.88,0.88 0.49,0 0.88,-0.39 0.88,-0.88l0 -1.11 8.07 0 0 9.96 -8.07 0 0 -4.73c0,-0.48 -0.39,-0.88 -0.88,-0.88 -0.48,0 -0.88,0.4 -0.88,0.88l0 5.02c0,0.81 0.66,1.47 1.47,1.47z"/>
   <path class="fil13" d="M39.6 54.51l8.65 0c0.81,0 1.47,-0.65 1.47,-1.46l0 -10.55c0,-0.81 -0.66,-1.46 -1.47,-1.46l-8.65 0c-0.81,0 -1.47,0.65 -1.47,1.46l0 10.55c0,0.81 0.66,1.46 1.47,1.46zm0.29 -11.72l8.07 0 0 9.96 -8.07 0 0 -9.96z"/>
   <path class="fil13" d="M39.6 69.75l8.65 0c0.81,0 1.47,-0.66 1.47,-1.47l0 -10.55c0,-0.8 -0.66,-1.46 -1.47,-1.46l-8.65 0c-0.81,0 -1.47,0.66 -1.47,1.46l0 10.55c0,0.81 0.66,1.47 1.47,1.47zm0.29 -11.72l8.07 0 0 9.96 -8.07 0 0 -9.96z"/>
   <path class="fil13" d="M45.27 49.24l-2.69 0c-0.49,0 -0.88,0.39 -0.88,0.88 0,0.48 0.39,0.88 0.88,0.88l2.69 0c0.49,0 0.88,-0.4 0.88,-0.88 0,-0.49 -0.39,-0.88 -0.88,-0.88z"/>
   <path class="fil13" d="M58.65 49.24l-2.69 0c-0.49,0 -0.88,0.39 -0.88,0.88 0,0.48 0.39,0.88 0.88,0.88l2.69 0c0.49,0 0.88,-0.4 0.88,-0.88 0,-0.49 -0.39,-0.88 -0.88,-0.88z"/>
   <path class="fil13" d="M72.03 49.24l-2.69 0c-0.49,0 -0.88,0.39 -0.88,0.88 0,0.48 0.39,0.88 0.88,0.88l2.69 0c0.49,0 0.88,-0.4 0.88,-0.88 0,-0.49 -0.39,-0.88 -0.88,-0.88z"/>
   <path class="fil13" d="M45.27 64.47l-2.69 0c-0.49,0 -0.88,0.4 -0.88,0.88 0,0.49 0.39,0.88 0.88,0.88l2.69 0c0.49,0 0.88,-0.39 0.88,-0.88 0,-0.48 -0.39,-0.88 -0.88,-0.88z"/>
   <path class="fil13" d="M58.65 66.23c0.49,0 0.88,-0.39 0.88,-0.88 0,-0.48 -0.39,-0.88 -0.88,-0.88l-2.69 0c-0.49,0 -0.88,0.4 -0.88,0.88 0,0.49 0.39,0.88 0.88,0.88l2.69 0z"/>
   <path class="fil13" d="M72.03 64.47l-2.69 0c-0.49,0 -0.88,0.4 -0.88,0.88 0,0.49 0.39,0.88 0.88,0.88l2.69 0c0.49,0 0.88,-0.39 0.88,-0.88 0,-0.48 -0.39,-0.88 -0.88,-0.88z"/>
  </g>
 </g>
</svg>
