<?xml version="1.0" encoding="UTF-8"?>
<!DOCTYPE svg PUBLIC "-//W3C//DTD SVG 1.1//EN" "http://www.w3.org/Graphics/SVG/1.1/DTD/svg11.dtd">
<!-- Creator: CorelDRAW 2020 (64-Bit) -->
<svg xmlns="http://www.w3.org/2000/svg" xml:space="preserve" width="100px" height="100px" version="1.1" style="shape-rendering:geometricPrecision; text-rendering:geometricPrecision; image-rendering:optimizeQuality; fill-rule:evenodd; clip-rule:evenodd"
viewBox="0 0 100 100"
 xmlns:xlink="http://www.w3.org/1999/xlink"
 xmlns:xodm="http://www.corel.com/coreldraw/odm/2003"
 data-name="Layer 3"
 enable-background="new 0 0 512 512">
 <defs>
  <style type="text/css">
   <![CDATA[
    .fil14 {fill:black;fill-rule:nonzero}
    .fil1 {fill:#0A0B29;fill-rule:nonzero}
    .fil5 {fill:#4E5A61;fill-rule:nonzero}
    .fil4 {fill:#5F6C75;fill-rule:nonzero}
    .fil11 {fill:#7FCB8F;fill-rule:nonzero}
    .fil6 {fill:#94D4A2;fill-rule:nonzero}
    .fil10 {fill:#9EC8FC;fill-rule:nonzero}
    .fil9 {fill:#BED9FD;fill-rule:nonzero}
    .fil8 {fill:#CD5668;fill-rule:nonzero}
    .fil12 {fill:#D5717F;fill-rule:nonzero}
    .fil3 {fill:#E6F7FE;fill-rule:nonzero}
    .fil2 {fill:#F5FCFF;fill-rule:nonzero}
    .fil13 {fill:#FFD064;fill-rule:nonzero}
    .fil7 {fill:#FFE07D;fill-rule:nonzero}
    .fil0 {fill:url(#id0)}
   ]]>
  </style>
  <linearGradient id="id0" gradientUnits="userSpaceOnUse" x1="25.68" y1="8.37" x2="74.45" y2="92.84">
   <stop offset="0" style="stop-opacity:1; stop-color:#CCCCCC"/>
   <stop offset="1" style="stop-opacity:1; stop-color:white"/>
  </linearGradient>
 </defs>
 <g id="Capa_x0020_1">
  <metadata id="CorelCorpID_0Corel-Layer"/>
  <path class="fil0" d="M83.72 16.28c-8.63,-8.63 -20.55,-13.97 -33.72,-13.97 -13.17,0 -25.1,5.34 -33.72,13.97 -8.63,8.62 -13.97,20.55 -13.97,33.72 0,13.17 5.34,25.1 13.97,33.72 8.62,8.63 20.55,13.97 33.72,13.97 13.17,0 25.09,-5.34 33.72,-13.97 8.63,-8.62 13.97,-20.55 13.97,-33.72 0,-13.17 -5.34,-25.1 -13.97,-33.72z"/>
  <path class="fil1" d="M50 0c13.81,0 26.31,5.6 35.36,14.64 9.04,9.05 14.64,21.55 14.64,35.36 0,13.81 -5.6,26.31 -14.64,35.36 -9.05,9.04 -21.55,14.64 -35.36,14.64 -13.81,0 -26.31,-5.6 -35.36,-14.64 -9.04,-9.05 -14.64,-21.55 -14.64,-35.36 0,-13.81 5.6,-26.31 14.64,-35.36 9.05,-9.04 21.55,-14.64 35.36,-14.64zm33.72 16.28c-8.63,-8.63 -20.55,-13.97 -33.72,-13.97 -13.17,0 -25.1,5.34 -33.72,13.97 -8.63,8.62 -13.97,20.55 -13.97,33.72 0,13.17 5.34,25.1 13.97,33.72 8.62,8.63 20.55,13.97 33.72,13.97 13.17,0 25.09,-5.34 33.72,-13.97 8.63,-8.62 13.97,-20.55 13.97,-33.72 0,-13.17 -5.34,-25.1 -13.97,-33.72z"/>
  <g id="_1632284546848">
   <path class="fil2" d="M79.12 37.99l0 33.05c0,0.97 -0.79,1.75 -1.76,1.75l-54.72 0c-0.97,0 -1.76,-0.78 -1.76,-1.75l0 -33.05 58.24 0z"/>
   <path class="fil3" d="M79.12 40.33l0 -2.34 -32.34 -1.5 -25.9 1.5 0 2.34 0 30.71c0,0.97 0.79,1.75 1.76,1.75l2.34 0c-0.97,0 -1.76,-0.78 -1.76,-1.75l0 -30c0,-0.39 0.32,-0.71 0.71,-0.71l55.19 0z"/>
   <path class="fil4" d="M79.12 28.96l0 9.09 -58.24 0 0 -9.09c0,-0.97 0.79,-1.75 1.76,-1.75l54.72 0c0.97,0 1.76,0.78 1.76,1.75z"/>
   <path class="fil5" d="M47.57 35.64c-0.97,0 -1.75,-0.78 -1.75,-1.75 0,-0.97 0.78,-1.76 1.75,-1.76l24.41 0c0.97,0 1.75,0.79 1.75,1.76 0,0.97 -0.78,1.75 -1.75,1.75l-24.41 0z"/>
   <ellipse class="fil5" cx="39.73" cy="33.89" rx="1.75" ry="1.76"/>
   <polygon class="fil5" points="40.96,35.14 42.47,33.63 40.93,33.77 "/>
   <polygon class="fil5" points="38.53,32.61 40,31.14 39.68,32.36 "/>
   <ellipse class="fil5" cx="32.37" cy="33.89" rx="1.75" ry="1.76"/>
   <polygon class="fil5" points="33.6,35.14 35.05,33.67 33.57,33.77 "/>
   <polygon class="fil5" points="31.16,32.61 32.61,31.15 32.32,32.36 "/>
   <ellipse class="fil5" cx="24.74" cy="33.89" rx="1.75" ry="1.76"/>
   <polygon class="fil5" points="26.01,35.1 27.5,33.55 25.96,33.72 "/>
   <polygon class="fil5" points="23.53,32.61 24.9,31.2 24.69,32.36 "/>
   <ellipse class="fil6" cx="41.25" cy="32.36" rx="1.75" ry="1.76"/>
   <polygon class="fil5" points="46.37,32.61 47.89,31.08 47.53,32.76 "/>
   <polygon class="fil5" points="73.24,35.11 74.78,33.56 73.59,33.96 "/>
   <ellipse class="fil7" cx="33.88" cy="32.36" rx="1.75" ry="1.76"/>
   <ellipse class="fil8" cx="26.21" cy="32.36" rx="1.75" ry="1.76"/>
   <path class="fil2" d="M49.09 34.12c-0.97,0 -1.75,-0.79 -1.75,-1.76 0,-0.97 0.78,-1.76 1.75,-1.76l24.41 0c0.97,0 1.75,0.79 1.75,1.76 0,0.97 -0.78,1.76 -1.75,1.76l-24.41 0z"/>
   <path class="fil9" d="M41.85 47.93l-16.73 0.01c-0.33,0 -0.59,-0.27 -0.59,-0.59l-0.03 -2.62c0,-0.32 0.26,-0.58 0.58,-0.58l1.02 -0.13 15.92 0c0.32,0 0.58,0.27 0.58,0.59l0 1.82 -0.16 0.92c0,0.32 -0.26,0.58 -0.59,0.58l0 0z"/>
   <path class="fil10" d="M42.6 46.43l0 1.18c0,0.32 -0.26,0.58 -0.58,0.58l-17.09 0c-0.32,0 -0.58,-0.26 -0.58,-0.58l0 -3c0,-0.32 0.26,-0.59 0.58,-0.59l1.17 0 0 2.06c0,0.2 0.16,0.35 0.35,0.35l16.15 0z"/>
   <path class="fil6" d="M31.92 66.17l-6.8 -0.01c-0.32,0 -0.58,-0.27 -0.58,-0.59l0 -2.13c0,-0.33 0.27,-0.59 0.59,-0.59l0.86 -0.07 6.12 0c0.32,0 0.59,0.26 0.59,0.58l0 1.29 -0.2 0.93c0,0.33 -0.26,0.59 -0.58,0.59z"/>
   <path class="fil11" d="M32.7 64.65l0 1.06c0,0.32 -0.27,0.58 -0.59,0.58l-7.18 0c-0.32,0 -0.58,-0.26 -0.58,-0.58l0 -2.35c0,-0.32 0.26,-0.58 0.58,-0.58l1.06 0 0 1.52c0,0.2 0.15,0.35 0.35,0.35l6.36 0z"/>
   <path class="fil6" d="M53.94 62.53l-2.4 0.06c-0.19,0 -0.35,-0.16 -0.35,-0.35l-0.02 -7.08c0,-0.2 0.16,-0.35 0.36,-0.35l1.15 -0.13 1.41 0c0.19,0 0.35,0.16 0.35,0.35l0 6.11 -0.15 1.04c0,0.2 -0.15,0.35 -0.35,0.35l0 0z"/>
   <path class="fil12" d="M60.85 62.49l-2.28 -0.05c-0.2,0 -0.35,-0.16 -0.35,-0.35l-0.02 -11.23c0,-0.19 0.15,-0.35 0.35,-0.35l1.16 -0.31 1.41 0c0.19,0 0.35,0.16 0.35,0.35l0 10.59 -0.27 1c0,0.19 -0.16,0.35 -0.35,0.35l0 0z"/>
   <path class="fil7" d="M67.91 62.49l-2.22 0.1c-0.2,0 -0.35,-0.16 -0.35,-0.35l-0.06 -7.08c0,-0.2 0.15,-0.35 0.35,-0.35l1.11 -0.13 1.41 0c0.19,0 0.35,0.16 0.35,0.35l0 6.11 -0.24 1c0,0.19 -0.16,0.35 -0.35,0.35l0 0z"/>
   <path class="fil9" d="M74.95 62.59l-2.28 -0.1c-0.19,0 -0.35,-0.16 -0.35,-0.35l0.02 -15.19c0,-0.19 0.16,-0.35 0.35,-0.35l1.08 -0.31 1.41 0c0.19,0 0.35,0.16 0.35,0.35l0 14.5 -0.23 1.1c0,0.19 -0.15,0.35 -0.35,0.35l0 0z"/>
   <path class="fil11" d="M54.44 61.14l0 1.29c0,0.19 -0.16,0.35 -0.35,0.35l-2.82 0c-0.19,0 -0.35,-0.16 -0.35,-0.35l0 -7.4c0,-0.19 0.16,-0.35 0.35,-0.35l1.41 0 0 6.11c0,0.19 0.16,0.35 0.35,0.35l1.41 0z"/>
   <path class="fil8" d="M61.47 61.14l0 1.29c0,0.19 -0.16,0.35 -0.35,0.35l-2.81 0c-0.2,0 -0.36,-0.16 -0.36,-0.35l0 -11.88c0,-0.19 0.16,-0.35 0.36,-0.35l1.4 0 0 10.59c0,0.19 0.16,0.35 0.35,0.35l1.41 0z"/>
   <path class="fil13" d="M68.5 61.14l0 1.29c0,0.19 -0.16,0.35 -0.35,0.35l-2.81 0c-0.2,0 -0.36,-0.16 -0.36,-0.35l0 -7.4c0,-0.19 0.16,-0.35 0.36,-0.35l1.4 0 0 6.11c0,0.19 0.16,0.35 0.35,0.35l1.41 0z"/>
   <path class="fil10" d="M75.53 61.14l0 1.29c0,0.19 -0.15,0.35 -0.35,0.35l-2.81 0c-0.2,0 -0.35,-0.16 -0.35,-0.35l0 -15.79c0,-0.19 0.15,-0.35 0.35,-0.35l1.4 0 0 14.5c0,0.19 0.16,0.35 0.36,0.35l1.4 0z"/>
   <path class="fil14" d="M23.44 32.77c0,1.46 1.19,2.64 2.64,2.64 1.46,0 2.65,-1.18 2.65,-2.64 0,-1.45 -1.19,-2.63 -2.65,-2.63 -1.45,0 -2.64,1.18 -2.64,2.63zm3.53 0c0,0.49 -0.4,0.88 -0.89,0.88 -0.48,0 -0.88,-0.39 -0.88,-0.88 0,-0.48 0.4,-0.88 0.88,-0.88 0.49,0 0.89,0.4 0.89,0.88z"/>
   <path class="fil14" d="M31.09 32.77c0,1.46 1.19,2.64 2.64,2.64 1.46,0 2.65,-1.18 2.65,-2.64 0,-1.45 -1.19,-2.63 -2.65,-2.63 -1.45,0 -2.64,1.18 -2.64,2.63zm3.53 0c0,0.49 -0.4,0.88 -0.89,0.88 -0.49,0 -0.88,-0.39 -0.88,-0.88 0,-0.48 0.39,-0.88 0.88,-0.88 0.49,0 0.89,0.4 0.89,0.88z"/>
   <path class="fil14" d="M38.52 32.77c0,1.46 1.18,2.64 2.64,2.64 1.46,0 2.64,-1.18 2.64,-2.64 0,-1.45 -1.18,-2.63 -2.64,-2.63 -1.46,0 -2.64,1.18 -2.64,2.63zm3.53 0c0,0.49 -0.4,0.88 -0.89,0.88 -0.49,0 -0.89,-0.39 -0.89,-0.88 0,-0.48 0.4,-0.88 0.89,-0.88 0.49,0 0.89,0.4 0.89,0.88z"/>
   <path class="fil14" d="M76.41 32.77c0,-1.45 -1.18,-2.63 -2.64,-2.63l-24.71 0c-1.46,0 -2.65,1.18 -2.65,2.63 0,1.46 1.19,2.64 2.65,2.64l24.71 0c1.46,0 2.64,-1.18 2.64,-2.64l0 0zm-28.24 0c0,-0.48 0.4,-0.88 0.89,-0.88l24.71 0c0.49,0 0.88,0.4 0.88,0.88 0,0.49 -0.39,0.88 -0.88,0.88l-24.71 0c-0.49,0 -0.89,-0.39 -0.89,-0.88l0 0z"/>
   <path class="fil14" d="M79.12 64.59c-0.48,0 -0.88,0.39 -0.88,0.88l0 5.57c0,0.48 -0.39,0.87 -0.88,0.87l-54.72 0c-0.49,0 -0.88,-0.39 -0.88,-0.87l0 -22.09c0,-0.49 -0.4,-0.88 -0.88,-0.88 -0.49,0 -0.88,0.39 -0.88,0.88l0 22.09c0,1.45 1.18,2.63 2.64,2.63l54.72 0c1.46,0 2.64,-1.18 2.64,-2.63l0 -5.57c0,-0.49 -0.39,-0.88 -0.88,-0.88l0 0z"/>
   <path class="fil14" d="M77.36 26.33l-54.72 0c-1.46,0 -2.64,1.18 -2.64,2.63l0 15.88c0,0.49 0.39,0.88 0.88,0.88 0.48,0 0.88,-0.39 0.88,-0.88l0 -5.97 42.57 0c0.48,0 0.88,-0.4 0.88,-0.88 0,-0.49 -0.4,-0.88 -0.88,-0.88l-42.57 0 0 -8.15c0,-0.48 0.39,-0.87 0.88,-0.87l54.72 0c0.49,0 0.88,0.39 0.88,0.87l0 8.33 -9.12 0c-0.49,0 -0.88,0.4 -0.88,0.88 0,0.49 0.39,0.88 0.88,0.88l9.12 0 0 22.32c0,0.48 0.4,0.88 0.88,0.88 0.49,0 0.88,-0.4 0.88,-0.88l0 -32.41c0,-1.45 -1.18,-2.63 -2.64,-2.63l0 0z"/>
   <path class="fil14" d="M47.29 43.14c-0.48,0 -0.88,0.4 -0.88,0.88l0 22.27c0,0.49 0.4,0.88 0.88,0.88l28.24 0c0.49,0 0.88,-0.39 0.88,-0.88 0,-0.48 -0.39,-0.88 -0.88,-0.88l-27.36 0 0 -21.39c0,-0.48 -0.39,-0.88 -0.88,-0.88l0 0z"/>
   <path class="fil14" d="M24.93 49.07l17.09 0c0.81,0 1.46,-0.66 1.46,-1.46l0 -3c0,-0.81 -0.65,-1.47 -1.46,-1.47l-17.09 0c-0.81,0 -1.46,0.66 -1.46,1.47l0 3c0,0.8 0.65,1.46 1.46,1.46l0 0zm0.29 -4.17l16.51 0 0 2.41 -16.51 0 0 -2.41z"/>
   <path class="fil14" d="M23.47 65.71c0,0.81 0.65,1.46 1.46,1.46l7.18 0c0.81,0 1.47,-0.65 1.47,-1.46l0 -2.35c0,-0.8 -0.66,-1.46 -1.47,-1.46l-7.18 0c-0.81,0 -1.46,0.66 -1.46,1.46l0 2.35zm1.75 -2.05l6.6 0 0 1.75 -6.6 0 0 -1.75z"/>
   <path class="fil14" d="M24.35 58.43l18.08 0c0.48,0 0.88,-0.39 0.88,-0.88 0,-0.49 -0.4,-0.88 -0.88,-0.88l-18.08 0c-0.49,0 -0.88,0.39 -0.88,0.88 0,0.49 0.39,0.88 0.88,0.88z"/>
   <path class="fil14" d="M24.35 54.25l18.08 0c0.48,0 0.88,-0.39 0.88,-0.87 0,-0.49 -0.4,-0.88 -0.88,-0.88l-18.08 0c-0.49,0 -0.88,0.39 -0.88,0.88 0,0.48 0.39,0.87 0.88,0.87l0 0z"/>
   <path class="fil14" d="M54.44 63.66c0.48,0 0.88,-0.4 0.88,-0.88l0 -8.1c0,-0.49 -0.4,-0.88 -0.88,-0.88l-3.52 0c-0.48,0 -0.88,0.39 -0.88,0.88l0 8.1c0,0.48 0.4,0.88 0.88,0.88l3.52 0zm-2.64 -8.1l1.76 0 0 6.34 -1.76 0 0 -6.34z"/>
   <path class="fil14" d="M57.95 59.07c-0.48,0 -0.88,0.39 -0.88,0.88l0 2.83c0,0.48 0.4,0.88 0.88,0.88l3.52 0c0.49,0 0.88,-0.4 0.88,-0.88l0 -12.58c0,-0.48 -0.39,-0.88 -0.88,-0.88l-3.52 0c-0.48,0 -0.88,0.4 -0.88,0.88l0 5.69c0,0.48 0.4,0.88 0.88,0.88 0.49,0 0.88,-0.4 0.88,-0.88l0 -4.81 1.76 0 0 10.82 -1.76 0 0 -1.95c0,-0.49 -0.39,-0.88 -0.88,-0.88z"/>
   <path class="fil14" d="M68.5 63.66c0.49,0 0.88,-0.4 0.88,-0.88l0 -8.1c0,-0.49 -0.39,-0.88 -0.88,-0.88l-3.52 0c-0.48,0 -0.87,0.39 -0.87,0.88l0 8.1c0,0.48 0.39,0.88 0.87,0.88l3.52 0zm-2.64 -8.1l1.76 0 0 6.34 -1.76 0 0 -6.34z"/>
   <path class="fil14" d="M75.53 63.66c0.49,0 0.88,-0.4 0.88,-0.88l0 -16.49c0,-0.48 -0.39,-0.88 -0.88,-0.88l-3.51 0c-0.49,0 -0.88,0.4 -0.88,0.88l0 16.49c0,0.48 0.39,0.88 0.88,0.88l3.51 0zm-2.64 -16.49l1.76 0 0 14.73 -1.76 0 0 -14.73z"/>
  </g>
 </g>
</svg>
