<?xml version="1.0" encoding="UTF-8"?>
<!DOCTYPE svg PUBLIC "-//W3C//DTD SVG 1.1//EN" "http://www.w3.org/Graphics/SVG/1.1/DTD/svg11.dtd">
<!-- Creator: CorelDRAW 2020 (64-Bit) -->
<svg xmlns="http://www.w3.org/2000/svg" xml:space="preserve" width="100px" height="100px" version="1.1" style="shape-rendering:geometricPrecision; text-rendering:geometricPrecision; image-rendering:optimizeQuality; fill-rule:evenodd; clip-rule:evenodd"
viewBox="0 0 100 100"
 xmlns:xlink="http://www.w3.org/1999/xlink"
 xmlns:xodm="http://www.corel.com/coreldraw/odm/2003"
 data-name="Layer 3"
 enable-background="new 0 0 512 512">
 <defs>
  <style type="text/css">
   <![CDATA[
    .fil15 {fill:black;fill-rule:nonzero}
    .fil1 {fill:#0A0B29;fill-rule:nonzero}
    .fil5 {fill:#4E5A61;fill-rule:nonzero}
    .fil4 {fill:#5F6C75;fill-rule:nonzero}
    .fil12 {fill:#7FCB8F;fill-rule:nonzero}
    .fil11 {fill:#94D4A2;fill-rule:nonzero}
    .fil14 {fill:#9EC8FC;fill-rule:nonzero}
    .fil13 {fill:#BED9FD;fill-rule:nonzero}
    .fil8 {fill:#CD5668;fill-rule:nonzero}
    .fil3 {fill:#D3EFFD;fill-rule:nonzero}
    .fil7 {fill:#D5717F;fill-rule:nonzero}
    .fil2 {fill:#E6F7FE;fill-rule:nonzero}
    .fil6 {fill:#F5FCFF;fill-rule:nonzero}
    .fil10 {fill:#FFD064;fill-rule:nonzero}
    .fil9 {fill:#FFE07D;fill-rule:nonzero}
    .fil0 {fill:url(#id0)}
   ]]>
  </style>
  <linearGradient id="id0" gradientUnits="userSpaceOnUse" x1="25.68" y1="8.37" x2="74.45" y2="92.84">
   <stop offset="0" style="stop-opacity:1; stop-color:#CCCCCC"/>
   <stop offset="1" style="stop-opacity:1; stop-color:white"/>
  </linearGradient>
 </defs>
 <g id="Capa_x0020_1">
  <metadata id="CorelCorpID_0Corel-Layer"/>
  <path class="fil0" d="M83.72 16.28c-8.63,-8.63 -20.55,-13.97 -33.72,-13.97 -13.17,0 -25.1,5.34 -33.72,13.97 -8.63,8.62 -13.97,20.55 -13.97,33.72 0,13.17 5.34,25.1 13.97,33.72 8.62,8.63 20.55,13.97 33.72,13.97 13.17,0 25.09,-5.34 33.72,-13.97 8.63,-8.62 13.97,-20.55 13.97,-33.72 0,-13.17 -5.34,-25.1 -13.97,-33.72z"/>
  <path class="fil1" d="M50 0c13.81,0 26.31,5.6 35.36,14.64 9.04,9.05 14.64,21.55 14.64,35.36 0,13.81 -5.6,26.31 -14.64,35.36 -9.05,9.04 -21.55,14.64 -35.36,14.64 -13.81,0 -26.31,-5.6 -35.36,-14.64 -9.04,-9.05 -14.64,-21.55 -14.64,-35.36 0,-13.81 5.6,-26.31 14.64,-35.36 9.05,-9.04 21.55,-14.64 35.36,-14.64zm33.72 16.28c-8.63,-8.63 -20.55,-13.97 -33.72,-13.97 -13.17,0 -25.1,5.34 -33.72,13.97 -8.63,8.62 -13.97,20.55 -13.97,33.72 0,13.17 5.34,25.1 13.97,33.72 8.62,8.63 20.55,13.97 33.72,13.97 13.17,0 25.09,-5.34 33.72,-13.97 8.63,-8.62 13.97,-20.55 13.97,-33.72 0,-13.17 -5.34,-25.1 -13.97,-33.72z"/>
  <g id="_1632283241552">
   <path class="fil2" d="M60.09 24.96l-20.7 -0.45 0.88 -1.33c0,-0.65 -0.35,-2.3 0.3,-2.3l18.86 0c0.65,0 1.18,0.52 1.18,1.17l0 0.7 -0.52 2.21z"/>
   <path class="fil3" d="M60.61 22.75l0 1.76 -9.73 1.56 -11.49 -1.56 0 -2.46c0,-0.65 0.53,-1.17 1.18,-1.17l0.58 0 0 1.41c0,0.25 0.21,0.46 0.47,0.46l18.99 0z"/>
   <path class="fil2" d="M31.11 79.12l-2.34 0c-0.33,0 0.45,-6.64 0.45,-6.97l-1.04 -6 3.51 0 0 12.39c0,0.32 -0.26,0.58 -0.58,0.58l0 0z"/>
   <path class="fil2" d="M71.23 79.12l-2.34 0c-0.32,0 0.42,-6.64 0.42,-6.97l-1 -6 3.51 0 0 12.39c0,0.32 -0.26,0.58 -0.59,0.58z"/>
   <path class="fil3" d="M28.18 66.15l0 3.05 0 9.34c0,0.32 0.26,0.58 0.59,0.58l1.87 0c-0.32,0 -0.59,-0.26 -0.59,-0.58l0 -8.75c0,-0.33 0.27,-0.59 0.59,-0.59l1.05 0 0 -3.05 -1.64 0 -1.87 0z"/>
   <path class="fil4" d="M73.88 66.15l-47.1 0.18c-0.98,0 -1.76,-0.79 -1.76,-1.76l-0.14 -38.12c0,-0.97 0.3,-1.94 1.27,-1.94l2.01 0 22.05 2.72 21.63 -2.72 2.01 0c0.97,0 1.76,0.79 1.76,1.76l0 38.83c0,0.97 -0.76,1.05 -1.73,1.05z"/>
   <path class="fil5" d="M75.61 64.86l0 0.24c0,0.97 -0.79,1.76 -1.76,1.76l-47.7 0c-0.97,0 -1.76,-0.79 -1.76,-1.76l0 -38.83c0,-0.97 0.79,-1.76 1.76,-1.76l0.23 0 0 39.77c0,0.32 0.27,0.58 0.59,0.58l48.64 0z"/>
   <path class="fil6" d="M70.06 62.58l-40.57 -0.42c-0.32,0 -0.58,-0.26 -0.58,-0.58l-0.16 -36.67 1.4 -0.4 41.69 0 0 36.55 -1.19 0.93c0,0.33 -0.26,0.59 -0.59,0.59z"/>
   <path class="fil2" d="M71.84 61.06l0 1.4c0,0.33 -0.26,0.59 -0.59,0.59l-42.5 0c-0.33,0 -0.59,-0.26 -0.59,-0.59l0 -37.95 1.99 0 0 35.96c0,0.32 0.27,0.59 0.59,0.59l41.1 0z"/>
   <path class="fil7" d="M51.85 72.14c0,-1.02 -0.83,-1.85 -1.85,-1.85 -0.1,0 -0.21,0.01 -0.3,0.02 -0.88,0.15 -0.96,0.92 -0.96,1.84 0,1.03 0.24,1.34 1.26,1.34 0.92,0 1.68,-0.17 1.83,-1.05 0.01,-0.09 0.02,-0.2 0.02,-0.3l0 0z"/>
   <path class="fil8" d="M51.83 72.44c-0.15,0.88 -0.91,1.55 -1.83,1.55 -1.02,0 -1.85,-0.83 -1.85,-1.85 0,-0.92 0.67,-1.68 1.55,-1.83 -0.02,0.1 -0.03,0.2 -0.03,0.31 0,1.02 0.83,1.85 1.85,1.85 0.11,0 0.21,-0.01 0.31,-0.03l0 0z"/>
   <path class="fil9" d="M50.21 49.87c0,2.06 -0.73,3.97 -1.95,5.47 -0.59,0.74 -1.47,1.26 -2.27,1.77l-1.78 -1.49 -0.16 -1.96c1.23,-0.83 2.03,-2.24 2.02,-3.82 0,-0.14 -0.01,-0.28 -0.03,-0.41 -0.02,-0.21 0.13,-0.39 0.33,-0.43l3.3 -0.6c0.22,-0.04 0.44,0.11 0.46,0.34 0.06,0.37 0.08,0.75 0.08,1.13l0 0z"/>
   <path class="fil7" d="M36.95 49.96c0,0.28 0.03,0.55 0.08,0.81l-1.69 1.65 -1.92 -0.62c-0.16,-0.65 -0.37,-1.24 -0.38,-1.93 0,-1.8 0.48,-3.34 1.43,-4.74l1.9 0.44 1.21 2.01c-0.42,0.7 -0.65,1.51 -0.63,2.38z"/>
   <path class="fil10" d="M48.52 55.01c-0.64,0.88 -1.44,1.63 -2.36,2.21l-0.96 -0.27 0.48 -0.55c0.84,-0.23 1.63,-0.59 2.36,-1.05l0 0c0.16,-0.11 0.32,-0.22 0.48,-0.34l0 0z"/>
   <path class="fil8" d="M35.32 51.26l-0.88 0.97 -1.4 -0.32c-0.15,-0.65 -0.24,-1.32 -0.24,-2.01 0,-1.81 0.56,-3.5 1.52,-4.9l0.47 -0.16 0.24 0.73c-0.23,0.78 -0.35,1.6 -0.35,2.45 0,0.69 0.08,1.36 0.24,2.01 0.1,0.42 0.23,0.83 0.4,1.23l0 0z"/>
   <path class="fil11" d="M47.02 34.33l18.97 0.29c0.32,0 0.58,-0.26 0.58,-0.58l0.24 -0.59 0 -1.76c0,-0.32 -0.26,-0.58 -0.58,-0.58l-18.66 0 -0.82 0.57c-0.33,0 -0.59,0.26 -0.59,0.58l0.27 1.48c0,0.33 0.27,0.59 0.59,0.59l0 0z"/>
   <path class="fil12" d="M66.81 33.45l0 1.17c0,0.33 -0.26,0.59 -0.58,0.59l-19.84 0c-0.32,0 -0.58,-0.26 -0.58,-0.59l0 -2.93c0,-0.32 0.26,-0.58 0.58,-0.58l1.18 0 0 1.99c0,0.19 0.15,0.35 0.35,0.35l18.89 0z"/>
   <path class="fil13" d="M44.39 42.1l-1.16 3.15c-0.07,0.19 -0.28,0.3 -0.48,0.25 -0.41,-0.12 -0.85,-0.18 -1.3,-0.18 -1.65,0.02 -3.09,0.93 -3.87,2.26l-2.55 -2.01 -0.31 -0.57c0.3,-0.43 0.23,-0.84 0.6,-1.22 1.58,-1.6 3.77,-2.6 6.17,-2.6 0.9,0 1.8,0.14 2.66,0.41 0.21,0.07 0.32,0.3 0.24,0.51l0 0z"/>
   <path class="fil14" d="M36.37 42.88c-0.06,0.08 -0.12,0.16 -0.18,0.25 -0.51,0.74 -0.9,1.56 -1.16,2.44l-0.71 -0.57c0.56,-0.82 1.25,-1.54 2.05,-2.12l0 0z"/>
   <path class="fil11" d="M46.16 57.22l-0.17 -0.11c-1.35,0.86 -2.67,1.13 -4.37,1.14 -4.08,0 -7.32,-2.45 -8.24,-6.27l1.02 -0.04 0.92 -0.68 1.71 -0.49c0.42,2.11 2.29,3.7 4.52,3.67 0.93,-0.01 1.79,-0.3 2.5,-0.78l1.63 2.74 -1.08 0.59 1.56 0.23z"/>
   <path class="fil12" d="M46.16 57.22l0 0c-1.34,0.86 -2.94,1.36 -4.64,1.37 -4.08,0 -7.55,-2.87 -8.48,-6.68l2.28 -0.65c1.29,3.19 4.44,5.46 8.08,5.45 0.78,0 1.55,-0.11 2.28,-0.31l0.48 0.82z"/>
   <path class="fil15" d="M73.85 23.63l-12.37 0 0 -1.58c0,-1.13 -0.92,-2.05 -2.05,-2.05l-18.86 0c-1.13,0 -2.05,0.92 -2.05,2.05l0 1.58 -2.18 0c-0.49,0 -0.88,0.4 -0.88,0.88 0,0.49 0.39,0.88 0.88,0.88l34.62 0 0 36.78 -41.92 0 0 -8.55c0,-0.48 -0.39,-0.88 -0.88,-0.88 -0.49,0 -0.88,0.4 -0.88,0.88l0 8.84c0,0.81 0.66,1.47 1.47,1.47l20.37 0 0 2.05 -22.97 0c-0.49,0 -0.88,-0.4 -0.88,-0.88l0 -38.83c0,-0.49 0.39,-0.88 0.88,-0.88l1.13 0 0 24.13c0,0.49 0.39,0.88 0.88,0.88 0.49,0 0.88,-0.39 0.88,-0.88l0 -24.13 3.15 0c0.49,0 0.88,-0.39 0.88,-0.88 0,-0.48 -0.39,-0.88 -0.88,-0.88l-6.04 0c-1.46,0 -2.64,1.19 -2.64,2.64l0 38.83c0,1.45 1.18,2.64 2.64,2.64l1.15 0 0 10.8c0,0.8 0.66,1.46 1.47,1.46l2.34 0c0.8,0 1.46,-0.66 1.46,-1.46l0 -10.8 16.55 0 0 1.81c-1.07,0.37 -1.85,1.39 -1.85,2.59 0,1.51 1.22,2.73 2.73,2.73 1.51,0 2.73,-1.22 2.73,-2.73 0,-1.2 -0.78,-2.22 -1.85,-2.59l0 -1.81 2.82 0c0.49,0 0.88,-0.4 0.88,-0.88 0,-0.49 -0.39,-0.88 -0.88,-0.88l-2.82 0 0 -2.05 20.37 0c0.81,0 1.47,-0.66 1.47,-1.47l0 -37.07 1.13 0c0.49,0 0.88,0.39 0.88,0.88l0 38.83c0,0.48 -0.39,0.88 -0.88,0.88l-16.04 0c-0.48,0 -0.87,0.39 -0.87,0.88 0,0.48 0.39,0.88 0.87,0.88l9.62 0 0 10.8c0,0.8 0.66,1.46 1.46,1.46l2.34 0c0.81,0 1.47,-0.66 1.47,-1.46l0 -10.8 1.15 0c1.46,0 2.64,-1.19 2.64,-2.64l0 -38.83c0,-1.45 -1.18,-2.64 -2.64,-2.64l0 0zm-43.04 54.61l-1.75 0 0 -10.5 1.75 0 0 10.5 0 0zm19.19 -5.13c-0.54,0 -0.97,-0.43 -0.97,-0.97 0,-0.54 0.43,-0.97 0.97,-0.97 0.54,0 0.97,0.43 0.97,0.97 0,0.54 -0.43,0.97 -0.97,0.97zm-9.73 -51.06c0,-0.16 0.13,-0.29 0.3,-0.29l18.86 0c0.17,0 0.3,0.13 0.3,0.29l0 1.58 -19.46 0 0 -1.58zm30.67 56.19l-1.75 0 0 -10.5 1.75 0 0 10.5z"/>
   <path class="fil15" d="M41.51 40.3c-2.45,-0.01 -4.99,1.01 -6.78,2.83 -1.81,1.82 -2.81,4.22 -2.81,6.77 0.01,2.54 1.01,4.94 2.83,6.76 1.82,1.81 4.22,2.81 6.76,2.81 2.44,0.01 4.99,-1.02 6.77,-2.83 1.82,-1.82 2.81,-4.23 2.81,-6.77 0,-0.42 -0.03,-0.84 -0.08,-1.25 -0.05,-0.34 -0.24,-0.66 -0.52,-0.86 -0.28,-0.2 -0.63,-0.29 -0.97,-0.22l-3.31 0.6c-0.65,0.11 -1.1,0.72 -1.04,1.37 0.01,0.11 0.02,0.22 0.02,0.34 0.01,1.99 -1.6,3.69 -3.68,3.71 -2,0 -3.65,-1.61 -3.68,-3.62 0,-0.89 0.29,-1.84 1.04,-2.62 0.69,-0.71 1.61,-1.11 2.59,-1.12 0.36,0 0.71,0.04 1.05,0.14 0.63,0.18 1.31,-0.16 1.54,-0.78l1.17 -3.15c0.12,-0.33 0.1,-0.69 -0.05,-1 -0.15,-0.32 -0.43,-0.55 -0.76,-0.66 -0.94,-0.3 -1.92,-0.45 -2.9,-0.45l0 0zm-5.44 9.83l-2.33 0.66c-0.04,-0.29 -0.06,-0.59 -0.06,-0.9 0,-1.29 0.31,-2.51 0.87,-3.58l1.92 1.52c-0.22,0.53 -0.44,1.46 -0.4,2.3l0 0zm10.88 -0.3c0,-0.02 0,-0.03 0,-0.04l2.36 -0.43c0.02,0.17 0.02,0.34 0.02,0.51 0.01,2.45 -1.13,4.65 -2.9,6.09l-1.23 -2.09c1.09,-1 1.76,-2.45 1.75,-4.04l0 0zm-5.44 5.49c0.62,0 1.5,-0.15 2.22,-0.48l1.22 2.07c-0.89,0.45 -2.25,0.8 -3.44,0.8 -2.07,0 -4.03,-0.82 -5.52,-2.3 -0.84,-0.84 -1.46,-1.83 -1.85,-2.9l2.3 -0.66c0.79,2.03 2.77,3.47 5.07,3.47l0 0zm1.04 -10.78c-0.36,-0.07 -0.74,-0.1 -1.11,-0.1 -1.45,0.02 -2.81,0.61 -3.83,1.66 -0.07,0.07 -0.14,0.15 -0.21,0.22l-1.87 -1.48c1.43,-1.7 3.57,-2.78 5.96,-2.78 0.46,0 1.19,0.06 1.9,0.23l-0.84 2.25z"/>
   <path class="fil15" d="M39.31 30.21l-6.6 0c-0.48,0 -0.88,0.4 -0.88,0.88 0,0.49 0.4,0.88 0.88,0.88l6.6 0c0.48,0 0.87,-0.39 0.87,-0.88 0,-0.48 -0.39,-0.88 -0.87,-0.88z"/>
   <path class="fil15" d="M39.39 34.33l-6.59 0c-0.48,0 -0.88,0.39 -0.88,0.88 0,0.48 0.4,0.88 0.88,0.88l6.59 0c0.49,0 0.88,-0.4 0.88,-0.88 0,-0.49 -0.39,-0.88 -0.88,-0.88l0 0z"/>
   <path class="fil15" d="M66.81 44.38l-11.49 0c-0.48,0 -0.88,0.39 -0.88,0.88 0,0.48 0.4,0.88 0.88,0.88l11.49 0c0.49,0 0.88,-0.4 0.88,-0.88 0,-0.49 -0.39,-0.88 -0.88,-0.88z"/>
   <path class="fil15" d="M66.81 48.78l-7.34 0c-0.48,0 -0.88,0.4 -0.88,0.88 0,0.49 0.4,0.88 0.88,0.88l7.34 0c0.49,0 0.88,-0.39 0.88,-0.88 0,-0.48 -0.39,-0.88 -0.88,-0.88l0 0z"/>
   <path class="fil15" d="M66.81 52.86l-7.34 0c-0.48,0 -0.88,0.4 -0.88,0.88 0,0.49 0.4,0.88 0.88,0.88l7.34 0c0.49,0 0.88,-0.39 0.88,-0.88 0,-0.48 -0.39,-0.88 -0.88,-0.88l0 0z"/>
   <path class="fil15" d="M66.81 56.84l-7.34 0c-0.48,0 -0.88,0.39 -0.88,0.88 0,0.48 0.4,0.88 0.88,0.88l7.34 0c0.49,0 0.88,-0.4 0.88,-0.88 0,-0.49 -0.39,-0.88 -0.88,-0.88l0 0z"/>
   <path class="fil15" d="M55.8 48.78l-0.48 0c-0.48,0 -0.88,0.4 -0.88,0.88 0,0.49 0.4,0.88 0.88,0.88l0.48 0c0.49,0 0.88,-0.39 0.88,-0.88 0,-0.48 -0.39,-0.88 -0.88,-0.88l0 0z"/>
   <path class="fil15" d="M55.8 52.86l-0.48 0c-0.48,0 -0.88,0.4 -0.88,0.88 0,0.49 0.4,0.88 0.88,0.88l0.48 0c0.49,0 0.88,-0.39 0.88,-0.88 0,-0.48 -0.39,-0.88 -0.88,-0.88z"/>
   <path class="fil15" d="M55.8 56.84l-0.48 0c-0.48,0 -0.88,0.39 -0.88,0.88 0,0.48 0.4,0.88 0.88,0.88l0.48 0c0.49,0 0.88,-0.4 0.88,-0.88 0,-0.49 -0.39,-0.88 -0.88,-0.88z"/>
   <path class="fil15" d="M67.69 31.69c0,-0.81 -0.66,-1.46 -1.46,-1.46l-19.84 0c-0.8,0 -1.46,0.65 -1.46,1.46l0 2.93c0,0.81 0.66,1.47 1.46,1.47l13 0c0.49,0 0.88,-0.4 0.88,-0.88 0,-0.49 -0.39,-0.88 -0.88,-0.88l-12.7 0 0 -2.34 19.24 0 0 2.34 -2.43 0c-0.48,0 -0.88,0.39 -0.88,0.88 0,0.48 0.4,0.88 0.88,0.88l2.73 0c0.8,0 1.46,-0.66 1.46,-1.47l0 -2.93z"/>
   <path class="fil15" d="M66.81 40.37l-11.49 0c-0.48,0 -0.88,0.39 -0.88,0.88 0,0.49 0.4,0.88 0.88,0.88l11.49 0c0.49,0 0.88,-0.39 0.88,-0.88 0,-0.49 -0.39,-0.88 -0.88,-0.88z"/>
  </g>
 </g>
</svg>
