<?xml version="1.0" encoding="UTF-8"?>
<!DOCTYPE svg PUBLIC "-//W3C//DTD SVG 1.1//EN" "http://www.w3.org/Graphics/SVG/1.1/DTD/svg11.dtd">
<!-- Creator: CorelDRAW 2020 (64-Bit) -->
<svg xmlns="http://www.w3.org/2000/svg" xml:space="preserve" width="100px" height="100px" version="1.1" style="shape-rendering:geometricPrecision; text-rendering:geometricPrecision; image-rendering:optimizeQuality; fill-rule:evenodd; clip-rule:evenodd"
viewBox="0 0 100 100"
 xmlns:xlink="http://www.w3.org/1999/xlink"
 xmlns:xodm="http://www.corel.com/coreldraw/odm/2003"
 data-name="Layer 3"
 enable-background="new 0 0 512 512">
 <defs>
  <style type="text/css">
   <![CDATA[
    .fil5 {fill:#FFD16B;fill-rule:nonzero}
    .fil4 {fill:#FCDF81;fill-rule:nonzero}
    .fil2 {fill:#F3FAFE;fill-rule:nonzero}
    .fil3 {fill:#E7F5FD;fill-rule:nonzero}
    .fil8 {fill:#D5EFFC;fill-rule:nonzero}
    .fil6 {fill:#C3D9F0;fill-rule:nonzero}
    .fil7 {fill:#A5C6E8;fill-rule:nonzero}
    .fil9 {fill:#66727B;fill-rule:nonzero}
    .fil10 {fill:#576269;fill-rule:nonzero}
    .fil11 {fill:#282828;fill-rule:nonzero}
    .fil1 {fill:#0A0B29;fill-rule:nonzero}
    .fil0 {fill:url(#id0)}
   ]]>
  </style>
  <linearGradient id="id0" gradientUnits="userSpaceOnUse" x1="25.68" y1="8.37" x2="74.45" y2="92.84">
   <stop offset="0" style="stop-opacity:1; stop-color:#CCCCCC"/>
   <stop offset="1" style="stop-opacity:1; stop-color:white"/>
  </linearGradient>
 </defs>
 <g id="Capa_x0020_1">
  <metadata id="CorelCorpID_0Corel-Layer"/>
  <path class="fil0" d="M83.72 16.28c-8.63,-8.63 -20.55,-13.97 -33.72,-13.97 -13.17,0 -25.1,5.34 -33.72,13.97 -8.63,8.62 -13.97,20.55 -13.97,33.72 0,13.17 5.34,25.1 13.97,33.72 8.62,8.63 20.55,13.97 33.72,13.97 13.17,0 25.09,-5.34 33.72,-13.97 8.63,-8.62 13.97,-20.55 13.97,-33.72 0,-13.17 -5.34,-25.1 -13.97,-33.72z"/>
  <path class="fil1" d="M50 0c13.81,0 26.31,5.6 35.36,14.64 9.04,9.05 14.64,21.55 14.64,35.36 0,13.81 -5.6,26.31 -14.64,35.36 -9.05,9.04 -21.55,14.64 -35.36,14.64 -13.81,0 -26.31,-5.6 -35.36,-14.64 -9.04,-9.05 -14.64,-21.55 -14.64,-35.36 0,-13.81 5.6,-26.31 14.64,-35.36 9.05,-9.04 21.55,-14.64 35.36,-14.64zm33.72 16.28c-8.63,-8.63 -20.55,-13.97 -33.72,-13.97 -13.17,0 -25.1,5.34 -33.72,13.97 -8.63,8.62 -13.97,20.55 -13.97,33.72 0,13.17 5.34,25.1 13.97,33.72 8.62,8.63 20.55,13.97 33.72,13.97 13.17,0 25.09,-5.34 33.72,-13.97 8.63,-8.62 13.97,-20.55 13.97,-33.72 0,-13.17 -5.34,-25.1 -13.97,-33.72z"/>
  <g id="_1632424694848">
   <path class="fil2" d="M62.06 78.43l-38.97 -0.05c-0.97,0 -1.76,-0.78 -1.76,-1.76l-0.18 -53.66c0,-0.97 0.79,-1.76 1.76,-1.76l0.14 -0.32 29.39 0 1.66 0.94c0.47,0 0.75,0.61 1.08,0.94l7.58 6.96c0.33,0.33 1.27,0.64 1.27,1.1l0 46.54c0,0.97 -1,1.07 -1.97,1.07z"/>
   <path class="fil3" d="M64.03 77.01l0 0.35c0,0.97 -0.79,1.76 -1.76,1.76l-39.57 0c-0.97,0 -1.76,-0.79 -1.76,-1.76l0 -54.72c0,-0.97 0.79,-1.76 1.76,-1.76l0.35 0 0 55.31c0,0.45 0.37,0.82 0.82,0.82l40.16 0z"/>
   <path class="fil4" d="M29.29 54.43l-1.99 0 -0.76 0.29c-0.32,0 -0.59,0.26 -0.59,0.59l0.14 2.34c0,0.32 0.26,0.58 0.59,0.58l2.31 -0.16c0.33,0 0.59,-0.26 0.59,-0.59l0.29 -0.59 0 -1.88c0,-0.32 -0.26,-0.58 -0.58,-0.58z"/>
   <path class="fil4" d="M29.29 40.36l-1.99 0 -0.76 0.3c-0.32,0 -0.59,0.26 -0.59,0.58l0.14 2.35c0,0.32 0.26,0.58 0.59,0.58l2.31 -0.16c0.33,0 0.59,-0.27 0.59,-0.59l0.29 -0.6 0 -1.87c0,-0.32 -0.26,-0.59 -0.58,-0.59z"/>
   <path class="fil4" d="M29.29 68.49l-1.99 0 -0.76 0.29c-0.32,0 -0.59,0.26 -0.59,0.59l0.14 2.34c0,0.33 0.26,0.59 0.59,0.59l2.31 -0.17c0.33,0 0.59,-0.26 0.59,-0.58l0.29 -0.6 0 -1.88c0,-0.32 -0.26,-0.58 -0.58,-0.58z"/>
   <path class="fil4" d="M48.05 54.43l-1.99 0 -0.75 0.29c-0.33,0 -0.59,0.26 -0.59,0.59l0.14 2.34c0,0.32 0.26,0.58 0.58,0.58l2.32 -0.16c0.32,0 0.59,-0.26 0.59,-0.59l0.29 -0.59 0 -1.88c0,-0.32 -0.27,-0.58 -0.59,-0.58z"/>
   <path class="fil4" d="M48.05 40.36l-1.99 0 -0.75 0.3c-0.33,0 -0.59,0.26 -0.59,0.58l0.14 2.35c0,0.32 0.26,0.58 0.58,0.58l2.32 -0.16c0.32,0 0.59,-0.27 0.59,-0.59l0.29 -0.6 0 -1.87c0,-0.32 -0.27,-0.59 -0.59,-0.59z"/>
   <path class="fil4" d="M48.05 68.49l-1.99 0 -0.75 0.29c-0.33,0 -0.59,0.26 -0.59,0.59l0.14 2.34c0,0.33 0.26,0.59 0.58,0.59l2.32 -0.17c0.32,0 0.59,-0.26 0.59,-0.58l0.29 -0.6 0 -1.88c0,-0.32 -0.27,-0.58 -0.59,-0.58z"/>
   <path class="fil5" d="M29.87 42.82l0 1.06c0,0.32 -0.26,0.59 -0.58,0.59l-2.93 0c-0.33,0 -0.59,-0.27 -0.59,-0.59l0 -2.93c0,-0.32 0.26,-0.59 0.59,-0.59l0.94 0 0 1.88c0,0.32 0.26,0.58 0.58,0.58l1.99 0z"/>
   <path class="fil5" d="M29.87 56.89l0 1.05c0,0.33 -0.26,0.59 -0.58,0.59l-2.93 0c-0.33,0 -0.59,-0.26 -0.59,-0.59l0 -2.93c0,-0.32 0.26,-0.58 0.59,-0.58l0.94 0 0 1.87c0,0.33 0.26,0.59 0.58,0.59l1.99 0z"/>
   <path class="fil5" d="M29.87 70.95l0 1.05c0,0.33 -0.26,0.59 -0.58,0.59l-2.93 0c-0.33,0 -0.59,-0.26 -0.59,-0.59l0 -2.93c0,-0.32 0.26,-0.58 0.59,-0.58l0.94 0 0 1.87c0,0.33 0.26,0.59 0.58,0.59l1.99 0z"/>
   <path class="fil5" d="M48.64 42.82l0 1.06c0,0.32 -0.27,0.59 -0.59,0.59l-2.93 0c-0.32,0 -0.58,-0.27 -0.58,-0.59l0 -2.93c0,-0.32 0.26,-0.59 0.58,-0.59l0.94 0 0 1.88c0,0.32 0.26,0.58 0.59,0.58l1.99 0z"/>
   <path class="fil5" d="M48.64 56.89l0 1.05c0,0.33 -0.27,0.59 -0.59,0.59l-2.93 0c-0.32,0 -0.58,-0.26 -0.58,-0.59l0 -2.93c0,-0.32 0.26,-0.58 0.58,-0.58l0.94 0 0 1.87c0,0.33 0.26,0.59 0.59,0.59l1.99 0z"/>
   <path class="fil5" d="M48.64 70.95l0 1.05c0,0.33 -0.27,0.59 -0.59,0.59l-2.93 0c-0.32,0 -0.58,-0.26 -0.58,-0.59l0 -2.93c0,-0.32 0.26,-0.58 0.58,-0.58l0.94 0 0 1.87c0,0.33 0.26,0.59 0.59,0.59l1.99 0z"/>
   <path class="fil6" d="M49.35 29.6l-13.97 0.26c-0.32,0 -0.58,-0.26 -0.58,-0.58l0.24 -3.37c0,-0.32 0.26,-0.58 0.58,-0.58l1.09 -0.52 13.07 0c0.32,0 0.59,0.26 0.59,0.59l0 2.82 -0.44 0.79c0,0.32 -0.26,0.59 -0.58,0.59l0 0z"/>
   <path class="fil7" d="M50.37 28.22l0 1.52c0,0.33 -0.27,0.59 -0.59,0.59l-14.59 0c-0.32,0 -0.59,-0.26 -0.59,-0.59l0 -4.34c0,-0.33 0.27,-0.59 0.59,-0.59l1.52 0 0 2.82c0,0.33 0.27,0.59 0.59,0.59l13.07 0z"/>
   <path class="fil3" d="M64.03 30.82l0 1.5 -8.43 0c-1.74,0 -3.16,-1.42 -3.16,-3.16l0 -8.28 1.64 0c0.12,0 0.24,0.01 0.35,0.03 0.34,0.07 0.66,1.28 0.91,1.53l7.42 7.28c0.21,0.21 1.12,0.33 1.2,0.61 0.04,0.16 0.07,0.32 0.07,0.49l0 0z"/>
   <path class="fil8" d="M63.96 30.33l-8.36 0c-0.64,0 -1.17,-0.53 -1.17,-1.17l0 -8.25c0.34,0.07 0.65,0.24 0.9,0.48l8.18 8.19c0.21,0.21 0.37,0.47 0.45,0.75l0 0z"/>
   <path class="fil9" d="M73.94 27.44l-3.25 -0.13 0.04 -5.14c0,-0.65 0.06,-1.29 0.71,-1.29l1.72 0c0.65,0 1.17,0.52 1.17,1.17l0 3.53 -0.39 1.86z"/>
   <path class="fil10" d="M74.33 25.58l0 1.88 -2.25 1.04 -1.81 -1.04 0 -5.41c0,-0.65 0.52,-1.17 1.17,-1.17l0.59 0 0 4.23c0,0.26 0.21,0.47 0.47,0.47l1.83 0z"/>
   <path class="fil6" d="M74.78 70.21l-5.54 0.88 0.28 -40.49c0,-0.64 -0.21,-3.14 0.44,-3.14l4.69 0c0.64,0 1.17,0.52 1.17,1.17l0 25.87 -1.04 15.71z"/>
   <path class="fil6" d="M68.61 67.96l0 3.16c0,0.46 0.63,0.84 0.63,0.84l-0.25 0.77 1.84 4.4c0.09,0.22 0.31,0.36 0.54,0.36l1.86 0c0.24,0 0.45,-0.14 0.54,-0.36l1.95 -4.65c0.18,-0.43 0.27,-0.9 0.27,-1.36l0 -3.16 -3.69 -0.35 -3.69 0.35z"/>
   <path class="fil7" d="M73.13 77.5l-1.76 0c-0.23,0 -0.45,-0.15 -0.54,-0.37l-1.84 -4.4 0.25 -0.77c-0.18,-0.43 -0.63,-0.38 -0.63,-0.84l0 -3.16 0.91 -0.35 0.85 0.35 0 3.16c0,0.46 0.09,0.93 0.27,1.36l0.11 0.25 1.84 4.4c0.09,0.22 0.3,0.37 0.54,0.37l0 0z"/>
   <path class="fil7" d="M71.6 27.46c-0.65,0 -1.17,0.52 -1.17,1.17l0 25.76 -0.8 0.63c-0.11,0 -0.76,-0.59 -0.84,-0.52l0 -25.87c0,-0.65 0.52,-1.17 1.17,-1.17l1.64 0z"/>
   <path class="fil3" d="M71.03 63.11c0,0.48 -0.39,0.88 -0.87,0.88l-1.55 0 0.31 -0.88 -0.31 -0.88 1.55 0c0.48,0 0.87,0.39 0.87,0.88z"/>
   <path class="fil3" d="M71.03 66.57c0,0.48 -0.39,0.88 -0.87,0.88l-1.55 0 0.73 -0.68 -0.73 -1.08 1.55 0c0.48,0 0.87,0.39 0.87,0.88z"/>
   <path class="fil3" d="M71.03 59.6c0,0.49 -0.39,0.88 -0.87,0.88l-1.55 0 0.48 -0.8 -0.48 -0.95 1.55 0c0.48,0 0.87,0.39 0.87,0.87z"/>
   <path class="fil9" d="M77.05 67.02l0 -1.89 -0.12 -0.88 0.12 -0.88 0 -1.7 -0.12 -0.88 0.12 -0.88 0 -1.76 -0.12 -0.88 0.12 -0.88 0 -1.74 -0.12 -0.88 0.12 -0.88 0 -1.89c0,-0.52 -0.42,-0.94 -0.94,-0.94l-7.62 0c-0.51,0 -0.94,0.42 -0.94,0.94l0 1.89 0.12 0.88 -0.12 0.88 0 1.74 0.12 0.88 -0.12 0.88 0 1.76 0.12 1.02 -0.12 0.74 0 1.7 0.12 0.88 -0.12 0.88 0 1.89c0,0.52 0.43,0.94 0.94,0.94l7.62 0c0.52,0 0.94,-0.42 0.94,-0.94z"/>
   <path class="fil10" d="M70.25 67.96l-1.76 0c-0.52,0 -0.94,-0.42 -0.94,-0.94l0 -1.89 0.12 -0.88 -0.12 -0.88 0 -1.7 0.12 -0.74 -0.12 -1.02 0 -1.76 0.12 -0.88 -0.12 -0.88 0 -1.74 0.12 -0.88 -0.12 -0.88 0 -1.89c0,-0.52 0.42,-0.94 0.94,-0.94l1.76 0c-0.52,0 -0.94,0.42 -0.94,0.94l0 16.02c0,0.52 0.42,0.94 0.94,0.94l0 0z"/>
   <path class="fil10" d="M70.75 72.73l-1.76 0 -0.11 -0.25c-0.18,-0.43 -0.27,-0.9 -0.27,-1.36l0 -0.14 1.76 0 0 0.14c0,0.46 0.09,0.93 0.27,1.36l0.11 0.25z"/>
   <path class="fil11" d="M76.17 52.89l-1.6 0c-0.48,0 -0.88,0.39 -0.88,0.88 0,0.48 0.4,0.88 0.88,0.88l1.6 0 0 1.74 -1.6 0c-0.48,0 -0.88,0.4 -0.88,0.88 0,0.49 0.4,0.88 0.88,0.88l1.6 0 0 1.76 -1.6 0c-0.48,0 -0.88,0.39 -0.88,0.88 0,0.48 0.4,0.88 0.88,0.88l1.6 0 0 1.7 -1.6 0c-0.48,0 -0.88,0.39 -0.88,0.88 0,0.48 0.4,0.88 0.88,0.88l1.6 0 0 1.89c0,0.03 -0.02,0.06 -0.05,0.06l-7.62 0c-0.03,0 -0.06,-0.03 -0.06,-0.06l0 -1.89 1.6 0c0.49,0 0.88,-0.4 0.88,-0.88 0,-0.49 -0.39,-0.88 -0.88,-0.88l-1.6 0 0 -1.7 1.6 0c0.49,0 0.88,-0.4 0.88,-0.88 0,-0.49 -0.39,-0.88 -0.88,-0.88l-1.6 0 0 -1.76 1.6 0c0.49,0 0.88,-0.39 0.88,-0.88 0,-0.48 -0.39,-0.88 -0.88,-0.88l-1.6 0 0 -1.74 1.6 0c0.49,0 0.88,-0.4 0.88,-0.88 0,-0.49 -0.39,-0.88 -0.88,-0.88l-1.6 0 0 -1.89c0,-0.04 0.03,-0.06 0.06,-0.06l7.62 0c0.03,0 0.05,0.02 0.05,0.06l0 1.89zm-1.05 18.09l-5.62 0 0 -2.14 5.62 0 0 2.14zm-2.08 5.64l-1.47 0 -1.62 -3.89 4.72 0 -1.63 3.89zm0.42 -50.04l-2.31 0 0 -4.53c0,-0.16 0.13,-0.29 0.3,-0.29l1.72 0c0.16,0 0.29,0.13 0.29,0.29l0 4.53zm3.57 0l-1.81 0 0 -4.53c0,-1.13 -0.92,-2.05 -2.05,-2.05l-1.72 0c-1.13,0 -2.05,0.92 -2.05,2.05l0 4.61c-0.86,0.25 -1.49,1.04 -1.49,1.97l0 6.14c0,0.48 0.4,0.88 0.88,0.88 0.49,0 0.88,-0.4 0.88,-0.88l0 -6.14c0,-0.16 0.13,-0.29 0.29,-0.29l4.69 0c0.16,0 0.29,0.13 0.29,0.29l0 20.55 -5.27 0 0 -10.33c0,-0.48 -0.39,-0.88 -0.88,-0.88 -0.48,0 -0.88,0.4 -0.88,0.88l0 10.43c-0.71,0.24 -1.23,0.92 -1.23,1.72l0 16.02c0,0.73 0.44,1.36 1.06,1.65l0 2.45c0,0.58 0.11,1.15 0.34,1.69l1.95 4.66c0.23,0.55 0.76,0.9 1.35,0.9l0.05 0 0 0.75c0,0.49 0.39,0.88 0.88,0.88 0.48,0 0.88,-0.39 0.88,-0.88l0 -0.75 0.05 0c0.59,0 1.12,-0.35 1.35,-0.9l1.95 -4.65c0.22,-0.55 0.34,-1.12 0.34,-1.7l0 -2.45c0.62,-0.29 1.05,-0.92 1.05,-1.65l0 -16.02c0,-0.8 -0.51,-1.48 -1.23,-1.72l-0.02 -20.94 0.35 0c0.63,0 1.15,0.51 1.15,1.15l0 14.61c0,0.48 0.39,0.88 0.88,0.88 0.48,0 0.88,-0.4 0.88,-0.88l0 -14.61c0,-1.61 -1.31,-2.91 -2.91,-2.91l0 0z"/>
   <path class="fil11" d="M20.94 52.3c0.49,0 0.88,-0.39 0.88,-0.88l0 -28.78c0,-0.49 0.4,-0.88 0.88,-0.88l3.91 0c0.49,0 0.88,-0.4 0.88,-0.88 0,-0.49 -0.39,-0.88 -0.88,-0.88l-3.91 0c-1.45,0 -2.64,1.18 -2.64,2.64l0 28.78c0,0.49 0.4,0.88 0.88,0.88z"/>
   <path class="fil11" d="M55.6 29.45c-0.16,0 -0.29,-0.13 -0.29,-0.29l0 -6.54 6.83 6.83 -6.54 0zm0.35 -8.68c-0.5,-0.5 -1.16,-0.77 -1.86,-0.77l-23.38 0c-0.49,0 -0.88,0.39 -0.88,0.88 0,0.48 0.39,0.88 0.88,0.88l22.84 0 0 7.4c0,1.13 0.92,2.05 2.05,2.05l7.55 0 0 46.15c0,0.49 -0.4,0.88 -0.88,0.88l-39.57 0c-0.48,0 -0.88,-0.39 -0.88,-0.88l0 -21.82c0,-0.48 -0.39,-0.88 -0.88,-0.88 -0.48,0 -0.88,0.4 -0.88,0.88l0 21.82c0,1.46 1.19,2.64 2.64,2.64l39.57 0c1.45,0 2.64,-1.18 2.64,-2.64l0 -46.54c0,-0.7 -0.28,-1.36 -0.77,-1.86l-8.19 -8.19z"/>
   <path class="fil11" d="M29.87 35.38l-4.1 0c-0.48,0 -0.88,0.4 -0.88,0.88 0,0.49 0.4,0.88 0.88,0.88l4.1 0c0.49,0 0.88,-0.39 0.88,-0.88 0,-0.48 -0.39,-0.88 -0.88,-0.88z"/>
   <path class="fil11" d="M28.99 43.59l-2.34 0 0 -2.35 2.34 0 0 2.35zm1.76 -2.64c0,-0.81 -0.66,-1.46 -1.46,-1.46l-2.93 0c-0.81,0 -1.47,0.65 -1.47,1.46l0 2.93c0,0.81 0.66,1.46 1.47,1.46l2.93 0c0.8,0 1.46,-0.65 1.46,-1.46l0 -2.93z"/>
   <path class="fil11" d="M32.51 40.36c0,0.49 0.39,0.88 0.88,0.88l7.04 0c0.49,0 0.88,-0.39 0.88,-0.88 0,-0.48 -0.39,-0.87 -0.88,-0.87l-7.04 0c-0.49,0 -0.88,0.39 -0.88,0.87z"/>
   <path class="fil11" d="M33.39 45.34l7.04 0c0.49,0 0.88,-0.39 0.88,-0.87 0,-0.49 -0.39,-0.88 -0.88,-0.88l-7.04 0c-0.49,0 -0.88,0.39 -0.88,0.88 0,0.48 0.39,0.87 0.88,0.87z"/>
   <path class="fil11" d="M29.87 49.45l-4.1 0c-0.48,0 -0.88,0.39 -0.88,0.87 0,0.49 0.4,0.88 0.88,0.88l4.1 0c0.49,0 0.88,-0.39 0.88,-0.88 0,-0.48 -0.39,-0.87 -0.88,-0.87z"/>
   <path class="fil11" d="M28.99 57.65l-2.34 0 0 -2.34 2.34 0 0 2.34zm1.76 -2.64c0,-0.81 -0.66,-1.46 -1.46,-1.46l-2.93 0c-0.81,0 -1.47,0.65 -1.47,1.46l0 2.93c0,0.81 0.66,1.47 1.47,1.47l2.93 0c0.8,0 1.46,-0.66 1.46,-1.47l0 -2.93z"/>
   <path class="fil11" d="M33.39 55.31l7.04 0c0.49,0 0.88,-0.4 0.88,-0.88 0,-0.49 -0.39,-0.88 -0.88,-0.88l-7.04 0c-0.49,0 -0.88,0.39 -0.88,0.88 0,0.48 0.39,0.88 0.88,0.88z"/>
   <path class="fil11" d="M33.39 59.41l7.04 0c0.49,0 0.88,-0.4 0.88,-0.88 0,-0.49 -0.39,-0.88 -0.88,-0.88l-7.04 0c-0.49,0 -0.88,0.39 -0.88,0.88 0,0.48 0.39,0.88 0.88,0.88z"/>
   <path class="fil11" d="M29.87 63.51l-4.1 0c-0.48,0 -0.88,0.39 -0.88,0.88 0,0.48 0.4,0.88 0.88,0.88l4.1 0c0.49,0 0.88,-0.4 0.88,-0.88 0,-0.49 -0.39,-0.88 -0.88,-0.88z"/>
   <path class="fil11" d="M28.99 71.71l-2.34 0 0 -2.34 2.34 0 0 2.34zm0.3 -4.1l-2.93 0c-0.81,0 -1.47,0.66 -1.47,1.46l0 2.94c0,0.8 0.66,1.46 1.47,1.46l2.93 0c0.8,0 1.46,-0.66 1.46,-1.46l0 -2.94c0,-0.8 -0.66,-1.46 -1.46,-1.46z"/>
   <path class="fil11" d="M33.39 69.37l7.04 0c0.49,0 0.88,-0.4 0.88,-0.88 0,-0.49 -0.39,-0.88 -0.88,-0.88l-7.04 0c-0.49,0 -0.88,0.39 -0.88,0.88 0,0.48 0.39,0.88 0.88,0.88z"/>
   <path class="fil11" d="M33.39 73.47l7.04 0c0.49,0 0.88,-0.39 0.88,-0.88 0,-0.48 -0.39,-0.88 -0.88,-0.88l-7.04 0c-0.49,0 -0.88,0.4 -0.88,0.88 0,0.49 0.39,0.88 0.88,0.88z"/>
   <path class="fil11" d="M48.64 35.38l-4.1 0c-0.49,0 -0.88,0.4 -0.88,0.88 0,0.49 0.39,0.88 0.88,0.88l4.1 0c0.48,0 0.88,-0.39 0.88,-0.88 0,-0.48 -0.4,-0.88 -0.88,-0.88z"/>
   <path class="fil11" d="M47.76 43.59l-2.35 0 0 -2.35 2.35 0 0 2.35zm1.76 -2.64c0,-0.81 -0.66,-1.46 -1.47,-1.46l-2.93 0c-0.81,0 -1.46,0.65 -1.46,1.46l0 2.93c0,0.81 0.65,1.46 1.46,1.46l2.93 0c0.81,0 1.47,-0.65 1.47,-1.46l0 -2.93z"/>
   <path class="fil11" d="M52.15 41.24l7.05 0c0.48,0 0.88,-0.39 0.88,-0.88 0,-0.48 -0.4,-0.87 -0.88,-0.87l-7.05 0c-0.48,0 -0.88,0.39 -0.88,0.87 0,0.49 0.4,0.88 0.88,0.88l0 0z"/>
   <path class="fil11" d="M52.15 45.34l7.05 0c0.48,0 0.88,-0.39 0.88,-0.87 0,-0.49 -0.4,-0.88 -0.88,-0.88l-7.05 0c-0.48,0 -0.88,0.39 -0.88,0.88 0,0.48 0.4,0.87 0.88,0.87l0 0z"/>
   <path class="fil11" d="M48.64 49.45l-4.1 0c-0.49,0 -0.88,0.39 -0.88,0.87 0,0.49 0.39,0.88 0.88,0.88l4.1 0c0.48,0 0.88,-0.39 0.88,-0.88 0,-0.48 -0.4,-0.87 -0.88,-0.87z"/>
   <path class="fil11" d="M47.76 57.65l-2.35 0 0 -2.34 2.35 0 0 2.34zm1.76 -2.64c0,-0.81 -0.66,-1.46 -1.47,-1.46l-2.93 0c-0.81,0 -1.46,0.65 -1.46,1.46l0 2.93c0,0.81 0.65,1.47 1.46,1.47l2.93 0c0.81,0 1.47,-0.66 1.47,-1.47l0 -2.93z"/>
   <path class="fil11" d="M52.15 55.31l7.05 0c0.48,0 0.88,-0.4 0.88,-0.88 0,-0.49 -0.4,-0.88 -0.88,-0.88l-7.05 0c-0.48,0 -0.88,0.39 -0.88,0.88 0,0.48 0.4,0.88 0.88,0.88l0 0z"/>
   <path class="fil11" d="M52.15 59.41l7.05 0c0.48,0 0.88,-0.4 0.88,-0.88 0,-0.49 -0.4,-0.88 -0.88,-0.88l-7.05 0c-0.48,0 -0.88,0.39 -0.88,0.88 0,0.48 0.4,0.88 0.88,0.88l0 0z"/>
   <path class="fil11" d="M48.64 63.51l-4.1 0c-0.49,0 -0.88,0.39 -0.88,0.88 0,0.48 0.39,0.88 0.88,0.88l4.1 0c0.48,0 0.88,-0.4 0.88,-0.88 0,-0.49 -0.4,-0.88 -0.88,-0.88z"/>
   <path class="fil11" d="M47.76 71.71l-2.35 0 0 -2.34 2.35 0 0 2.34zm0.29 -4.1l-2.93 0c-0.81,0 -1.46,0.66 -1.46,1.46l0 2.94c0,0.8 0.65,1.46 1.46,1.46l2.93 0c0.81,0 1.47,-0.66 1.47,-1.46l0 -2.94c0,-0.8 -0.66,-1.46 -1.47,-1.46z"/>
   <path class="fil11" d="M52.15 69.37l7.05 0c0.48,0 0.88,-0.4 0.88,-0.88 0,-0.49 -0.4,-0.88 -0.88,-0.88l-7.05 0c-0.48,0 -0.88,0.39 -0.88,0.88 0,0.48 0.4,0.88 0.88,0.88l0 0z"/>
   <path class="fil11" d="M52.15 73.47l7.05 0c0.48,0 0.88,-0.39 0.88,-0.88 0,-0.48 -0.4,-0.88 -0.88,-0.88l-7.05 0c-0.48,0 -0.88,0.4 -0.88,0.88 0,0.49 0.4,0.88 0.88,0.88l0 0z"/>
   <path class="fil11" d="M51.24 29.74l0 -4.34c0,-0.81 -0.65,-1.47 -1.46,-1.47l-14.59 0c-0.81,0 -1.46,0.66 -1.46,1.47l0 4.34c0,0.81 0.65,1.47 1.46,1.47l6.6 0c0.48,0 0.87,-0.4 0.87,-0.88 0,-0.49 -0.39,-0.88 -0.87,-0.88l-6.31 0 0 -3.76 14.01 0 0 3.76 -3.6 0c-0.48,0 -0.88,0.39 -0.88,0.88 0,0.48 0.4,0.88 0.88,0.88l3.89 0c0.81,0 1.46,-0.66 1.46,-1.47z"/>
   <path class="fil11" d="M73.18 44.08l0 -11.13c0,-0.49 -0.39,-0.88 -0.88,-0.88 -0.48,0 -0.88,0.39 -0.88,0.88l0 11.13c0,0.49 0.4,0.88 0.88,0.88 0.49,0 0.88,-0.39 0.88,-0.88z"/>
  </g>
 </g>
</svg>
