<?xml version="1.0" encoding="UTF-8"?>
<!DOCTYPE svg PUBLIC "-//W3C//DTD SVG 1.1//EN" "http://www.w3.org/Graphics/SVG/1.1/DTD/svg11.dtd">
<!-- Creator: CorelDRAW 2020 (64-Bit) -->
<svg xmlns="http://www.w3.org/2000/svg" xml:space="preserve" width="100px" height="100px" version="1.1" style="shape-rendering:geometricPrecision; text-rendering:geometricPrecision; image-rendering:optimizeQuality; fill-rule:evenodd; clip-rule:evenodd"
viewBox="0 0 100 100"
 xmlns:xlink="http://www.w3.org/1999/xlink"
 xmlns:xodm="http://www.corel.com/coreldraw/odm/2003"
 data-name="Layer 3"
 enable-background="new 0 0 511.993 511.993">
 <defs>
  <style type="text/css">
   <![CDATA[
    .fil11 {fill:black;fill-rule:nonzero}
    .fil1 {fill:#0A0B29;fill-rule:nonzero}
    .fil7 {fill:#71BF7E;fill-rule:nonzero}
    .fil4 {fill:#7FCB8F;fill-rule:nonzero}
    .fil3 {fill:#94D4A2;fill-rule:nonzero}
    .fil10 {fill:#9EC8FC;fill-rule:nonzero}
    .fil9 {fill:#BED9FD;fill-rule:nonzero}
    .fil8 {fill:#CD5668;fill-rule:nonzero}
    .fil5 {fill:#D5717F;fill-rule:nonzero}
    .fil6 {fill:#FFD064;fill-rule:nonzero}
    .fil2 {fill:#FFE07D;fill-rule:nonzero}
    .fil0 {fill:url(#id0)}
   ]]>
  </style>
  <linearGradient id="id0" gradientUnits="userSpaceOnUse" x1="25.68" y1="8.37" x2="74.45" y2="92.84">
   <stop offset="0" style="stop-opacity:1; stop-color:#CCCCCC"/>
   <stop offset="1" style="stop-opacity:1; stop-color:white"/>
  </linearGradient>
 </defs>
 <g id="Capa_x0020_1">
  <metadata id="CorelCorpID_0Corel-Layer"/>
  <path class="fil0" d="M83.72 16.28c-8.63,-8.63 -20.55,-13.97 -33.72,-13.97 -13.17,0 -25.1,5.34 -33.72,13.97 -8.63,8.62 -13.97,20.55 -13.97,33.72 0,13.17 5.34,25.1 13.97,33.72 8.62,8.63 20.55,13.97 33.72,13.97 13.17,0 25.09,-5.34 33.72,-13.97 8.63,-8.62 13.97,-20.55 13.97,-33.72 0,-13.17 -5.34,-25.1 -13.97,-33.72z"/>
  <path class="fil1" d="M50 0c13.81,0 26.31,5.6 35.36,14.64 9.04,9.05 14.64,21.55 14.64,35.36 0,13.81 -5.6,26.31 -14.64,35.36 -9.05,9.04 -21.55,14.64 -35.36,14.64 -13.81,0 -26.31,-5.6 -35.36,-14.64 -9.04,-9.05 -14.64,-21.55 -14.64,-35.36 0,-13.81 5.6,-26.31 14.64,-35.36 9.05,-9.04 21.55,-14.64 35.36,-14.64zm33.72 16.28c-8.63,-8.63 -20.55,-13.97 -33.72,-13.97 -13.17,0 -25.1,5.34 -33.72,13.97 -8.63,8.62 -13.97,20.55 -13.97,33.72 0,13.17 5.34,25.1 13.97,33.72 8.62,8.63 20.55,13.97 33.72,13.97 13.17,0 25.09,-5.34 33.72,-13.97 8.63,-8.62 13.97,-20.55 13.97,-33.72 0,-13.17 -5.34,-25.1 -13.97,-33.72z"/>
  <g id="_1632429654848">
   <path class="fil2" d="M57.07 27.03l-3.18 7.51 -1.25 1.72c-0.25,0.6 -0.92,0.91 -1.54,0.71 -1.29,-0.43 -2.94,-0.53 -4.37,-0.58 -1.83,-0.06 -3.59,0.23 -5.23,0.8l-3.43 -5.24 -0.63 -6.64c3.29,-1.2 6.85,-1.78 10.53,-1.63 2.87,0.13 5.69,0.69 8.38,1.68 0.67,0.25 1,1.01 0.72,1.67l0 0z"/>
   <path class="fil3" d="M41.5 37.34c-1.58,0.55 -3.17,1.66 -4.45,2.69l-5.06 -4.21 -1.92 -6.49c2.23,-1.69 4.71,-3.06 7.37,-4.02l3.38 9.11 0.68 2.92z"/>
   <path class="fil4" d="M31.7 50.83c-0.07,2.59 -0.15,5.46 0.99,7.61l-4.1 4.44 -6.17 1.59c-2.31,-4.25 -3.53,-9.14 -3.31,-14.29 0.36,-8.51 4.62,-16.02 10.96,-20.85l5.63 7.91 1.23 2.83c-3.21,2.58 -5.1,6.35 -5.23,10.76l0 0z"/>
   <path class="fil5" d="M74.47 52.55c-0.65,15.19 -13.68,27.15 -28.87,26.5 -10.04,-0.43 -18.67,-6.28 -23.18,-14.58l8.51 -4.64 2.1 -2.07c2.36,4.43 7.34,8.84 12.73,9.02 7.98,0.27 15.73,-6.72 16,-14.69 0.02,-0.44 -0.03,-0.82 -0.05,-1.25 -0.03,-0.65 0.36,-0.92 1.01,-1.01l2.15 -0.92 8.1 -1.11c0.71,-0.09 1.35,0.42 1.42,1.13 0.1,1.21 0.13,2.41 0.08,3.62l0 0z"/>
   <path class="fil6" d="M53.89 34.54l-0.98 2.34c-0.26,0.6 -0.93,0.91 -1.55,0.71 -1.29,-0.43 -2.67,-0.69 -4.11,-0.73 -1.83,-0.06 -3.59,0.23 -5.22,0.8l-1.29 -1.45 0.08 -1.79 0.06 -0.02c2.08,-0.73 4.26,-1.07 6.48,-1 0.08,0.01 1.91,0.13 1.98,0.14 0.39,0.01 2.36,0.45 4.55,1l0 0z"/>
   <path class="fil4" d="M42.03 37.66c-1.58,0.55 -3.04,1.37 -4.32,2.4l-2.1 -0.76 0.09 -2.06c1.55,-1.22 3.28,-2.17 5.12,-2.82l1.21 3.24z"/>
   <path class="fil7" d="M32.28 50.97c-0.08,2.59 0.54,5.05 1.68,7.2l-0.97 1.75 -2.06 -0.09c-0.01,-0.02 -0.02,-0.03 -0.02,-0.04 -1.45,-2.73 -2.18,-5.82 -2.09,-8.92 0.15,-5.26 2.6,-10.18 6.72,-13.5 0.06,-0.04 0.11,-0.09 0.16,-0.13l2.01 2.82c-3.21,2.58 -5.31,6.5 -5.43,10.91l0 0z"/>
   <path class="fil8" d="M64.73 52.41c-0.56,9.7 -8.8,17.25 -18.55,16.92 -0.06,0 -0.13,-0.01 -0.19,-0.01 -6.31,-0.28 -12.08,-3.92 -15.06,-9.49l3.03 -1.66c2.36,4.43 6.95,7.52 12.34,7.7 7.97,0.27 14.72,-6.04 14.99,-14.01 0.02,-0.44 0.02,-0.87 -0.01,-1.31 -0.03,-0.65 0.44,-1.22 1.09,-1.3l2.5 -0.34c0.07,1.59 -0.14,3.5 -0.14,3.5l0 0z"/>
   <path class="fil9" d="M69.62 42.95l1.77 0.62 8.44 -1.14c0.71,-0.1 1.2,-0.77 1.07,-1.47 -0.78,-4.27 -2.57,-8.31 -5.21,-11.78 -2.65,-3.46 -6.07,-6.25 -9.99,-8.13 -0.64,-0.31 -1.41,-0.02 -1.69,0.64l-3.27 7.7 0.11 2.21c-0.26,0.6 0,1.3 0.58,1.6 3.76,1.97 5.88,4.54 6.8,8.77 0.14,0.64 0.74,1.06 1.39,0.98l0 0z"/>
   <path class="fil10" d="M71.39 43.57l-2.12 0.28c-0.65,0.09 -1.26,-0.34 -1.4,-0.98 -0.91,-4.23 -3.68,-7.79 -7.45,-9.76 -0.58,-0.3 -0.83,-1 -0.58,-1.6l0.9 -2.12c1.46,1.04 2.58,1.84 2.58,1.84 3.39,2.21 5.9,5.5 7.13,9.35 0,0 0.48,1.32 0.94,2.99z"/>
   <path class="fil8" d="M53.93 24.69c-0.03,0 -0.05,0 -0.04,-0.01 0.01,0 0.02,0 0.04,0.01z"/>
   <path class="fil11" d="M74.5 47.34c-0.47,-0.37 -1.07,-0.53 -1.66,-0.45l-10.6 1.44c-1.12,0.15 -1.94,1.15 -1.88,2.27 0.02,0.41 0.02,0.82 0.01,1.23 -0.06,1.76 -0.46,3.46 -1.18,5.07 -0.21,0.46 0,1.01 0.47,1.22 0.47,0.21 1.01,0 1.22,-0.46 0.82,-1.83 1.27,-3.77 1.34,-5.77 0.02,-0.46 0.01,-0.93 -0.01,-1.39 -0.01,-0.16 0.11,-0.31 0.28,-0.34l10.6 -1.44c0.12,-0.02 0.21,0.04 0.25,0.07 0.04,0.03 0.11,0.11 0.13,0.22 0.1,1.16 0.12,2.34 0.07,3.5 -0.3,7.1 -3.38,13.68 -8.68,18.55 -5.29,4.86 -12.12,7.37 -19.22,7.06 -0.01,0 -0.02,0 -0.03,0 -9.16,-0.4 -17.38,-5.63 -21.91,-13.29l9.91 -5.41c0.54,0.89 1.19,1.73 1.92,2.52 2.75,2.93 6.66,4.74 10.74,4.86 4.62,0.16 9.04,-1.76 12.12,-5.27 0.33,-0.38 0.3,-0.97 -0.09,-1.3 -0.38,-0.34 -0.97,-0.3 -1.31,0.08 -2.71,3.09 -6.6,4.78 -10.66,4.64 -7.45,-0.26 -13.33,-6.52 -13.13,-13.96 0.1,-3.62 1.62,-7 4.28,-9.5 2.66,-2.51 6.12,-3.82 9.74,-3.71 1.32,0.05 2.61,0.28 3.85,0.69 1.07,0.35 2.25,-0.19 2.69,-1.23l4.16 -9.85c0.23,-0.55 0.23,-1.18 -0.01,-1.72 -0.24,-0.55 -0.69,-0.97 -1.24,-1.18 -2.77,-1.02 -5.67,-1.6 -8.62,-1.73 -0.01,0 -0.02,0 -0.04,0 -7.59,-0.32 -14.89,2.36 -20.55,7.55 -5.66,5.2 -8.96,12.24 -9.28,19.83 -0.03,0.73 -0.03,1.46 -0.01,2.18 0.02,0.51 0.45,0.91 0.96,0.89 0.51,-0.02 0.91,-0.44 0.89,-0.96 -0.02,-0.67 -0.02,-1.35 0.01,-2.03 0.3,-7.1 3.39,-13.68 8.68,-18.54 0.39,-0.35 0.78,-0.69 1.17,-1.02l6.58 9.25c-0.08,0.07 -0.16,0.15 -0.24,0.23 -3.03,2.84 -4.75,6.68 -4.87,10.8 -0.06,2.4 0.41,4.72 1.38,6.84l-9.92 5.42c-1.06,-2.12 -1.85,-4.4 -2.32,-6.8 -0.1,-0.5 -0.58,-0.83 -1.09,-0.73 -0.5,0.09 -0.83,0.58 -0.73,1.08 1.21,6.21 4.52,11.94 9.33,16.16 4.88,4.27 11.1,6.78 17.52,7.06l0.04 0c7.6,0.33 14.89,-2.35 20.55,-7.55 5.66,-5.2 8.96,-12.24 9.29,-19.83 0.05,-1.24 0.02,-2.5 -0.09,-3.74 -0.05,-0.59 -0.35,-1.14 -0.81,-1.51l0 0zm-37.6 -20.84l0.84 2.27c0.13,0.36 0.47,0.58 0.83,0.6 0.12,0 0.24,-0.01 0.36,-0.06 0.48,-0.18 0.72,-0.71 0.55,-1.19l-0.84 -2.25c2.97,-0.96 6.1,-1.4 9.29,-1.26 2.77,0.12 5.49,0.66 8.1,1.62 0.11,0.04 0.16,0.13 0.18,0.18 0.02,0.04 0.05,0.14 0,0.26l-4.16 9.85c-0.06,0.16 -0.24,0.24 -0.39,0.19 -1.41,-0.47 -2.88,-0.73 -4.38,-0.78 -1.61,-0.05 -3.19,0.15 -4.7,0.58l-1.6 -4.34c-0.18,-0.48 -0.71,-0.73 -1.19,-0.55 -0.48,0.18 -0.73,0.71 -0.55,1.19l1.6 4.31c-1.03,0.43 -2.01,0.98 -2.93,1.63l-6.56 -9.21c1.74,-1.24 3.6,-2.26 5.55,-3.04l0 0z"/>
   <path class="fil11" d="M81.81 40.79c-0.81,-4.4 -2.67,-8.61 -5.38,-12.17 -0.82,-1.07 -1.72,-2.09 -2.68,-3.03 -0.36,-0.36 -0.95,-0.35 -1.31,0.01 -0.36,0.36 -0.35,0.95 0.01,1.31 0.9,0.88 1.74,1.84 2.5,2.84 2.54,3.32 4.28,7.26 5.04,11.38 0.02,0.12 -0.03,0.21 -0.06,0.25 -0.03,0.04 -0.1,0.11 -0.22,0.13l-10.57 1.42c-0.17,0.03 -0.32,-0.08 -0.36,-0.25 -0.97,-4.48 -3.86,-8.26 -7.93,-10.39 -0.15,-0.08 -0.22,-0.26 -0.15,-0.42l4.16 -9.82c0.05,-0.11 0.14,-0.16 0.19,-0.18 0.05,-0.02 0.14,-0.04 0.25,0.01 1.38,0.67 2.71,1.45 3.96,2.34 0.41,0.3 0.99,0.21 1.29,-0.21 0.3,-0.42 0.2,-0.99 -0.22,-1.29 -1.33,-0.95 -2.75,-1.8 -4.22,-2.51 -0.54,-0.25 -1.16,-0.28 -1.72,-0.07 -0.55,0.21 -1,0.64 -1.23,1.19l-4.17 9.82c-0.44,1.03 0,2.26 1,2.78 3.58,1.87 6.13,5.2 6.98,9.14 0.21,0.97 1.07,1.67 2.04,1.72 0.12,0 0.25,0 0.38,-0.02l10.57 -1.42c0.58,-0.08 1.12,-0.4 1.47,-0.88 0.35,-0.49 0.49,-1.09 0.38,-1.68l0 0z"/>
  </g>
 </g>
</svg>
